<?xml version="1.0" encoding="UTF-8"?>
<svg id="Capa_1" data-name="Capa 1" xmlns="http://www.w3.org/2000/svg" viewBox="0 0 29.17 28.87">
  <defs>
    <style>
      .cls-1 {
        fill: #FFF;
        stroke-width: 0px;
      }
    </style>
  </defs>
  <path class="cls-1" d="m12.77,3.21c-.12.28-.05.58.13.8l-3.92,9.37-.04.11h0s-5.12,12.24-5.12,12.24l.63.27,4.77-11.42.62,2.29-3.42,8.18c-.28.02-.54.19-.66.47-.17.39.02.85.42,1.01.39.16.85-.02,1.01-.42.12-.28.05-.58-.13-.8l3.46-8.28.04-.11-.91-3.38,3.87-9.26c.28-.02.54-.19.66-.47.17-.39-.02-.85-.42-1.01-.39-.16-.85.02-1.01.42Z"/>
  <rect class="cls-1" x="10.46" y="19.84" width="3.55" height=".69"/>
  <path class="cls-1" d="m18.11,20.53c.13.25.38.43.68.43.43,0,.77-.35.77-.77s-.35-.77-.77-.77c-.3,0-.56.18-.69.43h-2.08l-1.98-1.98h-1.58c-.13-.25-.38-.43-.68-.43-.43,0-.77.35-.77.77s.35.77.77.77c.3,0,.56-.18.68-.43h1.3l1.98,1.98h2.36Z"/>
  <polygon class="cls-1" points="14.65 5.37 10.97 14.17 11.61 14.44 14.65 7.15 19.11 17.86 16.13 17.86 16.13 18.55 20.13 18.55 14.65 5.37"/>
  <path class="cls-1" d="m13.09,15.94c-.13-.25-.38-.43-.68-.43-.43,0-.77.35-.77.77s.35.77.77.77c.3,0,.56-.18.69-.43h4.2l-1.97-5.36c.19-.21.27-.51.17-.79-.15-.4-.59-.61-.99-.46-.4.15-.61.59-.46.99.1.28.36.46.64.49l1.63,4.43h-3.22Z"/>
  <path class="cls-1" d="m12.27,1.77c.28-.02.54-.19.66-.47.16-.39-.02-.85-.42-1.01-.39-.17-.85.02-1.01.42-.12.28-.05.58.13.8L.95,27.05c-.28.02-.54.19-.66.47-.17.39.02.85.42,1.01.39.16.85-.02,1.01-.42.12-.28.05-.58-.13-.8L12.27,1.77Z"/>
  <path class="cls-1" d="m21.14,27.05l-1.94-5.26h-9.2l-2.11,5.68h-3.67c-.13-.25-.38-.43-.68-.43-.43,0-.77.35-.77.77s.35.77.77.77c.3,0,.56-.18.68-.43h4.14l2.11-5.68h8.24l1.77,4.81c-.19.21-.27.51-.17.79.15.4.59.61.99.46.4-.15.61-.59.46-.99-.1-.28-.36-.46-.64-.49Z"/>
  <path class="cls-1" d="m23.67,27.05l-2.79-6.7.9-3.35-5.4-12.99c.18-.21.25-.52.13-.8-.16-.4-.62-.58-1.01-.42s-.58.62-.42,1.01c.12.28.38.45.66.47l5.31,12.77-.9,3.35,2.88,6.92c-.18.21-.25.52-.14.8.16.39.62.58,1.01.42s.58-.62.42-1.01c-.12-.28-.38-.45-.66-.47Z"/>
  <rect class="cls-1" x="23.77" y="18.84" width=".69" height="9.33" transform="translate(-7.18 11.06) rotate(-22.58)"/>
  <path class="cls-1" d="m28.18,27.05L17.29.88l-.09-.21h-1.91c-.13-.25-.38-.43-.68-.43-.43,0-.77.35-.77.77s.35.77.77.77c.3,0,.56-.18.68-.43h1.46l10.8,25.96c-.18.21-.25.52-.13.8.16.39.62.58,1.01.42s.58-.62.42-1.01c-.12-.28-.38-.45-.66-.47Z"/>
</svg>