<svg id="Capa_1" data-name="Capa 1" xmlns="http://www.w3.org/2000/svg" viewBox="0 0 114.61 29.33">

  <g>
    <g>
      <path className="fill-white stroke-0"
        d="m41.82,28.29c-6.12,0-11.1-4.98-11.1-11.09v-4.93c0-2.02.55-4.01,1.59-5.73.41-.67.65-1.06,1.24-1.67l.47.45c-.51.54-.72.85-1.15,1.55-.98,1.62-1.5,3.49-1.5,5.39v4.93c0,5.76,4.68,10.44,10.44,10.44,5.1,0,9.46-3.72,10.29-8.71h-3.4v-.66h4.16l-.05.37c-.72,5.5-5.44,9.65-11,9.65Z" />
      <path className="fill-white stroke-0"
        d="m33.26,4.58c.28-.29.75-.3,1.05-.02.29.28.3.75.02,1.04-.28.3-.75.31-1.05.02s-.3-.75-.02-1.05Z" />
      <path className="fill-white stroke-0"
        d="m48.71,17.86c-.41,0-.74.33-.74.74s.33.74.74.74.74-.33.74-.74-.33-.74-.74-.74Z" />
    </g>
    <g>
      <path className="fill-white stroke-0"
        d="m52.87,11.19h-6.41v-.66h5.65c-.83-4.99-5.19-8.71-10.29-8.71-1.7,0-3.55.2-5.6,1.65l-.38-.53c2.2-1.56,4.17-1.77,5.98-1.77,5.56,0,10.28,4.15,11,9.65l.05.37Z" />
      <path className="fill-white stroke-0"
        d="m46.46,11.61c-.41,0-.74-.33-.74-.74s.33-.74.74-.74.74.33.74.74-.33.74-.74.74Z" />
      <path className="fill-white stroke-0"
        d="m35.6,2.61c-.33.24-.41.7-.18,1.03.24.33.7.41,1.03.18.33-.24.41-.7.18-1.03-.24-.33-.7-.41-1.03-.18Z" />
    </g>
    <g>
      <path className="fill-white stroke-0"
        d="m41.82,22.24c-2.74,0-4.96-2.23-4.96-4.96v-5.08c0-2.74,2.23-4.96,4.96-4.96,1.11,0,2.17.36,3.04,1.05l-.4.52c-.76-.59-1.68-.91-2.64-.91-2.37,0-4.31,1.93-4.31,4.31v5.08c0,2.37,1.93,4.31,4.31,4.31,1.86,0,3.51-1.19,4.09-2.96l.62.21c-.67,2.04-2.57,3.41-4.71,3.41Z" />
      <path className="fill-white stroke-0"
        d="m45.52,18.49c.13-.39.55-.6.93-.47.39.13.6.55.47.93-.13.39-.55.6-.93.47-.39-.13-.6-.55-.47-.93Z" />
      <path className="fill-white stroke-0"
        d="m44.21,9.12c.32.25.79.19,1.04-.13.25-.32.19-.79-.13-1.04-.32-.25-.79-.19-1.04.13-.25.32-.19.79.13,1.04Z" />
    </g>
    <path className="fill-white stroke-0"
      d="m49.87,9.23c-.69-1.77-2.23-3.47-4.03-4.44l.31-.58c1.93,1.05,3.59,2.88,4.33,4.78l-.61.24Z" />
    <path className="fill-white stroke-0"
      d="m33.35,12.39h-.65v-.16c0-5.03,4.09-9.13,9.13-9.13.75,0,1.5.09,2.23.28l-.16.64c-.68-.17-1.37-.26-2.07-.26-4.67,0-8.47,3.8-8.47,8.47v.16Z" />
    <g>
      <path className="fill-white stroke-0"
        d="m41.81,26.25c-1.64,0-3.24-.45-4.64-1.3l.34-.56c1.29.79,2.78,1.2,4.3,1.2,2.7,0,5.24-1.33,6.8-3.54.29-.42.51-.76.74-1.28l.6.27c-.25.56-.49.95-.8,1.39-1.68,2.39-4.42,3.82-7.33,3.82Z" />
      <path className="fill-white stroke-0"
        d="m48.97,20.61c.16-.37.6-.54.98-.38s.54.6.38.98c-.16.37-.6.54-.98.38-.37-.16-.54-.6-.38-.98Z" />
      <path className="fill-white stroke-0"
        d="m37.72,24.04c-.35-.21-.8-.1-1.02.25-.21.35-.1.8.25,1.02.35.21.8.1,1.02-.25.21-.35.1-.8-.25-1.02Z" />
    </g>
    <path className="fill-white stroke-0"
      d="m41.8,24.25c-.27,0-.53-.02-.79-.04l.08-.65c.23.03.47.04.71.04,2.16,0,4.13-1.09,5.27-2.92l.56.35c-1.26,2.02-3.44,3.23-5.83,3.23Z" />
    <path className="fill-white stroke-0"
      d="m38.9,23.61c-2.47-1.13-4.07-3.57-4.07-6.23v-1.54h.65v1.54c0,2.4,1.45,4.61,3.69,5.63l-.27.6Z" />
    <g>
      <path className="fill-white stroke-0"
        d="m34.61,22.9c-1.24-1.61-1.9-3.53-1.9-5.56v-2.16l1.99-1.99v-1c0-3.92,3.19-7.12,7.12-7.12,2.7,0,4.65,1.07,6.15,3.36l-.55.36c-1.8-2.74-4.06-3.06-5.6-3.06-3.56,0-6.46,2.9-6.46,6.46v1.27l-1.99,1.99v1.89c0,1.88.61,3.67,1.76,5.16l-.52.4Z" />
      <path className="fill-white stroke-0"
        d="m35.46,22.25c.25.32.19.79-.13,1.04-.32.25-.79.19-1.04-.13-.25-.32-.19-.79.13-1.04.32-.25.79-.19,1.04.13Z" />
      <path className="fill-white stroke-0"
        d="m47.08,9.01c.22.34.68.44,1.02.21.34-.22.44-.68.21-1.02-.22-.34-.68-.44-1.02-.21-.34.22-.44.68-.21,1.02Z" />
    </g>
  </g>
  <g>
    <path className="fill-white stroke-0"
      d="m12.96,3.53c-.12.28-.05.58.13.8l-3.92,9.37-.04.11h0s-5.12,12.24-5.12,12.24l.63.27,4.77-11.42.62,2.29-3.42,8.18c-.28.02-.54.19-.66.47-.17.39.02.85.42,1.01.39.16.85-.02,1.01-.42.12-.28.05-.58-.13-.8l3.46-8.28.04-.11-.91-3.38,3.87-9.26c.28-.02.54-.19.66-.47.17-.39-.02-.85-.42-1.01-.39-.16-.85.02-1.01.42Z" />
    <rect className="fill-white stroke-0" x="10.65" y="20.16" width="3.55" height=".69" />
    <path className="fill-white stroke-0"
      d="m18.3,20.85c.13.25.38.43.68.43.43,0,.77-.35.77-.77s-.35-.77-.77-.77c-.3,0-.56.18-.69.43h-2.08l-1.98-1.98h-1.58c-.13-.25-.38-.43-.68-.43-.43,0-.77.35-.77.77s.35.77.77.77c.3,0,.56-.18.68-.43h1.3l1.98,1.98h2.36Z" />
    <polygon className="fill-white stroke-0"
      points="14.85 5.69 11.16 14.49 11.8 14.76 14.84 7.47 19.3 18.18 16.32 18.18 16.32 18.87 20.33 18.87 14.85 5.69" />
    <path className="fill-white stroke-0"
      d="m13.28,16.25c-.13-.25-.38-.43-.68-.43-.43,0-.77.35-.77.77s.35.77.77.77c.3,0,.56-.18.69-.43h4.2l-1.97-5.36c.19-.21.27-.51.17-.79-.15-.4-.59-.61-.99-.46-.4.15-.61.59-.46.99.1.28.36.46.64.49l1.63,4.43h-3.22Z" />
    <path className="fill-white stroke-0"
      d="m12.46,2.09c.28-.02.54-.19.66-.47.16-.39-.02-.85-.42-1.01-.39-.17-.85.02-1.01.42-.12.28-.05.58.13.8L1.15,27.37c-.28.02-.54.19-.66.47-.17.39.02.85.42,1.01.39.16.85-.02,1.01-.42.12-.28.05-.58-.13-.8L12.46,2.09Z" />
    <path className="fill-white stroke-0"
      d="m21.33,27.37l-1.94-5.26h-9.2l-2.11,5.68h-3.67c-.13-.25-.38-.43-.68-.43-.43,0-.77.35-.77.77s.35.77.77.77c.3,0,.56-.18.68-.43h4.14l2.11-5.68h8.24l1.77,4.81c-.19.21-.27.51-.17.79.15.4.59.61.99.46.4-.15.61-.59.46-.99-.1-.28-.36-.46-.64-.49Z" />
    <path className="fill-white stroke-0"
      d="m23.86,27.37l-2.79-6.7.9-3.35-5.4-12.99c.18-.21.25-.52.13-.8-.16-.4-.62-.58-1.01-.42s-.58.62-.42,1.01c.12.28.38.45.66.47l5.31,12.77-.9,3.35,2.88,6.92c-.18.21-.25.52-.14.8.16.39.62.58,1.01.42s.58-.62.42-1.01c-.12-.28-.38-.45-.66-.47Z" />
    <rect className="fill-white stroke-0" x="23.96" y="19.16" width=".69" height="9.33"
      transform="translate(-7.29 11.16) rotate(-22.58)" />
    <path className="fill-white stroke-0"
      d="m28.37,27.37L17.49,1.19l-.09-.21h-1.91c-.13-.25-.38-.43-.68-.43-.43,0-.77.35-.77.77s.35.77.77.77c.3,0,.56-.18.68-.43h1.46l10.8,25.96c-.18.21-.25.52-.13.8.16.39.62.58,1.01.42s.58-.62.42-1.01c-.12-.28-.38-.45-.66-.47Z" />
    <path className="fill-white stroke-0"
      d="m61.56,2.72c.3,0,.54-.17.67-.41h2.04v10.06h9.98V2.31h1.92c.12.24.37.41.67.41.42,0,.76-.33.76-.74s-.34-.74-.76-.74c-.3,0-.54.17-.67.41h-2.59v10.07h-8.64V1.66h-2.71c-.12-.24-.37-.41-.67-.41-.42,0-.76.33-.76.74s.34.74.76.74Z" />
    <path className="fill-white stroke-0"
      d="m80.73,1.98c0-.41-.34-.74-.76-.74s-.76.33-.76.74c0,.29.17.53.42.65v24.19c-.25.12-.42.36-.42.65,0,.41.34.74.76.74s.76-.33.76-.74c0-.29-.17-.53-.42-.65V2.63c.25-.12.42-.36.42-.65Z" />
    <path className="fill-white stroke-0"
      d="m74.25,26.83v-10.42h-9.98v7.64c-.25.12-.42.36-.42.65,0,.41.34.74.76.74s.76-.33.76-.74c0-.29-.17-.53-.42-.65v-6.98h8.64v9.77c-.25.12-.42.36-.42.65,0,.41.34.74.76.74s.76-.33.76-.74c0-.29-.17-.53-.42-.65Z" />
    <path className="fill-white stroke-0"
      d="m64.6,26.74c-.3,0-.55.17-.67.41h-5.03V2.63c.25-.12.42-.36.42-.65,0-.41-.34-.74-.76-.74s-.76.33-.76.74c0,.29.17.53.42.65v25.17h5.7c.12.24.37.41.67.41.42,0,.76-.33.76-.74s-.34-.74-.76-.74Z" />
    <rect className="fill-white stroke-0" x="62.41" y="18.31" width=".67" height="7.76" />
    <path className="fill-white stroke-0"
      d="m60.57,26.27c.42,0,.76-.33.76-.74,0-.29-.17-.53-.42-.65,0-1.58,0-5.56,0-6.35.41-.4,2.03-1.97,2.07-2.02l.1-.1V4.58c.25-.12.42-.36.42-.65,0-.41-.34-.74-.76-.74s-.76.33-.76.74c0,.29.17.53.42.65v11.57q-2.09,2.04-2.12,2.07l-.06.08v.1c0,.11,0,4.75,0,6.49-.25.12-.42.36-.42.65,0,.41.34.74.76.74Z" />
    <rect className="fill-white stroke-0" x="60.24" y="3.71" width=".67" height="12.45" />
    <rect className="fill-white stroke-0" x="64.48" y="14.93" width="9.35" height=".65" />
    <rect className="fill-white stroke-0" x="77.64" y="3.57" width=".67" height="7.75" />
    <path className="fill-white stroke-0"
      d="m78.31,18v-4.72l-.09-.09s-.75-.73-1.36-1.33l-.72-.7v-6.58c.25-.12.42-.36.42-.65,0-.41-.34-.74-.76-.74s-.76.33-.76.74c0,.29.17.53.42.65v6.81l.06.08s.02.03.86.84c.48.47,1.04,1.01,1.26,1.23v4.46c-.25.12-.42.36-.42.65,0,.41.34.74.76.74s.76-.33.76-.74c0-.29-.17-.53-.42-.65Z" />
    <path className="fill-white stroke-0"
      d="m78.73,20.72c0-.41-.34-.74-.76-.74s-.76.33-.76.74c0,.29.17.53.42.65v5.46c-.25.12-.42.36-.42.65,0,.41.34.74.76.74s.76-.33.76-.74c0-.29-.17-.53-.42-.65v-5.46c.25-.12.42-.36.42-.65Z" />
    <rect className="fill-white stroke-0" x="75.47" y="13.41" width=".67" height="14.28" />
    <path className="fill-white stroke-0"
      d="m74.38,13.55c0-.41-.34-.74-.76-.74-.3,0-.54.17-.67.41h-7.39c-.12-.24-.37-.41-.67-.41-.42,0-.76.33-.76.74s.34.74.76.74c.3,0,.54-.17.67-.41h7.39c.12.24.37.41.67.41.42,0,.76-.33.76-.74Z" />
    <path className="fill-white stroke-0"
      d="m98.26,3.53c-.12.28-.05.58.13.8l-3.92,9.37-.04.11.91,3.38-3.42,8.18c-.28.02-.54.19-.66.47-.17.39.02.85.42,1.01.39.16.85-.02,1.01-.42.12-.28.05-.58-.13-.8l3.46-8.28.04-.11-.91-3.38,3.87-9.26c.28-.02.54-.19.66-.47.17-.39-.02-.85-.42-1.01-.39-.16-.85.02-1.01.42Z" />
    <rect className="fill-white stroke-0" x="95.95" y="20.16" width="3.55" height=".69" />
    <path className="fill-white stroke-0"
      d="m103.6,20.85c.13.25.38.43.68.43.43,0,.77-.35.77-.77s-.35-.77-.77-.77c-.3,0-.56.18-.69.43h-2.08l-1.98-1.98h-1.58c-.13-.25-.38-.43-.68-.43-.43,0-.77.35-.77.77s.35.77.77.77c.3,0,.56-.18.68-.43h1.3l1.98,1.98h2.36Z" />
    <polygon className="fill-white stroke-0"
      points="100.15 5.69 96.47 14.49 97.1 14.76 100.14 7.47 104.6 18.18 101.62 18.18 101.62 18.87 105.63 18.87 100.15 5.69" />
    <path className="fill-white stroke-0"
      d="m98.58,16.25c-.13-.25-.38-.43-.68-.43-.43,0-.77.35-.77.77s.35.77.77.77c.3,0,.56-.18.69-.43h4.2l-1.97-5.36c.19-.21.27-.51.17-.79-.15-.4-.59-.61-.99-.46-.4.15-.61.59-.46.99.1.28.36.46.64.49l1.63,4.43h-3.22Z" />
    <rect className="fill-white stroke-0" x="86.34" y="20.89" width="10.72" height=".69"
      transform="translate(36.74 97.65) rotate(-67.31)" />
    <path className="fill-white stroke-0"
      d="m97.76,2.09c.28-.02.54-.19.66-.47.16-.39-.02-.85-.42-1.01-.39-.17-.85.02-1.01.42-.12.28-.05.58.13.8l-10.68,25.54c-.28.02-.54.19-.66.47-.17.39.02.85.42,1.01.39.16.85-.02,1.01-.42.12-.28.05-.58-.13-.8l10.68-25.54Z" />
    <path className="fill-white stroke-0"
      d="m106.63,27.37l-1.94-5.26h-9.2l-2.11,5.68h-3.67c-.13-.25-.38-.43-.68-.43-.43,0-.77.35-.77.77s.35.77.77.77c.3,0,.56-.18.68-.43h4.14l2.11-5.68h8.24l1.77,4.81c-.19.21-.27.51-.17.79.15.4.59.61.99.46.4-.15.61-.59.46-.99-.1-.28-.36-.46-.64-.49Z" />
    <path className="fill-white stroke-0"
      d="m109.16,27.37l-2.79-6.7.9-3.35-5.4-12.99c.18-.21.25-.52.13-.8-.16-.4-.62-.58-1.01-.42s-.58.62-.42,1.01c.12.28.38.45.66.47l5.31,12.77-.9,3.35,2.88,6.92c-.18.21-.25.52-.14.8.16.39.62.58,1.01.42s.58-.62.42-1.01c-.12-.28-.38-.45-.66-.47Z" />
    <rect className="fill-white stroke-0" x="109.27" y="19.16" width=".69" height="9.33"
      transform="translate(-.75 43.92) rotate(-22.58)" />
    <path className="fill-white stroke-0"
      d="m114.33,27.84c-.12-.28-.38-.45-.66-.47L102.79,1.19l-.09-.21h-1.91c-.13-.25-.38-.43-.68-.43-.43,0-.77.35-.77.77s.35.77.77.77c.3,0,.56-.18.68-.43h1.46l10.8,25.96c-.18.21-.25.52-.13.8.16.39.62.58,1.01.42s.58-.62.42-1.01Z" />
  </g>
</svg>