<?xml version="1.0" encoding="UTF-8"?>
<svg width="320" height="240" xmlns="http://www.w3.org/2000/svg">
  <path id="svg_1" d="m248.65297,96.37422c-1.25669,-9.24365 -6.3393,-17.27251 -15.58296,-24.51942l-5.31999,-3.58855l-3.54666,5.3898a42.25272,42.25272 0 0 0 -6.06004,25.79008a32.98114,32.98114 0 0 0 4.66372,14.14475a37.51919,37.51919 0 0 1 -18.38957,4.09122l-165.03135,0l-0.32115,1.91296c-1.54992,9.27158 -1.53595,38.20338 17.02117,60.43284c14.08889,16.8955 35.21525,25.46892 62.83451,25.46892c59.7626,0 103.9981,-27.92645 124.71952,-78.5571c8.14056,0.16756 25.69233,0 34.69861,-17.37025c0.22341,-0.39097 0.78194,-1.46614 2.34582,-4.76146l0.86572,-1.80126l-5.05469,-3.42099c-5.47358,-3.72818 -18.06841,-5.08261 -27.77285,-3.21154l-0.06982,0zm-77.31438,-61.87105l-25.1338,0l0,23.10914l25.1338,0l0,-23.10914zm0,27.73096l-25.1338,0l0,23.10914l25.1338,0l0,-23.10914zm-29.65789,0l-25.1338,0l0,23.10914l25.1338,0l0,-23.10914zm-29.65789,0l-25.1338,0l0,23.10914l25.1338,0l0,-23.10914zm-29.65789,27.74493l-25.1338,0l0,23.10914l25.1338,0l0,-23.10914zm29.65789,0l-25.1338,0l0,23.10914l25.1338,0l0,-23.10914zm29.65789,0l-25.1338,0l0,23.10914l25.1338,0l0,-23.10914zm29.65789,0l-25.1338,0l0,23.10914l25.1338,0l0,-23.10914zm29.65789,0l-25.1338,0l0,23.10914l25.1338,0l0,-23.10914z" fill="#1d63ed"/>
</svg>