<?xml version="1.0" encoding="UTF-8"?>
<svg id="Capa_1" data-name="Capa 1" xmlns="http://www.w3.org/2000/svg" viewBox="0 0 3000 3000">
  <defs>
    <style>
      .cls-1 {
        fill: #f3bdb5;
      }

      .cls-1, .cls-2, .cls-3, .cls-4, .cls-5, .cls-6, .cls-7, .cls-8, .cls-9, .cls-10, .cls-11, .cls-12 {
        stroke-width: 0px;
      }

      .cls-2 {
        fill: #dc4b36;
      }

      .cls-3 {
        fill: #eb9385;
      }

      .cls-4 {
        fill: #e67868;
      }

      .cls-5 {
        fill: #f7d6d1;
      }

      .cls-6 {
        fill: #f2bcb4;
      }

      .cls-7 {
        fill: #efa99f;
      }

      .cls-8 {
        fill: #f1b7ae;
      }

      .cls-9 {
        fill: #f5c8c1;
      }

      .cls-10 {
        fill: #f5c8c2;
      }

      .cls-11 {
        fill: #f2bcb3;
      }

      .cls-12 {
        fill: #e67969;
      }
    </style>
  </defs>
  <path class="cls-2" d="m1516,3000h-24c-3.11-2.02-6.57-.55-9.84-1h-5.76c-42.09-.05-76.7-18.15-105.6-46.82-107.43-106.58-214.19-213.83-321.19-320.85-331.36-331.42-662.74-662.81-994.27-994.06-20.19-20.17-35.3-43.13-45.95-69.41-5.3-13.08-6.49-26.72-7.4-40.51.05-5.87-.36-11.68-2-17.35v-24c1.49-5.35,2.05-10.81,2-16.36-.15-31.83,12.19-59.3,29.8-84.88,7.96-11.56,17.41-21.82,27.34-31.75,292.56-292.43,585.05-584.94,877.54-877.43,1.89-1.89,3.77-3.77,5.67-5.64,12.63-12.41,14.72-12.52,27.56.31,107.07,106.94,214.01,214.01,321.15,320.87,7.59,7.57,9.97,14.62,5.97,24.78-9.64,24.46-13.96,50.35-13.73,76.31.29,32.14,6.84,63.44,20.71,92.95,23.6,50.23,60.29,87.27,110.47,110.86,6.91,3.25,10.25,7.92,10.19,15.48-.04,5.33.14,10.66.14,16,0,258.99.02,517.98-.02,776.97,0,31.03.91,24.67-22.59,38.09-69.24,39.55-109.6,98.47-117.53,178.51-9.32,94.06,42.82,180.34,121.26,220.08,80.37,40.72,176.99,31.05,247.4-28.52,44.93-38.02,71.12-86.47,78.07-145.04,8.16-68.7-12.43-128.46-57.83-179.7-16.15-18.23-35.9-32.85-57.59-44.27-7.41-3.9-11.11-8.91-10.74-17.25.21-4.65-.06-9.33-.06-14,0-255.99,0-511.98.01-767.97,0-6.33-.55-12.72.7-18.95,1.36-6.81,5.91-8.61,11.69-4.82,2.79,1.83,5.06,4.33,7.42,6.68,96.2,96.13,192.23,192.42,288.68,288.29,9.18,9.12,10.31,17.21,6.57,29.15-23.87,76.21-12.86,147.14,36.23,210.54,38.12,49.22,89.1,77.12,151.17,84.05,65.9,7.36,124.14-10.91,173.77-54.55,49.37-43.41,74.35-98.51,75.89-164.51,1.08-46.55-10.66-89.46-36.56-127.63-40.49-59.66-96.96-93.39-169.41-100.22-27.06-2.55-53.16.75-78.96,7.8-11.2,3.06-19.19,1.05-27.63-7.42-104.19-104.63-208.62-209.03-313.2-313.27-7.94-7.92-10.55-15.09-7.26-26.42,16.37-56.29,11.16-111.63-15.47-163.21-33.39-64.67-87.01-104.72-159.07-119.12-34.06-6.81-67.76-4.77-100.86,4.47-11.71,3.27-19.07.63-27.28-7.62-86.07-86.46-172.39-172.66-258.66-258.92-22.39-22.39-44.88-44.69-67.12-67.22-11.08-11.22-11.18-13.76-.4-24.56,89.72-89.88,179.08-180.13,269.63-269.16,30.09-29.59,66.95-47.01,110.48-46.76,3.47-.46,7.13,1.04,10.46-1h22c2.58,1.92,5.54.61,8.3,1,2.39,0,4.78,0,7.16,0,41.29.32,76.19,16.8,105.48,44.52,98.5,93.2,192.73,190.73,288.65,286.54,339.68,339.29,679.05,678.9,1018.55,1018.38,16.76,16.76,32.01,34.66,44.35,55.08,12.67,20.97,18.67,43.46,18.51,67.78.3,2.24-.76,4.68,1,6.7v46c-1.92,2.52-.61,5.44-1,8.15.97,34.69-13.64,63.53-33.89,90.25-5.85,7.71-12.47,14.73-19.31,21.57-432.73,432.62-865.43,865.26-1297.94,1298.1-20.4,20.42-43.91,35.57-69.96,47.19-14.09,6.29-29.37,6.75-44.48,7.73h-7.32c-3.36.46-6.91-1.03-10.11,1Z"/>
  <path class="cls-10" d="m3.81,1528.06c-1.27-2.02-2.54-4.04-3.81-6.06,0-4,0-8,0-12,3.51,5.55,4.11,11.71,3.81,18.06Z"/>
  <path class="cls-7" d="m0,1476c1.22-2.06,2.43-4.12,3.65-6.18.49,5.78-.03,11.33-3.65,16.18,0-3.33,0-6.67,0-10Z"/>
  <path class="cls-8" d="m1475.88,1.8c.07-.6.11-1.2.12-1.8h10c-3.02,2.61-6.55,2.29-10.12,1.8Z"/>
  <path class="cls-12" d="m1481.79,2998.21c3.58-.4,7.08-.36,10.21,1.79h-10c-1.51-.42-1.58-1.02-.21-1.79Z"/>
  <path class="cls-4" d="m1516,3000c3.19-2.09,6.72-2.15,10.33-1.66.68.52.86.93.53,1.26-.27.27-.56.41-.86.41h-10Z"/>
  <path class="cls-3" d="m1516.19,1.75c-2.98.59-5.75.21-8.19-1.75h8c1.53.42,1.59,1.01.19,1.75Z"/>
  <path class="cls-5" d="m1516.19,1.75c-.14-.57-.2-1.16-.19-1.75h8c-.03.64-.02,1.27.03,1.9-2.61-.05-5.23-.1-7.84-.16Z"/>
  <path class="cls-9" d="m3000,1534l-.8.28-.83-.12c-.95-3.02.44-5.57,1.63-8.16v8Z"/>
  <path class="cls-11" d="m1526,3000c.11-.55.22-1.11.33-1.66,2.6-.03,5.21-.07,7.81-.1-.07.59-.12,1.17-.13,1.76h-8Z"/>
  <path class="cls-1" d="m2998.41,1473.79c.58-.3,1.11-.23,1.59.21v6c-2.14-1.66-2.11-3.87-1.59-6.21Z"/>
  <path class="cls-6" d="m1481.79,2998.21c.16.59.23,1.18.21,1.79h-6c-.1-.55-.16-1.1-.18-1.66,1.99-.04,3.98-.09,5.97-.13Z"/>
</svg>