<?xml version="1.0" encoding="UTF-8"?>
<svg id="Capa_1" data-name="Capa 1" xmlns="http://www.w3.org/2000/svg" viewBox="0 0 525.4 615.44">
  <defs>
    <style>
      .cls-1 {
        fill: #933a54;
      }

      .cls-1, .cls-2, .cls-3, .cls-4, .cls-5 {
        stroke-width: 0px;
      }

      .cls-2 {
        fill: #923650;
      }

      .cls-3 {
        fill: #933852;
      }

      .cls-4 {
        fill: #98425b;
      }

      .cls-5 {
        fill: #923651;
      }
    </style>
  </defs>
  <path class="cls-4" d="m.49,505.31c.45-24.7,5.95-48.3,15.35-71.08,6.15-14.91,13.12-29.43,20.02-44,1.17-2.48,2.13-4.04,5.54-3.08,3.84,1.08,2.27,3.34,1.92,5.37-7.83,45.56,16.71,91.53,59.68,113.4,5.09,2.59,9.24,3.19,14.81,1.17,53.16-19.3,95.94-52.48,130.6-96.65,5.03-6.4,9.64-13.15,14.17-19.92,1.61-2.41,3.31-3.12,6.13-3.06,39.37.89,74.14-25.11,84.47-63.25.83-3.08,2.17-3.85,5.11-3.95,10.32-.33,20.63-.33,30.95-.08,3.5.08,4.78,1.22,5.72,4.44,8.33,28.43,26.43,48.1,54.23,58.23,21.75,7.92,43.49,6.62,64.39-3.39,4.51-2.16,5.81-1.04,7.15,3.12,14.53,44.85-5.67,91.48-49.44,110.27-17.43,7.48-35.81,11.37-54.44,13.47-47.35,5.33-92.36,18.28-135.3,38.88-31.03,14.88-61.33,31.23-92.7,45.41-20.75,9.39-41.87,17.81-64.34,22.19-38.38,7.48-72.49-.38-100-29.33-14.51-15.27-20.66-34.56-23.16-55.1-.52-4.28-.58-8.61-.85-12.91.76-3.38-.06-6.75,0-10.13Z"/>
  <path class="cls-4" d="m452.5,217.33c-26.96-55.55-53.47-110.18-80.47-165.8-27.15,55.47-53.79,109.89-80.4,164.25-1.93-.4-1.89-1.73-2.23-2.74-23.26-69.33-46.47-138.68-69.85-207.97C218.01.48,219.21,0,223.45,0c99.04.1,198.08.09,297.12.03,3.42,0,5.16.02,3.68,4.4-23.66,70.07-47.17,140.2-70.72,210.31-.16.47-.36.92-1.04,2.59Z"/>
  <path class="cls-4" d="m101.21,303.27c-.05,22.03-17.88,40.27-39.29,40.21-21.55-.06-39.13-18.16-39.14-40.27,0-22.05,17.69-40.21,39.2-40.22,21.41-.01,39.27,18.34,39.22,40.29Z"/>
  <path class="cls-4" d="m270.9,260.75c21.49.04,39.33,18.4,39.15,40.29-.18,22.12-18.02,40.33-39.36,40.17-21.51-.16-39.18-18.39-39.12-40.38.05-22.08,17.76-40.11,39.33-40.07Z"/>
  <path class="cls-4" d="m469.15,339.75c-15.72-3.48-25.34-13.62-29.44-28.65-5.93-21.72,6.99-43.24,28.73-49.02,22.12-5.88,46.35,11.7,47.71,34.62,1.25,21.14-9.98,37.57-29.49,43.02-5.38,1.5-10.84,1.29-16.31.42,4.25-2.33,8.73-.12,11.86-.92-3.55.15-8.33-.75-13.06.53Z"/>
  <path class="cls-2" d="m.49,505.31c1.82,3.38,1.81,6.75,0,10.13-.52-3.38-.78-6.75,0-10.13Z"/>
  <path class="cls-2" d="m469.15,339.75c4.83-2.46,9.88-.43,14.82-.83-4.46,1.44-9.16-.15-13.62,1.22-.4-.13-.8-.26-1.2-.39Z"/>
  <path class="cls-3" d="m484.92,389.3h-14.68v-.49h14.72l-.04.49Z"/>
  <path class="cls-1" d="m220.75,1.17h4.92c97.56,0,195.12-.01,292.68.1,1.57,0,4.7-1.64,4.67,1.21-.02,1.56-2.7-.98-4.41-.38-1.04.36-2.31.07-3.47.07-96.39,0-192.79,0-289.18,0h-5.39c.06-.33.13-.66.19-.99Z"/>
  <path class="cls-5" d="m514.42,305.62v-9.69c1.01,3.21.79,6.44,0,9.69Z"/>
</svg>