<?xml version="1.0" encoding="UTF-8"?>
<svg id="Capa_1" data-name="Capa 1" xmlns="http://www.w3.org/2000/svg" viewBox="0 0 1273.87 1257.6">
  <defs>
    <style>
      .cls-1 {
        fill: #075e8a;
      }

      .cls-1, .cls-2, .cls-3, .cls-4, .cls-5, .cls-6 {
        stroke-width: 0px;
      }

      .cls-2 {
        fill: #0c608c;
      }

      .cls-3 {
        fill: #e58e00;
      }

      .cls-4 {
        fill: #00608b;
      }

      .cls-5 {
        fill: #00608c;
      }

      .cls-6 {
        fill: #e58f00;
      }
    </style>
  </defs>
  <g>
    <path class="cls-4" d="m362.02,40.59c11.71,5.66,20.65,15.04,30.71,22.92,2.32,1.81,4.8,3.42,7.2,5.11,6.37,4.38,13.77,1.67,20.6,2.95,12.07,2.27,24.41.7,36.49,2.25,4.77.61,9.9.51,14.36,3.01,6.64,2.43,13.69,3.31,20.45,5.28,4-.61,7.18,2.28,10.97,2.57h-.02c9.41,2.77,19.1,4.68,28.02,8.98,15.19,6.02,28.89,14.82,42.97,22.91,4.51,2.38,8.75,5.2,12.89,8.17,26.85,17.05,52.99,35.1,77.97,54.81,2.75,1.91,5.52,3.78,8,6.05,12.29,10.88,24.8,21.51,36.83,32.67,35.15,32.63,66.06,68.98,93.58,108.22,15.31,21.82,30.28,43.88,42.68,67.54,7.6,14.52,13.1,29.97,19.2,45.14,4.06,10.12,8.25,20.19,12.38,30.28.67,1.64,1.33,3.29,1.99,4.94,1.97,1.49,1.6,4.2,3.09,5.95,8.48,20.12,17.77,39.88,27.24,59.54,13.92,28.91,28.06,57.71,42.09,86.56,3.7,7.62,8.07,14.82,13,21.7,4.35,6.07,10.96,8.12,17.55,10.39,10.28,3.55,20.02,8.42,29.88,12.96,15.51,7.15,31.49,13.27,46.54,21.39,16.84,9.09,32.33,20.29,48.05,31.16,21.96,15.17,42.27,32.46,63.56,48.46,22.47,16.89,40.06,38.18,56.79,60.35,3.25,4.3,1.53,7.89-3.62,9.28-9.4,2.54-18.62,5.78-28.07,8.13-10.25,2.54-20.61,4.7-31.18,5.56-7.15.69-14.12,2.52-21.4,2.73-5.63.16-11.32,1.52-16.88,2.91-4.56,1.14-9.21,1.94-13.7,3.37-7.57,1.9-15.14,3.79-22.71,5.69-1.74.44-3.49.86-5.23,1.3-3.86.72-7.5,2.41-11.5,2.55-1.74.06-2.45.86-1.53,2.57,7.15,15.47,20.14,25.29,33.82,34.16,16.82,10.9,34.01,21.21,51.05,31.78,2.35,1.66,4.88,3.08,7.02,5.04,15.87,12.78,31.54,25.78,45.51,40.69,3.17,3.38,6.38,6.73,9.58,10.1.96,1.95,2.85,3.18,3.92,5.05,7.67,10.05,16.01,19.53,25.49,27.87,6.63,5.83,10.07,13.36,13.38,21.12,1.64,1.51,1.97,3.76,2.91,5.63,1.67,3.32-.38,3.22-2.74,2.18-31.79-28.61-65.54-54.36-104.98-71.79-3.7-1.58-7.67-2.57-10.96-5.03-17.4-8.21-34.91-16.25-50.61-27.54-17.3-12.44-35.55-23.78-50.1-39.6-10.43-11.35-20.11-23.4-26.87-37.43-2.72-5.63-4.5-11.68-8-17-1.44-2.2-.46-4.85,1.37-6.86,2.83-3.11,6.05-5.61,10.32-6.43,3.71-2.2,8.23-1.95,12.01-3.97,7.57-2.7,15.1-5.53,22.72-8.07,10.79-3.6,21.87-6.06,33.05-8.23,8.5-1.65,17.08-2.58,25.61-3.64,11.35-1.41,22.87-1.55,34.32-1.9,9.14-.28,18.3-.01,27.45-.06,4.49-.02,5.34-1.56,2.93-5.43-6.05-9.72-15.08-16.25-24.58-22.07-26.67-16.33-51.37-35.52-77.43-52.73-9.76-6.44-19.36-13.15-30.09-18-8.84-4-18.05-6.98-27.08-10.45-7.06-2.72-14.19-5.25-21.35-7.68-8.69-2.94-17.49-5.57-26.17-8.54-14.14-4.83-28.83-8.56-40.31-19.04-.9-1.38-1.87-2.71-3.09-3.83-19.96-28.89-33.92-60.85-48.09-92.76-11.08-24.94-23.14-49.43-34.77-74.12-9.72-20.63-19.45-41.24-26.79-62.9-6.79-20.01-17.4-38.21-27.99-56.37-13.71-23.51-28.87-46.06-45.43-67.66-29.8-38.89-63.2-74.32-101.07-105.49-25.41-20.91-51.97-40.16-80.23-57.05-21.34-12.75-43.43-24.02-66.56-33.17-6.72-2.66-13.67-4.76-20.51-7.12-17.8-5.43-36.16-6.12-54.56-6.52-.82-.02-1.66.05-2.37-.49-11.21-1.22-22.31-2.99-33.69-3.09-6.41-.06-11.92-4.72-16.75-9.02-11.9-10.61-24.59-20-38.6-27.73-21.46-11.85-43.64-22.08-66.66-30.44-6.53-2.37-13.45-3.95-20.37-4.33-19.51-1.06-29.95,14.29-24.63,32.08,5.71,19.12,17.58,34.71,29.88,50.02,17.24,21.47,33.81,43.47,47.23,67.59,7.66,13.76,12.99,28.58,17.86,43.54,5.83,17.92,11.95,35.74,17.51,53.74,5.67,18.37,12.42,36.28,21.24,53.35,5.23,10.14,10.61,20.24,17.81,29.2.9,1.74,2.08,3.3,3.16,4.93,6.16,7.83,14.22,13.87,20.25,21.88,7.9,10.5,8.49,21.99,5.65,34.05-4.52,19.18-12.19,37.32-18.77,55.83-1.36,3.83-3,7.73-3.15,11.94-2.27,8.31-3.75,16.77-5.28,25.24-.36.93-1.01,1.8-1.03,2.8-.21,10.13-3.53,19.9-3.17,30.13.54,15.12-1.21,30.36.81,45.37,1.19,8.8-.12,18.01,3.73,26.43,4.7,28.99,13.79,56.52,27.81,82.34,5.5,10.13,13.16,18.17,24.35,22.28,4.35,1.6,7.47-.19,8-4.85,2.37-20.61,4.08-41.32,7.37-61.79,3.42-21.25,7.89-42.51,20.51-60.67,7.75-11.15,16.47-21.63,24.74-32.42,2.19-2.86,3.62-1.02,4.96.85,2.67,3.73,3.58,8.15,4.58,12.48,2.28,9.92,6.9,18.95,10.81,28.21,8.36,19.78,16.89,39.52,27.15,58.41,10.8,19.9,21.07,40.11,33.41,59.14.96,1.15.89,2.88,2.17,3.85,10.97,19.19,23.38,37.45,36.13,55.48,6.66,9.42,13.83,18.49,20.76,27.72,1.17,1.45,2.4,2.86,3.46,4.41.23.44.38.91.47,1.4-.16,1.38.42,3.28-2.09,3.05-2.7-1.83-4.86-4.23-6.97-6.68-.18-1.72-1.38-2.22-2.86-2.39-2.32-1.68-4.64-3.35-6.95-5.03-2.74-1.91-5.47-3.84-8.01-6.02-12.25-11.06-24.9-21.7-36.36-33.62-6.19-6.43-12.33-12.91-18.5-19.37-1.28-1.72-3.04-3.05-4.03-5-18.98-20.26-30.04-45.3-42.13-69.72-3.08-6.22-6.15-12.44-9.13-18.7-.58-1.22-.75-2.7-2.58-2.35-1.52.29-2.12,1.49-2.38,2.87-.67,3.59-1.28,7.19-1.97,10.78-3.24,16.78-5.58,33.69-7.79,50.64-1.34,10.27-3.36,20.61-8.85,29.78-6.65,11.11-16.59,17.18-29.27,18.93-19.86,2.73-34.39-6.9-46.97-20.64-15.63-17.07-26.91-36.81-35.09-58.39-1.64-4.32-3.16-8.69-4.73-13.04-.84-1.61-1.19-3.41-1.95-5.06-2.74-10.91-5.87-21.71-7.7-32.84-1.37-8.35-3.03-16.63-3.72-25.09-.67-8.28-1.7-16.54-2.57-24.81.37-.63.64-1.32,1.04-1.94.46-7.85,1.76-15.72-.86-23.45-1.59-2.36-.55-4.88-.2-7.23,2-13.44,2.36-27.07,5.01-40.42,2.21-9.34,4.3-18.72,6.66-28.02,2.64-10.43,5.95-20.67,7.96-31.28,1.48-7.8,2.89-15.64,5.72-23.11.88-2.31,1.22-5.09,2.74-6.86,6.44-7.48,2.77-14.22-2.52-19.15-20.8-19.42-32.18-44.74-44.46-69.46-7.87-15.84-13.49-32.68-19.45-49.33-4.24-11.83-8.29-23.73-12.58-35.55-3.28-9.04-5.61-18.35-8.03-27.63-2.36-9.05-5.94-17.51-11-25.35-.7-1.84-1.69-3.48-3.11-4.85-12.19-19.74-26.29-38.07-40.83-56.09-.97-1.36-2.17-2.56-2.99-4.03-13.99-17.58-26.86-35.81-33.06-57.85-.58-5.1-1.7-10.1-2.79-15.11.06-14.64,4.88-27.75,12.84-39.85,1.75-1.93,2.59-4.61,4.99-6.01,6.73-6.76,14.52-11.72,23.84-14.11,11.34-4.09,23.12-1.99,34.71-2.24,3.83-.08,7.49,2.17,11.45,2.29,7.36.99,14.3,3.59,21.36,5.71,14.15,4.25,27.36,10.76,40.62,17.11,6.03,2.89,11.87,6.18,17.79,9.28,3.14,1.8,6.01,4,9.1,5.87Z"/>
    <path class="cls-4" d="m247.95,1034.31c-9.56,21.28-19.15,42.56-28.69,63.86-11.77,26.29-23.5,52.6-35.23,78.92-4.92,11.03-11.55,20.16-24.3,22.92-10.59,2.29-21.17,2.28-31.53-.77-10.69-3.15-16.74-11.23-21.11-21.03-19.18-42.94-38.46-85.82-57.71-128.72-2.28-5.09-4.57-10.17-7.96-15.13,0,1.69,0,3.38,0,5.07,0,51.44-.05,102.89.1,154.33.01,4.15-1,5.31-5.18,5.19-10.65-.32-21.31-.19-31.96-.05-2.98.04-4.37-.4-4.36-3.97.13-54.27.03-108.55.16-162.82.04-15.51,5.57-22.77,20.41-27.18,9.55-2.84,19.25-4.64,29.42-3.44,15.45,1.82,26.16,9.76,32.29,23.86,13.66,31.41,27.2,62.87,40.79,94.31,6.37,14.73,12.7,29.48,19.08,44.21.56,1.29.73,2.87,2.54,3.95,6.62-14.9,13.16-29.66,19.73-44.4,14.08-31.59,28.6-63,42.14-94.83,10.1-23.72,29.18-30.41,52.19-26.42,5.72.99,11.35,2.43,16.71,4.67,8.91,3.73,13.87,10.51,14.63,20.17.34,4.31.5,8.64.5,12.97.03,50.78.03,101.56,0,152.33,0,7.52.85,6.47-6.74,6.51-9.99.05-19.98-.17-29.96.1-3.86.1-4.96-.9-4.95-4.88.14-51.44.09-102.89.09-154.33v-5.26c-.36-.05-.73-.1-1.09-.14Z"/>
    <path class="cls-4" d="m525.36,1142.5c0,22.14-.39,44.3.11,66.43.45,20.11-9.18,32.93-26.97,40.54-12.31,5.27-25.15,8.08-38.61,8.05-42.62-.07-85.24-.08-127.87.07-4.03.01-5.54-.75-5.23-5.08.42-5.8.46-11.68,0-17.47-.37-4.67,1.4-5.36,5.59-5.35,41.12.16,82.25.08,123.37.11,6.04,0,11.89-.78,17.46-3.22,7.42-3.26,10.46-7.92,10.36-15.9,0-.67-.07-1.33-.09-2q-.26-11.12-11.65-11.12c-27.47,0-54.95.36-82.41-.16-16.38-.31-32.26-3.73-46.36-12.83-11.38-7.35-17.58-17.1-17.27-31.42.62-28.29.29-56.61.12-84.91-.02-3.84,1.03-4.69,4.69-4.6,10.65.25,21.32.3,31.96-.02,4.11-.12,4.88,1.29,4.86,5.05-.15,27.14.32,54.29-.24,81.42-.31,15.04,5.12,21.72,21.47,22.19,30.61.88,61.26.21,91.9.37,3.91.02,3.23-2.25,3.23-4.5,0-33.13.07-66.27-.09-99.4-.02-3.97.68-5.44,5.05-5.28,10.48.36,20.99.41,31.46-.01,4.7-.19,5.38,1.46,5.34,5.61-.18,24.47-.09,48.95-.09,73.43h-.09Z"/>
    <path class="cls-3" d="m625.22,1198.83c-20.98,0-41.96-.07-62.93.07-3.45.02-4.64-.89-4.48-4.44.28-6.15.32-12.33-.01-18.47-.21-3.82,1.04-4.7,4.74-4.68,36.13.14,72.26.12,108.39.05,6.47-.01,12.95-.46,19.1-2.81,8.16-3.11,12.3-9.18,12.32-17.91,0-5.66.02-11.32,0-16.98-.04-8.61-4.26-14.39-12.54-16.97-6.54-2.03-13.32-2.8-20.12-2.87-16.98-.18-33.99.47-50.94-.34-17.42-.83-34.13-5.07-48.2-16.23-7.81-6.19-12.41-14.12-11.9-24.53.53-10.78-.89-21.62.87-32.37,1.75-10.71,7.75-18.54,16.86-24.06,10.52-6.37,21.94-10.05,34.28-10.63,43.76-2.06,87.55-.36,131.31-1,3.2-.05,3.91,1,3.82,3.97-.2,6.49-.29,13,.03,19.47.18,3.73-.87,4.72-4.65,4.69-23.97-.18-47.95-.09-71.92-.09-14.15,0-28.3.03-42.46-.01-4.85-.01-9.56.86-14.31,1.68-7.44,1.28-11.54,5.77-12.2,13.03-.69,7.61-1,15.36.09,22.91,1.8,12.5,9.44,18.12,24.28,18.26,19.31.18,38.64-.34,57.94.2,18.37.52,35.79,4.86,50.64,16.52,7.53,5.91,11.36,13.65,11.18,23.32-.18,10.15,0,20.31-.4,30.45-.44,11.22-6.64,19.28-15.49,25.41-12.71,8.8-26.96,13.67-42.36,14.02-20.3.46-40.62.11-60.93.11,0,.07,0,.14,0,.21Z"/>
    <path class="cls-3" d="m1006.35,1080.67c0-23.64.12-47.29-.11-70.93-.04-4.27,1.18-5.21,5.25-5.1,10.65.3,21.31.29,31.96,0,3.96-.11,4.92,1.04,4.91,4.94-.14,45.96-.09,91.91-.09,137.87,0,14.64,5.67,21.17,20.26,22.99,4.94.61,9.95.9,14.93.92,34.63.08,69.27.11,103.9-.05,3.93-.02,5.14,1,4.92,4.94-.34,5.97-.32,12,0,17.97.2,3.74-.9,4.74-4.67,4.71-23.14-.18-46.29-.06-69.43-.1-15.48-.03-30.99.31-46.44-.38-14.95-.67-29.58-3.39-43.05-10.62-14.69-7.89-22.07-20.27-22.26-36.71-.27-23.47-.07-46.95-.07-70.43Z"/>
    <path class="cls-5" d="m435.83,185.64c2.47,1.9,4.78,4.04,7.43,5.65,8.43,5.1,11.57,14.02,15.27,22.13,4.08,8.95-4.56,30.26-13.24,36.1-2.68,1.81-3.14-.31-3.86-1.83-4.02-8.51-8.05-17.02-11.89-25.62-2.32-5.2-5.88-9.53-9.51-13.71-5.11-5.88-10.07-11.85-14.86-17.99-2.81-5.06-2.89-5.41,2.77-6.67,7.22-1.6,14.63-1.94,22.02-1.57,2.36.12,4.1,2,5.86,3.51Z"/>
    <path class="cls-1" d="m628.55,824.99c1.63-1.03.97-2.81,1.38-4.24,2.81.73,4.08,3.17,5.77,5.15,9.09,10.28,18.89,19.81,29.88,28.07.62.73.61,1.46-.14,2.05-.58.46-1.18.24-1.69-.22-14.04-7.63-24.18-19.73-35.2-30.81Z"/>
    <path class="cls-2" d="m373.94,625.09c-1.85-2.02-2.71-4.37-3.01-7.13-2.68-24.59-2.08-49.27-1.86-73.93.06-7.19,2.73-14.22,2.07-21.57-.11-1.2.67-2.57,2.05-3.2.79,5.07-1.21,9.92-1.17,14.93-3.01,17.51-2.46,35.17-1.89,52.78.38,11.77,1.48,23.54,3.77,35.14.19.95.04,1.97.05,2.96Z"/>
    <path class="cls-1" d="m629.79,818.87c.04.66.07,1.31.11,1.97-1.57-1.22-2.77-2.7-3.19-4.71,1.02.91,2.05,1.83,3.07,2.74Z"/>
    <path class="cls-1" d="m618.73,815.92c2.93-1.57,3.12.14,2.86,2.39-.95-.8-1.9-1.59-2.86-2.39Z"/>
    <path class="cls-3" d="m954.95,1190.81c1.05-.63,1.57-1.01,2.13-1.26,15.15-6.73,22.44-18.46,22.42-34.96-.03-34.8.01-69.6-.02-104.39-.01-15.16-7.07-26.3-19.92-33.87-11.36-6.69-23.92-10.17-36.9-10.46-28.62-.64-57.26-.43-85.9-.48-14.09-.02-27.76,2.44-40.57,8.43-16.24,7.59-24.87,20.13-24.76,38.52.2,33.3.14,66.6.03,99.9-.06,18.03,8.28,30.66,24.25,38.38,11.78,5.69,24.28,8.95,37.4,8.96,25.61.02,51.26,1.01,76.81-1.86,2.65-.3,4.7.34,6.72,2.21,9.17,8.46,18.54,16.71,27.69,25.2,2.12,1.96,4.21,2.8,7.07,2.75,8.82-.15,17.65-.06,26.47-.06,5.4,0,10.8,0,17.74,0-14.23-12.94-27.3-24.83-40.67-36.99Zm-22.18-24.88c-2.34,1.83-3.76,1.66-5.87-.34-7.99-7.53-16.23-14.79-24.24-22.3-2.21-2.08-4.43-3.04-7.51-3.01-14.28.14-28.56.06-44.18.06,11.84,10.8,22.61,20.61,34.5,31.46-3.18,0-5.05,0-6.92,0-12.15-.06-24.3.17-36.44-.28-14.33-.53-26.11-8.55-25.76-26.35.57-28.95.15-57.91.15-86.87,0-14.89,7.16-23.42,22.17-24.43,26.73-1.8,53.52-1.72,80.26-.03,14.23.9,21.78,9.72,21.79,23.87,0,30.12-.07,60.24.05,90.37.03,7.3-2.13,13.25-8,17.85Z"/>
    <path class="cls-6" d="m1243.07,1139.56c-17.54-.02-30.92,13.3-30.93,30.75,0,17.23,13.89,31.15,30.95,31,17.14-.15,31.01-14.24,30.77-31.27-.24-17.24-13.61-30.47-30.8-30.48Zm-.28,55.56c-13.57-.2-23.74-10.81-23.75-24.77-.02-14.16,10-24.66,23.59-24.73,13.81-.07,24.43,10.63,24.45,24.61.01,13.99-10.82,25.09-24.29,24.89Z"/>
  </g>
  <path class="cls-6" d="m1248.1,1173.09c.78-.4,1.33-.84,1.94-.97,5.24-1.18,7.34-4.49,7.13-9.76-.2-5.16-2.88-7.67-7.75-8.79-5.46-1.25-10.93-.34-16.38-.68-1.79-.11-2.24.84-2.23,2.43.03,9.98.03,19.95-.01,29.93,0,1.8.45,2.7,2.49,2.74,2.2.05,2.95-.75,2.84-2.89-.13-2.65-.16-5.33.02-7.98.1-1.45-1.08-3.7,1.38-4.14,2.23-.4,4.58-.58,5.99,2.16,1.59,3.09,3.77,5.88,5.26,9.01,1.75,3.67,4.29,4.64,8.46,3.22-3.07-4.79-6.05-9.45-9.14-14.28Zm-5.36-5.13c-6.73.06-6.8.06-6.59-5.98.05-1.42-1.03-3.91,1.47-3.98,4.03-.11,8.31-1.26,12.02,1.34,1.97,1.38,1.76,3.67,1.13,5.45-1.38,3.88-4.99,3-8.03,3.18Z"/>
</svg>