<?xml version="1.0" encoding="UTF-8"?>
<svg id="Capa_1" data-name="Capa 1" xmlns="http://www.w3.org/2000/svg" viewBox="0 0 199.92 206.03">
  <defs>
    <style>
      .cls-1 {
        fill: #fefefe;
      }

      .cls-1, .cls-2, .cls-3, .cls-4, .cls-5 {
        stroke-width: 0px;
      }

      .cls-2 {
        fill: #fcfdfd;
      }

      .cls-4 {
        fill: #336791;
      }

      .cls-5 {
        fill: #336790;
      }
    </style>
  </defs>
  <path class="cls-3" d="m174.23,118.35c4.19-.09,8.24-1.1,12.34-1.71,6.08-.91,10.92,1.69,12.8,7,1.39,3.93.02,7.38-2.43,10.4-4.41,5.46-10.28,8.9-16.77,11.22-6.16,2.2-12.62,3.1-19.13,2.72-2.56-.15-3.1.79-3.12,2.92-.06,6.41-.59,12.79-1.55,19.13-.66,4.36-1.65,8.64-3.1,12.81-4.21,12.13-12.75,19.27-25.23,21.92-4.58.97-9.17,1.76-13.84.89-7.81-1.44-13.07-6.08-16.31-13.23-4.04-8.89-5.09-18.35-5.41-27.94-.12-3.54-.02-7.09-.02-11.06-7.79,3.11-15.05,3.52-22.48,1.96-4.46-.94-8.65-2.42-11.94-5.72-.7-.7-1.12-.64-1.82-.1-8.28,6.38-18.39,4.79-25.9-3.24-6.36-6.8-10.3-15.05-13.65-23.57C8.9,103.07,3.64,82.67.75,61.72c-1.45-10.51-.9-21.1,2.72-31.28C9.05,14.72,20.47,6.08,36.66,3.59c13.6-2.1,26.83.22,39.79,4.32,1.72.55,3.06.42,4.65-.43,7.59-4.08,15.81-5.42,24.33-5.21,4.32.11,8.65.31,12.9,1.18,1.4.29,2.63-.26,3.9-.58,16.29-4.05,32.41-4.25,48.2,2.2,9.27,3.79,16.94,9.78,23.16,17.62,3.86,4.86,4.98,10.62,5.19,16.59.42,11.6-1.98,22.8-5.19,33.85-4.37,15.04-10.61,29.3-18.34,42.91-.4.71-1.04,1.31-1.02,2.3Z"/>
  <path class="cls-1" d="m96.52,143.58c-8.65,7.07-18.05,7.93-28.06,5.28-2.1-.56-4.07-1.45-5.77-2.83-3.57-2.89-3.23-6.87.81-9.1,2.74-1.51,5.79-2.03,8.81-2.57,5.05-.89,8.85-3.38,11.21-8.27-3.7-.22-7.14-1.01-10.34-2.65-1.22-.62-1.65.42-2.2,1.04-4.7,5.29-9.36,10.6-14.05,15.9-.94,1.06-1.85,2.15-2.89,3.1-5.65,5.2-12.12,5.3-17.92.28-4.23-3.66-7.11-8.32-9.63-13.22-6.38-12.4-10.45-25.64-13.91-39.07-2.99-11.58-5.84-23.22-6.72-35.2-.54-7.34.05-14.63,2.1-21.74,4.43-15.36,16.01-24.64,31.99-26.04,12.94-1.13,25.32,1.29,37.49,5.3,1.52.5,2.67.54,4.11-.34,8.76-5.34,18.47-6.9,28.34-5.23,6.97,1.17,13.33-.12,19.99-1.36,14.56-2.71,28.82-1.75,42.26,5.17,6.61,3.4,12.14,8.12,16.76,13.93,2.88,3.63,3.69,7.94,3.91,12.39.54,11.11-1.74,21.82-4.79,32.41-5.04,17.5-12.58,33.88-22.26,49.29-1.45,2.3-1.41,2.54,1.23,3.18,5.65,1.38,11.24.39,16.83-.57,1.31-.23,2.61-.55,3.93-.65,2.25-.18,4.41.13,5.62,2.35,1.22,2.24.28,4.25-1.19,5.95-4.02,4.66-9.14,7.73-14.95,9.51-7.07,2.18-14.33,2.95-21.68,1.59-1.44-.27-1.59.29-1.73,1.5-1.29,11.07-2.58,22.13-4.35,33.13-2.36,14.68-9.17,21.55-25.46,24.25-16.95,2.81-24.71-9.99-26.07-22.07-1.28-11.35-1.27-22.75-1.42-34.63Z"/>
  <path class="cls-5" d="m90.08,121.27c1.02-3.87,2.26-7.67,4.06-11.18,7.41-14.41,6.89-29.36,3.17-44.49-2.03-8.27-9.44-12.39-18.66-10.93-5.05.8-9.76,2.55-14.71,5.07,1.87-15.18,5.14-29.28,17.47-39.25,7.91-6.4,17.37-7.79,27.13-6.78,24.33,2.51,39.82,16.59,49.33,38.29.19.44.27.93.45,1.55-3.7.07-7.26-.21-10.81.39-9.11,1.53-14.17,8.12-13.36,17.37.5,5.71,2.05,11.14,4.42,16.28,5.34,11.62,10.96,23.1,18.46,33.71-.11.08-.34.3-.61.4-5.19,1.78-7.26,5.71-7.57,10.89-.87,14.54-2.82,28.96-5.25,43.3-1.97,11.65-6.83,16.09-18.58,18.4-2.88.57-5.77.89-8.67.3-6.52-1.33-11.4-7.45-12.44-15.46-1.89-14.58-1.57-29.23-1.41-43.87.1-8.76-3.64-13.13-12.42-13.99Z"/>
  <path class="cls-5" d="m74.17,18.74c-13.31,15.57-16.94,33.62-15.85,53.09.38,6.73.15,13.45-.71,20.16-1.32,10.24,1.19,19.31,8.77,26.63,1,.97.78,1.45,0,2.34-5.03,5.66-9.97,11.38-15,17.04-4.28,4.82-8.18,4.92-12.7.28-4.12-4.23-6.8-9.41-9.19-14.73-6.72-14.92-10.95-30.61-14.43-46.53-2.04-9.33-4.05-18.69-3.53-28.36.24-4.5.81-8.94,2.13-13.25,3.72-12.16,12.12-18.94,24.51-20.83,12.27-1.87,24.11.48,36.01,4.16Z"/>
  <path class="cls-5" d="m129.42,12.66c11.47-1.94,22.74-2.11,33.82,1.76,8.22,2.87,14.98,7.78,20.58,14.39,3.16,3.73,3.38,8.27,3.33,12.73-.11,10.64-2.53,20.9-5.69,31.01-4.6,14.74-10.98,28.67-19.03,41.84-.41.67-.7,2.11-1.66,1.65-1.18-.57-.12-1.61.27-2.34,3.87-7.23,4.22-15.02,3.1-22.84-1.24-8.66-1.2-17.2.35-25.79,1.13-6.29.37-12.3-2.46-18.17-7.01-14.54-17.08-26.05-31.72-33.28-.35-.17-.83-.21-.9-.97Z"/>
  <path class="cls-5" d="m94.12,85.67c.22,6.23-1.02,12.54-3.72,18.54-2.15,4.77-4.19,9.59-5.61,14.63-.44,1.56-1.32,1.57-2.58,1.4-11.84-1.67-20.56-13.03-19.08-25.44,1.03-8.63,1.28-17.24.77-25.88-.11-1.77.49-2.74,1.96-3.56,5.51-3.07,11.22-5.5,17.7-5.02,4.71.35,7.28,2.62,8.34,7.2,1.35,5.84,2.25,11.75,2.23,18.12Z"/>
  <path class="cls-5" d="m156.37,110.02c-5.69-11.59-12.75-21.9-15.67-34.12-.46-1.94-.82-3.89-.84-5.9-.04-6.18,2.62-9.42,8.74-10.41,3.05-.5,6.13-.28,9.21-.12,1.54.08,1.45,1,1.3,2.06-.42,3.13-.75,6.27-1.26,9.38-1.22,7.42-.04,14.74.73,22.09.6,5.65.46,11.21-2.22,17.03Z"/>
  <path class="cls-4" d="m67.17,141.67c1.97-1.03,4.2-1.29,6.34-1.69,5.65-1.07,10.33-3.54,13.52-8.48.45-.69,1.03-1.31,1.57-1.93,2.26-2.59,3.8-2.9,5.89-1.22,2.26,1.82,2.91,5.19,1.34,7.33-3.63,4.94-8.48,7.94-14.59,8.61-4.42.49-8.8.06-12.99-1.61-.41-.16-1.01-.23-1.1-1.01Z"/>
  <path class="cls-4" d="m185.5,128.28c-8.59,7.27-18.46,8.95-29.08,7.48-1.46-.2-2.06-1.04-1.93-2.61.33-3.99,1.53-5.56,5.07-6.39.58-.14,1.05-.29,1.64.08,5.78,3.62,12.13,2.84,18.44,2.3,1.96-.17,3.91-.57,5.86-.86Z"/>
  <path class="cls-2" d="m82.33,63.46c2.44-.03,4.05.34,5.5,1.18,1.88,1.09,2.03,2.48.54,4.02-2.71,2.81-7.81,1.85-9.33-1.76-.63-1.5-.23-2.61,1.37-3.09.86-.26,1.77-.33,1.92-.35Z"/>
  <path class="cls-2" d="m149.98,61.94c1.54.15,3.29-.08,3.74,1.58.42,1.54-.96,2.55-2.09,3.38-.65.48-1.46.83-2.24.99-2.01.4-4.96-1.11-5.06-2.7-.15-2.45,2.05-2.41,3.6-2.94.69-.23,1.47-.23,2.05-.32Z"/>
</svg>