<?xml version="1.0" encoding="UTF-8"?>
<svg id="Capa_1" data-name="Capa 1" xmlns="http://www.w3.org/2000/svg" viewBox="0 0 140.97 158.64">
  <defs>
    <style>
      .cls-1 {
        fill: #68696b;
      }

      .cls-1, .cls-2, .cls-3, .cls-4, .cls-5 {
        stroke-width: 0px;
      }

      .cls-2 {
        fill: #c9d302;
      }

      .cls-3 {
        fill: #0a9ee2;
      }

      .cls-4 {
        fill: #d77b18;
      }

      .cls-5 {
        fill: #c12a12;
      }
    </style>
  </defs>
  <path class="cls-1" d="m136.74,11.06c5.67,3.92,5.64,7.58-.09,11.99-.8.63-1.7.88-2.71.75-1.15-.19-2.31-.25-3.48-.25-41.26.02-82.52-.11-123.79.07-.66.03-1.28-.11-1.85-.42-6.16-4.05-6.4-7.75-.8-12,.8-.64,1.71-.83,2.7-.69,42.43.18,84.86.34,127.28-.09,1.01-.19,1.91.07,2.73.64Z"/>
  <path class="cls-1" d="m5.97,11.23c42.87-.01,85.75-.03,128.62-.04-1.53,1.48-3.46.89-5.23.9-39.39.03-78.77.03-118.16,0-1.76,0-3.69.58-5.24-.86Z"/>
  <path class="cls-1" d="m134.58,22.91c-42.87-.01-85.74-.03-128.6-.04,1.6-1.31,3.51-.77,5.28-.77,39.35-.03,78.71-.03,118.06,0,1.77,0,3.68-.56,5.26.81Z"/>
  <rect class="cls-3" x="6.7" width="26.23" height="7.08"/>
  <rect class="cls-5" x="107.86" width="26.23" height="7.46"/>
  <rect class="cls-2" x="42.68" width="26.23" height="7.08"/>
  <rect class="cls-4" x="75.7" width="26.23" height="7.46"/>
  <rect class="cls-3" x="6.7" y="27.11" width="26.23" height="131.52"/>
  <rect class="cls-2" x="42.68" y="27.11" width="26.23" height="105.35"/>
  <rect class="cls-4" x="75.7" y="26.74" width="26.23" height="72.74"/>
  <rect class="cls-5" x="107.86" y="26.74" width="26.23" height="46.36"/>
</svg>