<?xml version="1.0" encoding="UTF-8"?>
<svg id="Capa_1" data-name="Capa 1" xmlns="http://www.w3.org/2000/svg" viewBox="0 0 309.64 307.15">
  <defs>
    <style>
      .cls-1 {
        fill: #fec922;
      }

      .cls-1, .cls-2 {
        stroke-width: 0px;
      }

      .cls-2 {
        fill: #367bb6;
      }
    </style>
  </defs>
  <path class="cls-1" d="m300.55,108.41c-7.26-17.81-19.34-30.07-40.09-30.6-4.5-3.23-9.64-1.6-14.48-1.71-6.82-.15-8.24,1.28-8.15,8.15.18,13.46-.88,26.79-3.11,40.06-5.3,23.92-23.01,30.86-43.98,31.65-3.12,0-6.26-.14-9.35.43-2.24.76-4.57.72-6.9.72-19.94,0-39.88-.14-59.81.04-19.42.18-35.94,16.65-35.47,35.09-.58,16.04-.19,32.09-.26,48.14-.01,2.45-.35,5,1.21,7.21.1,6.63.32,13.25.28,19.88-.05,7,2.48,12.93,7,18.12,7.01,8.05,16.23,12.52,26.18,15.55,23.15,7.05,46.7,7.46,70.41,3.43,12.17-2.07,24-5.25,34.35-12.35,4.87-3.34,9.61-7.36,10.01-13.58.87-13.72.92-27.49-.03-41.23-2.28-2.33-5.25-1.77-8.01-1.78-17.97-.07-35.94-.03-53.91-.03-1.5,0-3,.1-4.49-.05-2.19-.21-5.11.46-5.23-3.06-.12-3.54,2.73-3.13,4.98-3.3,1.82-.14,3.66-.04,5.49-.05,24.95-.13,49.91.27,74.86-.22,9.75-.07,19.56,1.1,29.2-1.16,3.85-.9,7.82-1.84,10.05-5.7,10.19-7.03,17.13-16.57,21.19-28.14,10.09-28.72,9.53-57.36-1.94-85.51Zm-102.27,147.91c7.19.32,12.61,6.41,12.15,13.64-.47,7.33-6.94,13.13-14.44,12.95-7.3-.18-12.64-5.99-12.33-13.42.31-7.62,6.86-13.51,14.62-13.17Z"/>
  <path class="cls-2" d="m231.25,53.38c0-2.33,0-4.69-1.71-6.59,1.28-17.45-6.97-29.1-22.3-36.32-3.74-1.76-7.6-3.38-11.55-4.56-24.89-7.38-50.06-7.51-75.34-2.33-11.45,2.35-22.51,5.83-31.8,13.38-5.17,4.21-8.04,9.52-7.88,16.4.15,6.13-.07,12.28-.13,18.41-2.22,2.92-1.57,6.35-1.58,9.62-.03,9.01,1.02,10.07,9.93,10.1,18.76.05,37.53.01,56.29.02,1.83,0,3.65-.02,5.47.2,1.7.2,2.76,1.02,2.84,2.84.08,2.06-1.02,3.01-2.97,3.21-1.99.21-3.98.18-5.97.18-27.73,0-55.46-.01-83.19.02-2.95,0-6.03-.45-8.61,1.63-4.97.26-9.95.24-14.81,1.64-15.44,4.46-24.19,15.78-29.99,29.76C.02,130.18-1.47,150.24,1.25,170.64c1.83,13.76,5.6,26.96,13.31,38.73,6.22,9.49,14.24,17.07,25.83,18.72,10,1.42,20.2,1.04,30.32.17,2.18-2.16,1.73-4.88,1.39-7.45-1.68-12.88.4-25.59,1.59-38.36.52-2.26,1.01-4.52,1.66-6.75,3.08-10.57,9.39-18.16,20.12-21.47,6.98-2.15,14.13-3.53,21.5-3.22,1.12-.04,2.23-.17,3.32-.44,2.26-.76,4.6-.57,6.92-.58,21.28-.01,42.56.07,63.83-.03,18.96-.09,35.67-14.28,38.99-32.91.83-2.89,1.2-5.85,1.22-8.86.07-18.28.04-36.55.01-54.83Zm-119.37-2.58c-7.49-.07-12.63-5.46-12.53-13.15.1-7.63,6.51-13.72,14.28-13.54,7.16.16,12.19,5.54,12.18,12.99,0,7.97-5.91,13.78-13.93,13.7Z"/>
</svg>