<?xml version="1.0" encoding="UTF-8"?>
<svg id="Capa_1" data-name="Capa 1" xmlns="http://www.w3.org/2000/svg" viewBox="0 0 424.07 421.77">
  <defs>
    <style>
      .cls-1 {
        fill: #fefefe;
      }

      .cls-1, .cls-2, .cls-3, .cls-4, .cls-5, .cls-6, .cls-7, .cls-8, .cls-9, .cls-10, .cls-11, .cls-12, .cls-13, .cls-14, .cls-15, .cls-16, .cls-17, .cls-18, .cls-19, .cls-20, .cls-21, .cls-22, .cls-23, .cls-24, .cls-25, .cls-26, .cls-27, .cls-28 {
        stroke-width: 0px;
      }

      .cls-2 {
        fill: #3774a6;
      }

      .cls-3 {
        fill: #3775a9;
      }

      .cls-4 {
        fill: #37709f;
      }

      .cls-5 {
        fill: #feca3a;
      }

      .cls-6 {
        fill: #fed84a;
      }

      .cls-7 {
        fill: #366a96;
      }

      .cls-8 {
        fill: #3776ab;
      }

      .cls-9 {
        fill: #387ab0;
      }

      .cls-10 {
        fill: #fed748;
      }

      .cls-11 {
        fill: #fedd50;
      }

      .cls-12 {
        fill: #366c98;
      }

      .cls-13 {
        fill: #fecb3b;
      }

      .cls-14 {
        fill: #fed344;
      }

      .cls-15 {
        fill: #fed648;
      }

      .cls-16 {
        fill: #fec939;
      }

      .cls-17 {
        fill: #366d9a;
      }

      .cls-18 {
        fill: #376e9d;
      }

      .cls-19 {
        fill: #fed547;
      }

      .cls-20 {
        fill: #fecc3c;
      }

      .cls-21 {
        fill: #3778ad;
      }

      .cls-22 {
        fill: #fedb4d;
      }

      .cls-23 {
        fill: #376f9d;
      }

      .cls-24 {
        fill: #fed041;
      }

      .cls-25 {
        fill: #3773a4;
      }

      .cls-26 {
        fill: #3771a1;
      }

      .cls-27 {
        fill: #3777ac;
      }

      .cls-28 {
        fill: #fecd3e;
      }
    </style>
  </defs>
  <path class="cls-14" d="m289.86,214.59c22.43-7.9,33.92-24.42,37.33-47.33.17-1.15.54-2.26.82-3.39.78-1.37.51-3,1.97-4.33,15.66-14.26,29.8-30,44.03-45.65,1.42-1.57,2.09-4.3,5.03-4.06,6.59,2.29,12.52,5.62,17.15,10.98-13.33,13-25.36,27.23-38.33,40.6-19.9,20.53-39.35,41.5-58.82,62.45-7.58,8.16-15.63,15.87-23.13,24.14-17.99,19.83-37,38.7-55.19,58.35-.57.61-1.14,1.22-1.51,3.19,7.29.16,14.43.2,21.6-.1,12.98-.3,25.95-.15,38.92-.11,6.23.45,12.55-1,18.7.91.63.39.8.92.51,1.6-28.9.02-57.8.05-86.71.07-1.35,4.97-1.21,9.94-.07,14.92,2.93.04,5.86.08,8.8.12,1.49,2.98-.75,4.71-2.39,6.39-7.66,7.83-15.05,15.94-22.77,23.69-15.6,15.64-29.65,32.73-45.68,47.94-1.82,1.73-3.18,3.81-4.18,6.12-9.64-3.39-18.24-8.38-24.92-16.3-.78-2.8,1.25-4.33,2.83-5.94,13.01-13.32,25.28-27.32,38.34-40.6,17.82-18.13,34.71-37.16,52.44-55.38,17.26-17.74,33.74-36.24,50.96-54.04,5.77-5.96,11.44-12.05,17.24-18,2.19-2.25,4.4-4.47,7.04-6.21Z"/>
  <path class="cls-24" d="m279.95,310.85c-13.66,0-27.33,0-40.99,0-.86-2.81,1.27-4.28,2.78-5.93,12.27-13.33,25.16-26.08,37.38-39.47,17.26-18.91,35.39-37,52.76-55.8,12.64-13.68,25.58-27.06,38.46-40.51,10.34-10.8,20.08-22.19,30.83-32.61,1.5-1.45,2.71-4.16,5.71-2.62,6.13,9.15,9.65,19.33,11.92,30.01-.79,1.67-1.79,3.16-3.15,4.44-12.36,11.62-23.75,24.2-35.33,36.55-18.07,19.26-36.34,38.32-54.48,57.5-10.04,10.62-19.77,21.52-30.06,31.91-5.36,5.41-9.95,11.59-15.81,16.53Z"/>
  <path class="cls-26" d="m294.88,19.94c3.72,1.87,6.73,4.53,9.03,7.99-4.3,4.86-9.09,9.25-13.67,13.84-22.82,22.87-46.08,45.32-68.42,68.65-27.99,29.23-57.16,57.28-85.32,86.32-4.67,4.82-9.71,9.45-13.4,15.18-19.86,13.02-26.98,32.28-27.02,55.04-.02,12.29-.13,24.58-.19,36.87-3.26-.99-2.1-3.8-2.13-5.83-.16-11.3-.06-22.61-.08-35.21-15.72,17.69-33.02,32.35-47.8,49.51-9.33-3.08-16.81-8.75-22.9-16.37-.5-1.09.08-1.92.69-2.72.8-1.07,1.8-1.96,2.73-2.91,50.02-51.33,100.97-101.75,151.45-152.63,8.07-8.13,15.88-16.54,23.84-24.8,1.04-1.08,2.07-2.14,3.29-3.01q7.23-.56,7.9-8.95c2.03-2.2,4.18-4.29,6.3-6.39,23.5-23.32,45.93-47.7,69.76-70.7,1.69-1.64,2.9-4.25,5.96-3.88Z"/>
  <path class="cls-2" d="m11.82,277.21c-3.47-6.99-5.99-14.27-6.96-22.05-.56-1.7.87-2.34,1.76-3.21,11.33-11.04,22.75-22.01,33.54-33.57,21.02-22.53,43.66-43.45,64.78-65.85,13.71-14.54,28-28.47,42.03-42.67,9.33,0,18.66,0,27.99,0,1.37,1.91-.05,3.22-1.18,4.29-4.22,4.03-7.6,8.8-11.73,12.92-36.16,36.06-72.42,72.02-108.26,108.39-12.48,12.67-24.76,25.55-37.34,38.12-1.39,1.39-2.54,3.13-4.64,3.63Z"/>
  <path class="cls-14" d="m406.87,133.92c-2.32.04-3.37,1.97-4.76,3.32-15.72,15.27-29.8,32.11-45.4,47.52-10.85,10.71-21.08,22.06-31.4,33.29-13.14,14.3-26.96,27.96-40.05,42.27-14.33,15.67-29.28,30.73-43.61,46.39-1.1,1.2-1.81,2.75-2.7,4.14-6,0-11.99.03-17.99-.02-1.25-.01-2.84.58-3.61-.93-.78-1.54.57-2.43,1.45-3.37,5.45-5.81,10.9-11.64,16.4-17.41,14.33-15.03,28.85-29.9,43-45.1,12.79-13.75,25.96-27.14,38.77-40.86,18.03-19.31,36.13-38.54,54.52-57.51,6.91-7.14,13.12-14.97,20.18-22,1.29-1.28,2.42-2.82,4.51-2.83,4.48,3.62,7.96,8.05,10.68,13.1Z"/>
  <path class="cls-19" d="m289.86,214.59c-.65.94-1.19,1.99-1.97,2.8-11.92,12.3-24.17,24.29-35.74,36.91-17.51,19.11-35.53,37.72-53.39,56.49-10.18,10.7-20.13,21.63-30.39,32.27-15.09,15.66-29.81,31.67-44.64,47.58-1.11,1.19-1.82,2.75-2.72,4.13-4.53-4.33-7.86-9.36-9.15-15.6-.95-2.55.71-4.1,2.23-5.62,13.45-13.36,25.77-27.78,39.08-41.29,18.31-18.59,35.7-38.06,53.84-56.83,18.02-18.64,35.28-38.01,53.45-56.52.71-.72,1.36-1.47,2.47-1.52,3.99-.19,7.99.4,11.95-.32,4.99-.83,9.98-1.65,14.97-2.48Z"/>
  <path class="cls-18" d="m313.9,54.92c.68,9.66.47,19.32.12,28.99-1.8,1.96-3.67,3.84-5.57,5.7-36.52,35.88-71.54,73.23-108.07,109.09-.93.91-2.08,1.67-2.65,3.74,4.98.47,9.83.21,14.69.05,4.33-.13,8.65-.16,12.98-.05,9.17-.25,18.33-.17,27.5-.08,2.83.3,5.95-.83,8.35,1.66-.79.2-1.59.57-2.38.57-24.34-.03-48.69-.1-73.03-.16-6.14-.16-12.29-.03-18.42-.07-1.77.07-2.01-.87-1.32-2.2,1.15-2.24,2.73-4.17,4.44-6,.34-.37.69-.72,1.05-1.07,45.66-45.25,90.01-91.8,135.89-136.82,1.72-1.68,3-4.72,6.43-3.35Z"/>
  <path class="cls-3" d="m146.98,109.85c.05,1.92-1.4,2.93-2.55,4.09-20.53,20.87-41.05,41.74-61.59,62.6-22.52,22.87-45.05,45.74-67.61,68.59-3.38,3.42-6.91,6.69-10.37,10.03-2.57-8.91-3.68-18.03-3.8-27.28,11.32-11.25,21.99-23.13,33.25-34.44,26.75-26.89,53.63-53.64,80.42-80.5,1.06-1.06,2.24-1.98,3.26-3.08h28.99Z"/>
  <path class="cls-6" d="m110.12,352.84c0-10.66,0-21.33,0-31.99,5-5.11,9.38-10.77,14.46-15.81,22.07-21.88,42.55-45.28,64.25-67.53,5.78-5.93,11.73-11.77,17.05-18.16,1.01-1.21,2.12-2.1,3.81-1.97,8.55,0,17.1,0,25.63,0,3.43.3,2.59,2.47,1.61,4.25-1.69,3.08-4.11,5.63-6.61,8.09-22.75,22.44-43.76,46.53-66.16,69.31-16.32,16.6-31.57,34.23-47.99,50.74-1.58,1.59-2.84,4.45-6.05,3.06Z"/>
  <path class="cls-24" d="m145.94,411.07c-.98-3.16,1.32-4.94,3.09-6.72,9.02-9.05,17.97-18.16,26.58-27.62,13.84-15.22,28.04-30.09,42.6-44.63,1.45-1.45,2.49-3.1,2.75-5.17,13.66,0,27.33,0,40.99,0,1.25,1.67-.03,2.8-.92,3.93-2.25,2.89-4.56,5.71-7.17,8.3-22.21,22.03-42.75,45.66-64.76,67.88-3.84,3.88-7.04,8.39-11.27,11.93-11.08-.81-21.7-3.51-31.89-7.91Z"/>
  <path class="cls-28" d="m177.83,418.98c2.38-5.48,7.02-9.27,11.02-13.25,16.15-16.09,31.12-33.28,46.97-49.65,8.18-8.44,17.12-16.27,24.21-25.78.79-1.06,1.92-1.87,1.91-3.37,16.66,0,33.31,0,49.97,0,.7,1.66-.18,2.97-1.17,4.05-8.17,8.92-16.16,18.02-25.1,26.2-.62.57-1.33.98-2.2,1.04-3.52-1.36-6.58-3.72-10.54-4.18-11.49-1.34-20.18,6.65-19.65,18.21.1,2.13,1.08,4.23.24,6.39-13.47,12.56-26.15,25.87-38.44,40.07,4.4,2.01,8.74-.59,12.14,2.22-8.92,1.44-17.88.65-26.83.43-3.15-.08-6.3-.47-9.45-.72-1.66-.79-3.56.14-5.2-.73-.58-.03-1.16-.07-1.74-.1-1.89-1.23-4.17.16-6.09-.91l-.04.08Z"/>
  <path class="cls-15" d="m110.12,352.84c.75-.31,1.68-.43,2.23-.95,9.82-9.45,19.27-19.27,28.03-29.72.53-.64,1.08-1.27,1.66-1.86,11.83-12.17,23.91-24.09,35.43-36.55,18.05-19.53,36.2-38.95,54.86-57.91,2.07-2.11,4.75-4.32,4.64-7.91,8.33-.9,16.66-.91,24.99,0,0,1.49-.97,2.41-1.92,3.36-8.5,8.43-16.85,17-24.91,25.85-14.1,15.48-28.91,30.29-43.25,45.54-10.46,11.13-20.84,22.33-31.46,33.33-15.68,16.25-30.97,32.87-46.45,49.32-1.05,1.11-2.05,2.19-2.1,3.83-3.73-8.57-1.35-17.54-1.75-26.33Z"/>
  <path class="cls-25" d="m204.97,109.85c-.81,2.04-2.16,3.68-3.68,5.26-43.95,45.69-89.58,89.71-133.82,135.09-14.84,15.22-30.29,29.87-44.49,45.72-3.13-3.17-5.74-6.7-7.32-10.91.9-4.03,3.1-7.19,6.04-10.1,15.62-15.46,31.01-31.15,46.68-46.56,37.74-37.12,74.12-75.59,111.78-112.79,1.79-1.77,3.15-3.87,4.82-5.72,6.67,0,13.34,0,20,0Z"/>
  <path class="cls-3" d="m164.98,94.83c-11,0-21.99,0-32.99,0-1.39-2.69.9-3.95,2.29-5.34,6.44-6.44,12.89-12.88,18.59-20.01.82-.56,1.74-.98,2.7-1.15,7.65-1.38,12.53-6.01,15.43-13-.72-8.43,5.12-13.02,10.33-18.13,10.34-10.13,20.99-20.03,30.13-31.27,4.5-5.53,9.65-6.25,15.85-5.08,8.75-.02,17.41.69,25.89,2.95-.09,2.2-1.6,3.58-2.97,5.02-27.11,28.58-55.25,56.13-83,84.07-.71.71-1.57,1.23-2.26,1.95Z"/>
  <path class="cls-22" d="m207.98,217.93c-.9,1.38-1.63,2.93-2.74,4.11-7.4,7.85-14.88,15.63-22.36,23.41-20.82,21.66-40.84,44.08-62.17,65.26-3.47,3.45-5.67,8.19-10.59,10.13,0-13.33,0-26.66,0-39.99,6.55-7.76,14.14-14.52,20.87-22.14,11.67-13.2,24.36-25.48,36.23-38.52,1.5-1.65,2.95-2.89,5.47-2.86,11.32.13,22.64.04,33.96.06.52,0,.96.19,1.34.53Z"/>
  <path class="cls-26" d="m123.1,211.92c-2.19-.2-1.48-1.11-.53-2.12,4.41-4.73,8.71-9.58,13.24-14.2,8.28-8.44,16.72-16.72,25.05-25.1,45.98-46.29,91.94-92.61,137.93-138.88,1.47-1.48,2.61-3.57,5.12-3.67,2.72,2.51,4.87,5.39,5.88,9.02-.75,1.9-2.05,3.39-3.49,4.8-28.54,27.91-55.69,57.19-84.14,85.19-21.1,20.77-41.91,41.84-62.84,62.78-4.93,4.94-10.06,9.69-14.36,15.23-7.47,1.75-15.18,2.77-21.87,6.97Z"/>
  <path class="cls-28" d="m279.95,310.85c3.42-6.42,8.95-11.17,13.93-16.12,16.15-16.07,30.82-33.52,47.05-49.51,11.23-11.06,21.84-22.76,32.49-34.4,14.14-15.45,28.59-30.59,43.44-45.35.58-.58,1.29-1.03,1.94-1.55.58,6.07,3.62,11.71,3.09,17.97-3.73,4.92-8.11,9.23-12.39,13.65-20.68,21.38-40.97,43.13-61.43,64.71-16,16.87-31.94,33.8-47.87,50.76-.46.27-.88.24-1.26-.15-6.33,0-12.66,0-18.99,0Z"/>
  <path class="cls-21" d="m66,109.85c10.33,0,20.66,0,30.99,0,.84.9.56,1.84.06,2.75-.65,1.18-1.63,2.1-2.57,3.04-29.83,29.9-58.85,60.62-89.17,90.04-2.24,2.17-3.07,4.42-3.16,7.45-.11,3.36,1.26,7-1.29,10.06-1.62-12.76-.73-25.5.68-38.2.49-4.41.7-8.92,2.41-13.13,11.48-10.12,22.07-21.11,32.45-32.36,9.47-10.25,19.57-19.93,29.59-29.66Z"/>
  <path class="cls-2" d="m164.98,94.83c.09-2.3,1.99-3.37,3.36-4.74,15.96-16.01,32.04-31.9,47.91-48,12.45-12.64,24.65-25.53,36.96-38.31,7.94.85,15.58,2.8,22.87,6.08-1.21,5.21-5.57,8.26-8.9,11.67-24.15,24.68-48.52,49.16-73.21,73.3-9.66,0-19.33,0-28.99,0Z"/>
  <path class="cls-16" d="m283.9,357.97c3.64-4.94,8.53-8.68,12.6-13.2,5.26-5.84,11.07-11.21,15.42-17.84,1.84-.34,2.31.68,2.36,2.26.49,16.78,1.1,33.59-.13,50.34-.78,10.56-7.56,17.95-15.84,23.69-14.15,9.81-30.29,14.02-47.22,15.65-2.6,1.25-5.57-.45-8.15,1l-.47.14-.49-.07c-1.43-2.1.25-3.41,1.33-4.74,6.97-8.6,15.16-16.11,22.19-24.66,1.26-1.53,3.05-1.84,4.92-1.93,1.64-.07,3.33.1,4.77-.95,2.41-1.72,5.3-2.69,7.4-4.91,5.06-5.35,6.16-12.56,3.03-19.76-.7-1.62-2.17-3-1.72-5.02Z"/>
  <path class="cls-25" d="m193.97,94.83c.09-2.3,1.99-3.37,3.35-4.73,20.17-20.22,40.31-40.46,60.6-60.56,6.36-6.3,12.05-13.17,18.17-19.68,6.94,2.11,13.38,5.15,18.8,10.09-16.54,16.08-33.08,32.14-48.77,49.08-9.93,10.72-20.59,20.76-30.98,31.06-.52.51-1.5.56-2.27.83.42-4.93-1.84-6.48-6.65-5.98-4.04.42-8.17-.03-12.25-.1Z"/>
  <path class="cls-8" d="m.87,223.2c-2.18-11.6,3.58-19.17,11.73-26.72,15.61-14.47,30.62-29.63,45.24-45.11,12.11-12.81,24.62-25.2,36.97-37.76,1.05-1.07,2.24-2.04,2.19-3.74,7,0,14,0,20.99,0-.06,2.52-2.15,3.66-3.62,5.14-23.04,23.09-46.17,46.1-69.16,69.24-13.24,13.33-26.24,26.89-39.38,40.3-1.35,1.38-2.44,3.27-4.75,3.34-.07-1.56-.13-3.12-.2-4.68Z"/>
  <path class="cls-12" d="m252.99,203.79c-9.34,0-18.68,0-28.02,0-1.48-2.99,1.24-4.16,2.66-5.71,23.71-25.9,49.34-49.91,73.91-74.97,2.56-2.61,5.1-5.26,7.8-7.72,1.27-1.15,2.51-2.94,4.68-1.49.41,9.33.42,18.65,0,27.98-9.08,9.42-18.48,18.54-27.71,27.81-10.29,10.33-19.85,21.37-30.32,31.52-.95.92-1.78,1.96-2.99,2.58Z"/>
  <path class="cls-5" d="m423,229.15c.09,5.43-.32,10.8-1.99,16.01-2.04-.66-3.11.89-4.18,2.03-13.78,14.79-28.34,28.84-41.55,44.17-5.74,6.66-12.58,12.28-18.24,19.03-.67.79-1.69,1.01-2.74.96-6.66,0-13.3,0-19.94,0-2.98-.25-2.05-2.08-1.23-3.52,1.57-2.76,3.69-5.12,5.95-7.35,22.53-22.2,43.27-46.1,65.44-68.64,4.65-4.73,8.87-9.94,13.79-14.41,1.31-1.19,3.28-4.31,5.08-.16-.24,3.96.47,7.95-.4,11.88Z"/>
  <path class="cls-4" d="m144.98,204.94c.25-3.1,2.42-4.99,4.43-6.99,23.8-23.79,47.65-47.52,71.36-71.39,28.39-28.58,56.65-57.29,84.98-85.93,1.28-1.3,2.7-2.46,4.05-3.68,1.26,4,4.27,7.41,3.97,11.93-2.56.02-4.23,1.59-5.9,3.27-23.74,23.77-47.94,47.11-71.14,71.4-24.01,25.14-49.05,49.24-73.32,74.11-1.14,1.16-2.61,2.09-3.1,4.09,1.45,1.78,4.25.27,5.71,2.05,6.6.51,13.25-.67,19.82.64-13.62.17-27.23.34-40.85.5Z"/>
  <path class="cls-25" d="m184.97,109.85c.04,1.36-.07,2.66-1.15,3.68-.73.69-1.4,1.42-2.11,2.13-53.4,53.73-106.75,107.51-160.34,161.06-2.58,2.57-2.36,6.59-5.72,8.29-1.78-2.36-3.21-4.88-3.83-7.81,3.14-4.57,7.5-7.99,11.3-11.92,46.38-47.98,93.98-94.75,140.91-142.18,3.96-4.01,8.61-7.76,10.94-13.26,3.33,0,6.67,0,10,0Z"/>
  <path class="cls-17" d="m210.97,203.79c-3.82.03-7.65.13-11.47.05-1.38-.03-3.35.83-3.98-.96-.47-1.35,1.2-2.21,2.1-3.12,5.85-5.9,11.74-11.77,17.62-17.65,11.52-11.52,23.41-22.71,34.48-34.64,19.12-20.59,39.5-39.91,59.15-59.96,1.46-1.49,2.62-3.56,5.14-3.6.4,5,.41,10,0,15-1.49,1.56-3.02,3.09-4.51,4.64-26.5,27.55-53.63,54.48-80.51,81.66-6.06,6.13-11.62,12.77-18.02,18.58Z"/>
  <path class="cls-9" d="m110.07,74.92c-.23-10.29-1.09-20.61-.52-30.86.73-13.19,9.21-21.78,19.9-28.11,13.35-7.91,28.06-11.86,43.47-13.25,1.59,2.36-.3,3.77-1.64,5.03-6.9,6.48-12.57,14.12-19.48,20.59-1.57,1.47-3.23,2.94-2.73,5.47-.86,1.35-2.37,1.74-3.63,2.5-5.22,3.15-8.09,7.65-8.15,13.85-.02,2.13.29,4.32-.7,6.35-5.45-2.17-7.72,1.93-10.5,5.24-3.61,4.29-7.74,8.08-11.77,11.96-1.11,1.07-2.33,2.56-4.24,1.23Z"/>
  <path class="cls-28" d="m299.94,310.85c-.01-1.27.69-2.15,1.52-3.02,5.7-6.01,11.28-12.15,17.1-18.05,22.25-22.55,43.34-46.21,65.52-68.84,10.66-10.88,20.53-22.55,31.52-33.13,2.07-1.99,2.61-5.65,6.29-5.92,1.34,4.2,1.12,8.55,1.17,12.87-.11.21-.22.42-.33.64-16.81,16.56-32.39,34.29-48.62,51.4-7.43,7.83-15.25,15.28-22.44,23.38-11.68,13.18-24.31,25.48-36.22,38.46-1.09,1.19-1.9,2.83-3.92,2.72-3.86-.3-7.76.58-11.58-.49Z"/>
  <path class="cls-21" d="m149.02,32.95c-4.01-1.34-.67-2.74.15-3.62,6.95-7.45,14.03-14.79,21.06-22.17,1.22-1.28,2.88-2.33,2.68-4.48,18.05-3.02,36.2-3.28,54.4-1.86-9.06-2.32-13.66,4.26-18.36,9.76-9.85,11.52-21.07,21.67-31.71,32.38-2.87,2.89-5.06,5.47-4.29,9.73.2,1.12.14,2.35-.89,3.22-1.22-.91-1.36-2.29-1.3-3.6.41-9.09-4.51-14.53-12.22-18.11-2.75-1.86-5.9-.63-8.83-1.13-.23-.04-.46-.09-.69-.13Z"/>
  <path class="cls-10" d="m379.04,109.83c-8.91,10.5-18.21,20.62-27.9,30.41-5.49,5.54-10.8,11.26-16.03,17.05-2.19,2.42-5.92,3.13-7.1,6.58,0-17.62.09-35.25-.04-52.87-.02-3.23.91-4.34,4.22-4.28,11.3.18,22.61.03,33.92.08,4.52.02,8.88.92,12.93,3.03Z"/>
  <path class="cls-11" d="m207.98,217.93c-11.16-.02-22.32,0-33.48-.08-2.29-.02-3.86.55-5.56,2.37-12.44,13.39-25.3,26.4-37.57,39.94-5.48,6.04-11.18,11.84-16.87,17.66-1.25,1.27-2.27,2.97-4.38,3.04-.58-10.87-.53-21.7,3.92-31.9,8.46-19.4,24.59-27.93,44.48-31.08,5.96-.94,11.94-.86,17.93-.86,32.82.02,65.63.03,98.45.05-4.21,1.78-8.64.31-12.94.87-8.33,0-16.66,0-24.99,0-9.66,0-19.32,0-28.99,0Z"/>
  <path class="cls-23" d="m45.88,312.29c.28-3.04,2.22-5.06,4.25-7.08,12-11.96,23.91-24.02,36-35.88,2.64-2.59,3.74-6.84,8.86-7.91,0,1.88,0,3.59,0,5.29,0,10.63-.03,21.26.03,31.89,0,1.76-.63,3.69.87,5.22.72,11.21.71,11.36-10.21,11.16-11.24-.21-22.52.92-33.72-.87-2.14-.34-4.15-.9-6.08-1.83Z"/>
  <path class="cls-7" d="m252.99,203.79c.77-1.67,1.72-3.18,3.03-4.52,17.6-17.88,35.17-35.79,52.72-53.72,1.54-1.57,3.22-2.87,5.26-3.67,1.01,15.65-.69,30.62-11.37,43.16-8.8,10.32-20.2,15.91-33.49,17.92-1.96,1.08-4.28-.33-6.21.93-.57.05-1.14.1-1.71.15-2.75-.08-5.5-.16-8.24-.24Z"/>
  <path class="cls-17" d="m210.97,203.79c.01-1.92,1.53-2.86,2.64-4.05,22.16-23.68,45.62-46.08,68.16-69.38,9.12-9.43,18.23-18.88,27.45-28.21,1.36-1.38,2.46-3.25,4.8-3.25.4,5,.41,10,0,15-2.13-.04-3.18,1.62-4.45,2.88-24.23,24.2-48.58,48.28-72.53,72.76-4.3,4.39-9.24,8.5-12.08,14.24-4.67,0-9.33,0-14,0Z"/>
  <path class="cls-16" d="m355.92,310.86c.9-2.4,2.6-4.19,4.41-5.92,15.27-14.69,28.62-31.21,43.78-46.04,4.57-4.47,8.81-9.4,13.33-13.99,1.06-1.08,2.67-3.67,3.57.25-1.82,3.66-.91,7.75-2,11.61-5.27,18.54-13.44,35.1-30.09,46.11-9.97,6.59-20.87,10.12-33,8.97-.35-.22-.47-.44-.35-.66.12-.22.23-.33.35-.33Z"/>
  <path class="cls-4" d="m166.01,203.8c-2.56-.22-6.29,1.4-7.39-.94-1.42-3.01,2.54-4.55,4.39-6.4,22.15-22.31,44.85-44.09,66.52-66.85,25.8-27.1,52.81-52.99,78.98-79.71,1.4-1.43,2.8-4.44,5.26-1.02.39,2.01.58,4.01.13,6.04-2.12.02-3.15,1.71-4.41,2.98-25.21,25.18-50.84,49.97-75.47,75.71-20.48,21.41-41.83,41.94-62.43,63.22-2.06,2.13-3.73,4.64-5.58,6.97Z"/>
  <path class="cls-9" d="m66,109.85c.05,1.7-1.14,2.67-2.18,3.73-17.87,18.2-35.74,36.4-53.6,54.61-1.76,1.8-3.57,3.48-6.26,3.68,5.16-25.91,16.09-47.7,42.17-58.47,6.31-2.61,12.93-4.13,19.87-3.55Z"/>
  <path class="cls-27" d="m110.07,74.92c6.47-3.61,10.72-9.6,15.77-14.73,1.38-1.4,2.49-3.08,3.93-4.42,2.51-2.34,5.01-3.65,6.35,1.12.16,0,.43-.07.48,0,3.83,5.96,9.24,9.85,15.89,12.11.26.09.38.51.5.82-1.67,4.22-4.99,7.18-7.86,10.5-4.27,4.94-10.17,8.4-13.13,14.51-6.42.06-12.84.07-19.26.23-2.13.05-2.92-.71-2.86-2.85.15-5.76.14-11.52.2-17.28Z"/>
  <path class="cls-13" d="m275.89,388.64c-.35.33-.76.99-1.05.94-8.61-1.35-11.7,5.67-16.05,10.64-4.89,5.57-10.72,10.25-15.08,16.31-.77,1.07-1.81,1.94-1.72,3.41-4.86,1.47-9.84.98-14.79.99-3.81-.04-7.62-.09-11.43-.11-2.42-.01-3.17-.87-1.45-2.9,3.73-4.4,7.36-8.89,11.25-13.14,6.59-7.19,14.2-13.4,20.21-21.17,1.81-2.34,4.26-4.12,7.31-4.78,6.29,6.33,14.03,9.29,22.81,9.81Z"/>
  <path class="cls-14" d="m355.92,310.86c0,.33,0,.66,0,.99-18.99,0-37.99-.01-56.98-.02v-.97c.33,0,.67,0,1,0,4.33,0,8.66,0,13,0,6.66-2.49,13.33-2.5,19.99,0,7.66,0,15.33,0,22.99,0Z"/>
  <path class="cls-28" d="m423,229.15c-.04-4.42-.07-8.84-.11-13.26-2.52-6.96-2.44-13.94-.07-20.91,0,0,.23-.21.23-.21,1.26,11.47,1.46,22.93-.05,34.39Z"/>
  <path class="cls-19" d="m212.16,326.82c-1.88-4.98-2.02-9.95.07-14.92-.65,4.97-.52,9.94-.07,14.92Z"/>
  <path class="cls-13" d="m242.94,419.87c2.5-2.08,5.44-.63,8.15-1-2.58,1.41-5.39.98-8.15,1Z"/>
  <path class="cls-12" d="m262.95,203.88c1.85-1.81,4.13-.72,6.21-.93-1.95,1.08-4.08,1.02-6.21.93Z"/>
  <path class="cls-24" d="m177.88,418.9c2.05.19,4.28-.88,6.09.91-2.07-.02-4.22.47-6.09-.91Z"/>
  <path class="cls-24" d="m185.71,419.92c1.76.08,3.63-.69,5.2.73-1.79.12-3.59.36-5.2-.73Z"/>
  <path class="cls-1" d="m275.89,388.64c-9.83,1.9-17.37-1.51-22.82-9.81-1.49-6.43-2.28-12.78,2.01-18.59,7-9.48,18.47-10.38,28.82-2.27,7.94,9.92,6.79,23.9-8.01,30.67Z"/>
  <path class="cls-1" d="m152.98,69.81c-7.97-1.25-13.61-5.53-16.87-12.92-1.23-13.5,1.33-18.25,12.91-23.93,0,0-.03.01-.03.01,3.33-.84,6.65-.88,9.98.02,10.39,4.21,14.51,11.99,13.09,22.94-3.38,8.72-9.75,13.34-19.08,13.89Z"/>
  <path class="cls-20" d="m422.83,194.97c.02,6.97.04,13.94.07,20.91-5.92,2.74-9.57,8.08-13.8,12.61-2.92,3.13-5.72,6.44-8.79,9.46-14.32,14.09-27.44,29.31-41.35,43.8-8.24,8.59-17.4,16.4-24.53,26.07-.7.95-1.51,1.77-1.5,3.04-6.66,0-13.33,0-19.99,0-.01-1.27.69-2.15,1.52-3.02,5.47-5.78,10.78-11.73,16.42-17.35,14.46-14.42,27.59-30.09,42.18-44.41,10.65-10.45,20.73-21.49,30.65-32.64,4.86-5.47,9.97-10.67,15.08-15.88,1.13-1.15,2.08-2.7,4.05-2.57Z"/>
  <path class="cls-9" d="m158.96,32.98c-3.33,0-6.65-.01-9.98-.02,3.33-1.62,6.66-1.65,9.98.02Z"/>
</svg>