<?xml version="1.0" encoding="UTF-8"?>
<svg id="Capa_1" data-name="Capa 1" xmlns="http://www.w3.org/2000/svg" viewBox="0 0 1001.69 190.47">
  <defs>
    <style>
      .cls-1 {
        stroke-width: 0px;
      }
    </style>
  </defs>
  <path class="cls-1" d="m47.06,188.13c-14.31,0-28.63-.1-42.94.08C.82,188.25-.01,187.33,0,184.06c.13-31.26.12-62.51.02-93.77-.01-4,.97-4.5,4.57-2.87,40.15,18.22,81.9-3.73,89.73-47.06C98.47,17.37,116.42.78,137.97.03c23.23-.81,42.77,13.71,48.33,35.93,7.13,28.47-14.05,56.84-43.41,57.94-8.14.31-16.31.04-24.46.11-14.55.12-24.49,9.98-24.53,24.46-.06,21.61-.13,43.23.08,64.84.04,3.98-1.07,4.99-4.97,4.92-13.98-.24-27.96-.09-41.94-.09Z"/>
  <path class="cls-1" d="m566.77,90.6c15.3-16.86,33.38-18.6,52.75-12.57,16.87,5.25,27.07,20.09,27.5,39.93.48,22.26.1,44.55.21,66.82.01,2.63-.82,3.48-3.41,3.4-5.15-.16-10.33-.25-15.47.03-3.43.19-4.09-1.11-4.06-4.26.14-18.12.07-36.24.07-54.36,0-1.33.01-2.66,0-3.99-.17-18.34-9.99-28.81-27.04-28.85-18.31-.04-30.51,11.61-30.62,29.48-.11,19.12-.14,38.23.07,57.35.04,3.82-1.04,4.91-4.74,4.64-4.47-.32-9-.33-13.47,0-3.74.28-4.76-.88-4.74-4.66.18-23.94.09-47.87.09-71.81,0-9.97.13-19.95-.07-29.92-.07-3.34.66-4.77,4.33-4.54,5.14.32,10.32.18,15.47.04,2.33-.06,3.3.62,3.16,3.07-.17,3.07-.04,6.16-.04,10.22Z"/>
  <path class="cls-1" d="m957.92,91.54c11.55-15.23,24.58-19.68,40.57-14.89,2.52.76,3.56,1.65,3.1,4.45-.79,4.74-1.36,9.54-1.65,14.34-.18,2.98-1.25,3.13-3.72,2.32-5.81-1.9-11.8-2.01-17.73-.66-12.61,2.87-20.23,13.12-20.44,28.27-.27,19.09-.28,38.19.03,57.28.08,4.81-1.49,5.9-5.84,5.56-4.46-.35-8.98-.27-13.46-.01-3.19.18-3.83-1.03-3.82-3.99.1-34.37.09-68.75.02-103.12,0-2.61.39-3.93,3.46-3.8,5.48.24,10.97.17,16.45.02,2.42-.06,3.22.78,3.09,3.15-.17,3.26-.04,6.53-.04,11.07Z"/>
  <path class="cls-1" d="m405.76,184.07c-11.04-18.95-22.03-37.92-33.19-56.8-1.64-2.78-2.17-4.01,1.51-5.63,20.27-8.94,30.07-27,27.43-49.78-2.3-19.81-16.51-34.55-37.42-38.82-4.25-.87-8.54-1.4-12.88-1.41-21.97-.03-43.93,0-65.9-.12-2.7-.01-3.73.53-3.72,3.51.09,49.86.09,99.73,0,149.6,0,2.97,1.02,3.65,3.73,3.56,5.32-.17,10.67-.33,15.97.04,3.97.28,4.59-1.25,4.55-4.8-.18-17.28.02-34.57-.16-51.86-.04-3.68.58-5.2,4.78-5.06,9.97.35,19.97.26,29.95.03,3.28-.08,5,.97,6.61,3.83,10.11,17.95,20.52,35.72,30.61,53.68,1.8,3.2,3.82,4.33,7.45,4.18,7.3-.3,14.62-.09,22.84-.09-.96-1.8-1.52-2.95-2.16-4.06Zm-52.1-79.57c-15.1.74-30.25.33-45.38.51-2.47.03-2.58-1.26-2.56-3.12.05-7.64.02-15.28.02-22.92,0-7.47.07-14.95-.04-22.42-.03-2.26.49-3.29,3-3.26,14.63.19,29.3-.41,43.88.51,18.35,1.16,27.99,15.74,23.09,33.37-2.7,9.7-10.74,16.77-22,17.32Z"/>
  <path class="cls-1" d="m783.44,30.47c0-.66-.07-1.34.01-1.99.28-2.2-.66-2.88-2.83-2.82-4.65.14-9.35.37-13.97-.05-4.65-.43-6.17.76-6.07,5.78.35,18.44.16,36.89.11,55.34,0,1.39.61,2.97-.64,4.22-20.59-23.37-60.82-19.27-79.23.86-20.37,22.27-19.69,61.05,1.51,82.8,18.99,19.5,57.35,22.67,78.4-.99,0,4.53.11,7.98-.04,11.42-.1,2.41.83,3.2,3.18,3.14,4.82-.13,9.67-.33,14.47.05,4.19.33,5.2-1.09,5.19-5.19-.14-50.85-.09-101.71-.09-152.56Zm-59.2,139.31c-20.34.05-35.56-16-35.61-37.57-.06-21.07,14.82-36.52,35.24-36.58,20.98-.06,36.62,15.51,36.64,36.47.01,21.29-15.71,37.62-36.26,37.67Z"/>
  <path class="cls-1" d="m879.96,78.62c-36.27-13.19-79.33,10.07-77.01,57.92,1.19,24.51,16.81,44.54,40.2,51.43,24.23,7.14,50.66-1.52,64.57-20.98,2.29-3.2,3.19-5.41-1.1-7.72-3.33-1.8-6.38-4.24-9.26-6.74-2.65-2.29-4.02-1.9-6.08.93-8.96,12.32-21.38,16.88-36.27,15.06-14.04-1.72-25.28-11.92-28.05-24.77-.75-3.5-.16-4.57,3.62-4.51,12.81.22,25.62.08,38.43.08,13.14,0,26.29-.07,39.43.06,2.62.02,3.88-.59,4.2-3.41,2.8-24.78-9.1-48.78-32.68-57.36Zm5.02,43.66c-8.79-.38-17.6-.11-26.4-.11-9.3,0-18.6,0-27.9,0-2.06,0-3.92.4-3.09-3.08,3.14-13.15,16.21-23.14,31.12-23.42,14.48-.27,26.63,8.34,30.25,21.22,1.08,3.85.8,5.59-3.98,5.39Z"/>
  <path class="cls-1" d="m492.94,79.92c-35.45-15.62-82.76,6.05-80.19,57.15,1.23,24.45,17.35,44.43,40.69,51.08,24.08,6.86,50.36-1.9,64.07-21.18,2.3-3.23,3.15-5.4-1.1-7.7-3.33-1.81-6.4-4.22-9.26-6.74-2.69-2.36-4.02-1.84-6.06.95-8.98,12.29-21.38,16.87-36.27,15.04-13.63-1.67-24.56-11.18-27.84-23.79-.95-3.67-.95-5.66,4-5.52,12.63.35,25.28.12,37.92.12,12.97,0,25.95,0,38.92,0,2.15,0,4.23.43,4.6-2.91,2.84-26.25-9.39-47.65-29.48-56.5Zm2.48,42.33c-9.13-.24-18.26-.08-27.39-.08-9.3,0-18.6-.02-27.89.01-2.05,0-3.41.06-2.76-2.93,2.79-12.99,16.11-23.26,30.98-23.58,14.95-.32,27.09,8.53,30.61,22.01.93,3.55.28,4.66-3.53,4.56Z"/>
</svg>