<?xml version="1.0" encoding="utf-8"?>
<!-- Generator: Adobe Illustrator 28.0.0, SVG Export Plug-In . SVG Version: 6.00 Build 0)  -->
<svg version="1.1" id="Capa_1" xmlns="http://www.w3.org/2000/svg" xmlns:xlink="http://www.w3.org/1999/xlink" x="0px" y="0px"
	 viewBox="0 0 187.7 188.2" style="enable-background:new 0 0 187.7 188.2;" xml:space="preserve">
<path d="M47.1,188.1c-14.3,0-28.6-0.1-42.9,0.1c-3.3,0-4.1-0.9-4.1-4.2c0.1-31.3,0.1-62.5,0-93.8c0-4,1-4.5,4.6-2.9
	c40.2,18.2,81.9-3.7,89.7-47.1C98.5,17.4,116.4,0.8,138,0c23.2-0.8,42.8,13.7,48.3,35.9c7.1,28.5-14.1,56.8-43.4,57.9
	c-8.1,0.3-16.3,0-24.5,0.1c-14.6,0.1-24.5,10-24.5,24.5c-0.1,21.6-0.1,43.2,0.1,64.8c0,4-1.1,5-5,4.9C75,188,61.1,188.1,47.1,188.1
	L47.1,188.1z"/>
</svg>
