
<svg
        version="1.1"
        viewBox="0 0 300 149.99999"
        xml:space="preserve"
        id="svg6395"
        sodipodi:docname="thumbnail.svg"
        width="300"
        height="150"
        inkscape:version="1.2 (dc2aedaf03, 2022-05-15)"
        xmlns:inkscape="http://www.inkscape.org/namespaces/inkscape"
        xmlns:sodipodi="http://sodipodi.sourceforge.net/DTD/sodipodi-0.dtd"
        xmlns="http://www.w3.org/2000/svg"
        xmlns:rdf="http://www.w3.org/1999/02/22-rdf-syntax-ns#"
        xmlns:cc="http://creativecommons.org/ns#"
        xmlns:dc="http://purl.org/dc/elements/1.1/"><sodipodi:namedview
     id="namedview6397"
     pagecolor="#ffffff"
     bordercolor="#000000"
     borderopacity="0.25"
     inkscape:showpageshadow="2"
     inkscape:pageopacity="0.0"
     inkscape:pagecheckerboard="0"
     inkscape:deskcolor="#d1d1d1"
     showgrid="false"
     inkscape:zoom="0.6365535"
     inkscape:cx="101.32691"
     inkscape:cy="423.37369"
     inkscape:window-width="1561"
     inkscape:window-height="1032"
     inkscape:window-x="2466"
     inkscape:window-y="115"
     inkscape:window-maximized="0"
     inkscape:current-layer="svg6395" /><title
     id="title6374">SQLite</title><metadata
     id="metadata6376"><rdf:RDF><cc:Work
         rdf:about=""><dc:format>image/svg+xml</dc:format><dc:type
           rdf:resource="http://purl.org/dc/dcmitype/StillImage" /><dc:title>SQLite</dc:title></cc:Work></rdf:RDF></metadata><defs
     id="defs6385"><linearGradient
       id="a"
       x1="-15.615"
       x2="-6.7410002"
       y1="-9.1083002"
       y2="-9.1083002"
       gradientTransform="matrix(-2.9554465e-7,6.068567,-6.7554742,-2.654932e-7,14.256467,139.81986)"
       gradientUnits="userSpaceOnUse"><stop
         stop-color="#97d9f6"
         offset="0"
         id="stop6378" /><stop
         stop-color="#0f80cc"
         offset=".92024"
         id="stop6380" /><stop
         stop-color="#0f80cc"
         offset="1"
         id="stop6382" /></linearGradient></defs><path
     d="m 131.95126,77.763539 c -2.45551,0 -4.45215,0.746587 -5.98285,2.239084 -1.53068,1.493805 -2.30717,3.451879 -2.30717,5.851371 0,1.24339 0.19284,2.377053 0.57282,3.415843 0.37998,1.040883 0.97126,2.005198 1.76623,2.876523 0.79493,0.872109 2.38612,2.056766 4.75767,3.562965 2.90995,1.82471 4.81428,3.305596 5.72825,4.461845 0.91459,1.15532 1.36842,2.36609 1.36842,3.62835 0,1.69009 -0.54166,3.03918 -1.65483,4.05327 -1.1151,1.01458 -2.60638,1.51996 -4.45531,1.51996 -1.95015,0 -3.64887,-0.7061 -5.10757,-2.10833 -1.45879,-1.40427 -2.19518,-3.26166 -2.21177,-5.58987 h -0.90695 v 8.44966 h 0.90695 c 0.27687,-0.80015 0.66,-1.20944 1.16154,-1.20944 0.24122,0 0.80643,0.17088 1.68665,0.4903 2.1417,0.78273 3.90031,1.16044 5.28273,1.16044 2.38234,0 4.41585,-0.85698 6.11014,-2.5987 1.69175,-1.74085 2.54589,-3.84083 2.54589,-6.29226 0,-1.90101 -0.56391,-3.592303 -1.67072,-5.066596 -1.10685,-1.476028 -3.25935,-3.192943 -6.47623,-5.164668 -2.768,-1.708183 -4.56479,-3.099427 -5.39424,-4.184032 -0.83057,-1.083038 -1.25706,-2.281031 -1.25706,-3.595654 0,-1.421944 0.50854,-2.564028 1.51165,-3.415897 1.00308,-0.852496 2.31737,-1.274822 3.96202,-1.274822 1.85086,0 3.39367,0.564216 4.61443,1.699763 1.21948,1.137534 1.92469,2.713869 2.13217,4.739725 h 0.90696 v -7.322058 h -0.8433 c -0.10311,0.373295 -0.19858,0.611915 -0.28641,0.719131 -0.0853,0.106562 -0.2495,0.163439 -0.49327,0.163439 -0.29341,0 -0.81662,-0.126829 -1.55937,-0.375909 -1.59117,-0.550462 -3.05821,-0.833564 -4.40753,-0.833564 z m 29.64386,0 c -2.99202,0 -5.70839,0.724359 -8.16263,2.173709 -2.45806,1.446734 -4.40379,3.45575 -5.83978,6.014547 -1.43527,2.558588 -2.14812,5.276065 -2.14812,8.17194 0,3.89063 1.23986,7.356575 3.73931,10.394705 2.50069,3.03609 5.49709,4.92795 8.97427,5.65472 0.79492,0.42547 1.93233,1.52378 3.42107,3.30146 1.67774,2.0062 3.09707,3.45314 4.26436,4.31479 1.16603,0.86212 2.42497,1.49396 3.75519,1.9122 1.33151,0.41651 2.77121,0.62107 4.32802,0.62107 1.88523,0 3.57316,-0.33656 5.05997,-1.02969 l -0.33415,-0.84988 c -0.86306,0.31976 -1.7834,0.47398 -2.75272,0.47398 -1.31562,0 -2.64519,-0.4456 -3.97796,-1.3402 -1.33089,-0.89685 -2.99524,-2.60791 -4.98038,-5.13198 -0.93306,-1.20945 -1.57717,-1.97251 -1.94124,-2.27182 3.80418,-0.76307 6.93246,-2.65687 9.37194,-5.68768 2.43896,-3.02949 3.65972,-6.486815 3.65972,-10.361755 0,-4.601076 -1.59372,-8.467959 -4.75766,-11.620627 -3.16648,-3.152931 -7.06027,-4.739725 -11.67954,-4.739725 z m 18.50558,0 0.0477,0.99695 c 1.99216,0 3.10792,0.602762 3.35742,1.814197 0.0929,0.433439 0.13557,1.233767 0.14321,2.386206 l -0.0159,22.047768 c -0.0165,1.64667 -0.24505,2.69807 -0.68423,3.15433 -0.4398,0.45306 -1.18323,0.73681 -2.25948,0.84989 l -0.0477,0.99695 h 19.85796 l 0.50918,-5.00123 h -0.90695 c -0.25905,1.36243 -0.85287,2.3384 -1.79801,2.89284 -0.94768,0.55852 -2.62354,0.83357 -5.04403,0.83357 h -1.87759 c -2.178,0 -3.43823,-0.80878 -3.77108,-2.43522 -0.0687,-0.32177 -0.0923,-0.66677 -0.0955,-1.04601 l 0.0796,-22.293045 c -5e-4,-1.644064 0.20176,-2.745772 0.62059,-3.285094 0.42325,-0.537387 1.18638,-0.838113 2.2913,-0.915257 l -0.0477,-0.99695 h -10.35872 z m -18.18734,1.209446 c 3.37459,0 6.12999,1.365146 8.25836,4.118657 2.12776,2.754454 3.18237,6.529706 3.18237,11.309963 0,4.5298 -1.06988,8.156775 -3.21418,10.884765 -2.14426,2.72735 -4.9982,4.08597 -8.54453,4.08597 -3.40701,0 -6.17022,-1.40103 -8.28993,-4.21672 -2.11818,-2.81575 -3.16648,-6.471648 -3.16648,-10.966877 0,-4.619433 1.06102,-8.317333 3.19824,-11.08141 2.13601,-2.760938 4.99632,-4.134975 8.57661,-4.134975 z m 45.66719,4.739724 c -0.48435,0 -0.85348,0.168015 -1.12975,0.506661 -0.28261,0.337333 -0.36917,0.745909 -0.27051,1.242135 0.0955,0.481357 0.35961,0.903228 0.77965,1.258452 0.41753,0.354916 0.86816,0.539322 1.35248,0.539322 0.46845,0 0.82548,-0.184421 1.08201,-0.539322 0.25649,-0.355251 0.33479,-0.777131 0.23867,-1.258452 -0.0987,-0.496205 -0.35387,-0.904798 -0.74788,-1.242135 -0.39842,-0.338646 -0.83632,-0.506661 -1.30477,-0.506661 z m 13.09557,3.38321 c -0.82294,3.251882 -2.607,5.011686 -5.34638,5.295417 l 0.0318,0.931574 h 3.19826 l -0.0637,11.01552 c 0.006,1.88333 0.0611,3.13724 0.19094,3.77546 0.31506,1.5279 1.28628,2.30445 2.91189,2.30445 2.35179,0 4.81876,-1.47147 7.39887,-4.41285 l -0.77965,-0.68644 c -1.86299,1.937 -3.51018,2.90922 -4.9486,2.90922 -0.88404,0 -1.43207,-0.52222 -1.63895,-1.5527 -0.0566,-0.25025 -0.0796,-0.54267 -0.0796,-0.88257 l 0.0318,-12.470508 h 4.88495 l -0.0476,-1.487319 h -4.82131 v -4.739725 h -0.92288 z m 18.88746,4.151345 c -2.73236,0 -4.95492,1.362425 -6.68297,4.069595 -1.71908,2.711781 -2.25118,5.716441 -1.5753,9.021831 0.39781,1.93621 1.19022,3.43687 2.40272,4.49459 1.21057,1.05725 2.7464,1.58533 4.5826,1.58533 1.70957,0 4.08998,-0.44462 5.09179,-1.34021 1.00435,-0.89505 1.92978,-2.34509 2.78459,-4.33109 l -0.68423,-0.73545 c -1.36332,2.57642 -4.11477,3.87347 -6.18957,3.87347 -2.85267,0 -4.59982,-1.60761 -5.25065,-4.8051 -0.0847,-0.40814 -0.14767,-0.84664 -0.19095,-1.3075 3.39367,-0.55189 5.96554,-1.52922 7.70133,-2.941902 1.73437,-1.413477 3.47576,-2.911779 3.15054,-4.494546 -0.19348,-0.94057 -0.66896,-1.680098 -1.40024,-2.239085 -0.74085,-0.558776 -2.66428,-0.849881 -3.7393,-0.849881 z m -29.86637,0.114408 -5.88713,1.389203 v 1.078696 l 2.03673,-0.261503 c 0.98653,0 1.56699,0.458874 1.7503,1.372883 0.0617,0.305899 0.10056,0.735451 0.11137,1.274824 l -0.0636,9.887925 c -0.0165,1.36827 -0.1642,2.16372 -0.46143,2.40258 -0.29979,0.23927 -1.09026,0.35956 -2.37085,0.35956 l -0.0318,0.93156 h 9.34036 l -0.0159,-0.93156 c -1.2978,0 -2.13916,-0.10519 -2.51407,-0.31054 -0.36852,-0.20403 -0.62247,-0.57536 -0.73195,-1.14407 -0.0846,-0.40985 -0.12157,-1.11604 -0.12729,-2.09202 l 0.0318,-13.957408 h -1.06611 z m 28.37091,1.830513 c 0.56835,0 1.11765,0.225478 1.67071,0.670073 0.54545,0.443053 0.87773,0.935706 0.98655,1.470945 0.5327,2.62883 -1.7363,4.446272 -6.84235,5.458597 -0.14576,-1.916863 0.17758,-3.656951 1.00247,-5.23004 0.81851,-1.571575 1.88457,-2.369837 3.18237,-2.369837 z"
     fill="#003b57"
     id="path6387"
     style="stroke-width:0.516045" /><path
     d="M 103.93147,41.994727 H 45.407168 c -3.922363,0 -7.13189,2.883441 -7.13189,6.406707 v 57.980546 c 0,3.52321 3.209232,6.40618 7.13189,6.40618 H 83.952659 C 83.515153,95.559371 90.064698,62.123074 103.93147,41.995255 Z"
     fill="#0f80cc"
     id="path6389"
     style="stroke-width:0.557445" /><path
     d="M 101.80826,43.86401 H 45.410108 c -2.785118,0 -5.051549,2.035448 -5.051549,4.537847 V 102.15036 C 53.131381,97.746611 72.302083,93.946751 85.557775,94.119521 88.221441,81.607793 96.049757,57.087844 101.80832,43.863904 Z"
     fill="url(#a)"
     id="path6391"
     style="fill:url(#a);stroke-width:0.557445" /><path
     d="m 117.58241,40.09744 c -4.00823,-3.211014 -8.86105,-1.921165 -13.65094,1.897392 -0.71095,0.567337 -1.42037,1.196701 -2.12615,1.86902 -8.193498,7.808406 -15.798847,22.271842 -18.162027,33.317416 0.920451,1.67686 1.639464,3.816656 2.112923,5.45146 0.121306,0.419374 0.230848,0.813016 0.318335,1.147829 0.208058,0.792464 0.319807,1.306332 0.319807,1.306332 0,0 -0.07352,-0.249706 -0.374945,-1.034921 -0.05734,-0.150578 -0.121306,-0.315026 -0.197031,-0.508532 -0.03234,-0.07991 -0.07719,-0.176995 -0.126451,-0.280683 -0.534481,-1.116128 -2.012939,-3.471859 -2.663607,-4.497534 -0.556536,1.474716 -1.048376,2.854382 -1.460079,4.102597 1.878429,3.087382 3.023084,8.378485 3.023084,8.378485 0,0 -0.09925,-0.34289 -0.57124,-1.539645 -0.419056,-1.058486 -2.506218,-4.343574 -3.000675,-5.111629 -0.845758,2.804718 -1.181826,4.698305 -0.878752,5.159339 0.588383,0.893375 1.148713,2.434825 1.640817,4.139525 1.1116,3.84033 1.884309,8.515339 1.884309,8.515339 0,0 0.025,0.3098 0.0669,0.78659 -0.154389,3.22502 -0.06176,6.56891 0.216145,9.59105 0.368327,4.00072 1.061607,7.4375 1.945301,9.27667 l 0.599911,-0.29382 c -1.297572,-3.62386 -1.824731,-8.37321 -1.593882,-13.85003 0.349213,-8.371629 2.49375,-18.467759 6.456696,-28.990272 C 98.055168,63.044735 107.3438,50.299476 115.8449,44.212945 108.09663,50.49919 97.60994,70.846272 94.47099,78.380996 90.956097,86.81866 88.465406,94.736431 86.963862,102.32293 89.553951,95.210891 97.928128,92.153881 97.928128,92.153881 c 0,0 4.107512,-4.550575 8.907512,-11.05191 -2.87535,0.589104 -7.596529,1.597609 -9.17806,2.194638 -2.332715,0.879061 -2.961328,1.178843 -2.961328,1.178843 0,0 7.556528,-4.133664 14.039098,-6.005166 8.91574,-12.614229 18.62903,-30.534095 8.84694,-38.373146"
     fill="#003b57"
     id="path6393"
     style="stroke-width:0.557445" /></svg>
