<?xml version="1.0" encoding="utf-8"?>
<!-- Generator: Adobe Illustrator 28.0.0, SVG Export Plug-In . SVG Version: 6.00 Build 0)  -->
<svg version="1.1" id="svg6395" xmlns:cc="http://creativecommons.org/ns#"
	xmlns:inkscape="http://www.inkscape.org/namespaces/inkscape" xmlns:rdf="http://www.w3.org/1999/02/22-rdf-syntax-ns#"
	xmlns:sodipodi="http://sodipodi.sourceforge.net/DTD/sodipodi-0.dtd" xmlns:dc="http://purl.org/dc/elements/1.1/"
	inkscape:version="1.2 (dc2aedaf03, 2022-05-15)" xmlns="http://www.w3.org/2000/svg"
	xmlns:xlink="http://www.w3.org/1999/xlink" x="0px" y="0px" viewBox="0 0 87.9 87.3"
	style="enable-background:new 0 0 87.9 87.3;" xml:space="preserve">
	<style type="text/css">
		.st0 {
			fill: #0F80CC;
		}

		.st1 {
			fill: url(#path6391_00000161606988037042407400000004101224933412735384_);
		}

		.st2 {
			fill: #003B57;
		}
	</style>
	<sodipodi:namedview bordercolor="#000000" borderopacity="0.25" id="namedview6397" inkscape:current-layer="svg6395"
		inkscape:cx="101.32691" inkscape:cy="423.37369" inkscape:deskcolor="#d1d1d1" inkscape:pagecheckerboard="0"
		inkscape:pageopacity="0.0" inkscape:showpageshadow="2" inkscape:window-height="1032"
		inkscape:window-maximized="0" inkscape:window-width="1561" inkscape:window-x="2466" inkscape:window-y="115"
		inkscape:zoom="0.6365535" pagecolor="#ffffff" showgrid="false">
	</sodipodi:namedview>
	<path id="path6389" class="st0" d="M68.5,5.5H10c-3.9,0-7.1,2.9-7.1,6.4v58c0,3.5,3.2,6.4,7.1,6.4h38.5
	C48.1,59.1,54.6,25.7,68.5,5.5L68.5,5.5z" />
	<linearGradient id="path6391_00000080907818199004312940000002968825400568578237_" gradientUnits="userSpaceOnUse"
		x1="-153.3311" y1="466.8883" x2="-144.4571" y2="466.8883"
		gradientTransform="matrix(-2.955447e-07 6.0686 6.7555 2.654932e-07 -3118.415 939.0908)">
		<stop offset="0" style="stop-color:#97D9F6" />
		<stop offset="0.9202" style="stop-color:#0F80CC" />
		<stop offset="1" style="stop-color:#0F80CC" />
	</linearGradient>
	<path id="path6391" style="fill:url(#path6391_00000080907818199004312940000002968825400568578237_);" d="M66.4,7.4H10
	c-2.8,0-5.1,2-5.1,4.5v53.7c12.8-4.4,31.9-8.2,45.2-8C52.8,45.1,60.6,20.6,66.4,7.4L66.4,7.4z" />
	<path id="path6393" class="st2" d="M82.1,3.6c-4-3.2-8.9-1.9-13.7,1.9c-0.7,0.6-1.4,1.2-2.1,1.9c-8.2,7.8-15.8,22.3-18.2,33.3
	c0.9,1.7,1.6,3.8,2.1,5.5c0.1,0.4,0.2,0.8,0.3,1.1c0.2,0.8,0.3,1.3,0.3,1.3s-0.1-0.2-0.4-1c-0.1-0.2-0.1-0.3-0.2-0.5
	c0-0.1-0.1-0.2-0.1-0.3c-0.5-1.1-2-3.5-2.7-4.5c-0.6,1.5-1,2.9-1.5,4.1c1.9,3.1,3,8.4,3,8.4s-0.1-0.3-0.6-1.5
	c-0.4-1.1-2.5-4.3-3-5.1c-0.8,2.8-1.2,4.7-0.9,5.2c0.6,0.9,1.1,2.4,1.6,4.1c1.1,3.8,1.9,8.5,1.9,8.5s0,0.3,0.1,0.8
	c-0.2,3.2-0.1,6.6,0.2,9.6c0.4,4,1.1,7.4,1.9,9.3l0.6-0.3c-1.3-3.6-1.8-8.4-1.6-13.9c0.3-8.4,2.5-18.5,6.5-29
	c6.7-15.9,16-28.6,24.5-34.7C72.6,14,62.2,34.4,59,41.9c-3.5,8.4-6,16.4-7.5,23.9c2.6-7.1,11-10.2,11-10.2s4.1-4.6,8.9-11.1
	c-2.9,0.6-7.6,1.6-9.2,2.2c-2.3,0.9-3,1.2-3,1.2s7.6-4.1,14-6C82.2,29.4,91.9,11.5,82.1,3.6" />
</svg>