<?xml version="1.0" encoding="UTF-8"?>
<svg id="Capa_1" data-name="Capa 1" xmlns="http://www.w3.org/2000/svg" viewBox="0 0 559.67 570.25">
  <defs>
    <style>
      .cls-1 {
        fill: #4ca17d;
      }

      .cls-1, .cls-2, .cls-3, .cls-4, .cls-5, .cls-6, .cls-7, .cls-8, .cls-9, .cls-10, .cls-11, .cls-12, .cls-13, .cls-14, .cls-15, .cls-16, .cls-17, .cls-18, .cls-19, .cls-20, .cls-21, .cls-22, .cls-23, .cls-24, .cls-25, .cls-26, .cls-27, .cls-28, .cls-29, .cls-30, .cls-31, .cls-32, .cls-33, .cls-34, .cls-35, .cls-36, .cls-37, .cls-38, .cls-39, .cls-40, .cls-41, .cls-42, .cls-43, .cls-44, .cls-45, .cls-46, .cls-47, .cls-48, .cls-49, .cls-50, .cls-51, .cls-52, .cls-53, .cls-54, .cls-55, .cls-56, .cls-57, .cls-58, .cls-59, .cls-60, .cls-61, .cls-62, .cls-63, .cls-64, .cls-65, .cls-66, .cls-67, .cls-68 {
        stroke-width: 0px;
      }

      .cls-2 {
        fill: #32ab73;
      }

      .cls-3 {
        fill: #51b58b;
      }

      .cls-4 {
        fill: #238e60;
      }

      .cls-5 {
        fill: #218759;
      }

      .cls-6 {
        fill: #2b9f6a;
      }

      .cls-7 {
        fill: #2ba66f;
      }

      .cls-8 {
        fill: #66bc95;
      }

      .cls-9 {
        fill: #2ca770;
      }

      .cls-10 {
        fill: #63bb93;
      }

      .cls-11 {
        fill: #2faa73;
      }

      .cls-12 {
        fill: #2ba26d;
      }

      .cls-13 {
        fill: #3baf7a;
      }

      .cls-14 {
        fill: #53b685;
      }

      .cls-15 {
        fill: #2ba36e;
      }

      .cls-16 {
        fill: #33ac75;
      }

      .cls-17 {
        fill: #5cb98e;
      }

      .cls-18 {
        fill: #37ad76;
      }

      .cls-19 {
        fill: #61ba92;
      }

      .cls-20 {
        fill: #66bc96;
      }

      .cls-21 {
        fill: #50b582;
      }

      .cls-22 {
        fill: #5db98e;
      }

      .cls-23 {
        fill: #74c09a;
      }

      .cls-24 {
        fill: #21895b;
      }

      .cls-25 {
        fill: #41b17b;
      }

      .cls-26 {
        fill: #249663;
      }

      .cls-27 {
        fill: #50b584;
      }

      .cls-28 {
        fill: #279467;
      }

      .cls-29 {
        fill: #289965;
      }

      .cls-30 {
        fill: #57b78e;
      }

      .cls-31 {
        fill: #2c9f6b;
      }

      .cls-32 {
        fill: #51b583;
      }

      .cls-33 {
        fill: #289b66;
      }

      .cls-34 {
        fill: #43a077;
      }

      .cls-35 {
        fill: #37ae77;
      }

      .cls-36 {
        fill: #269462;
      }

      .cls-37 {
        fill: #3ca379;
      }

      .cls-38 {
        fill: #2b9f69;
      }

      .cls-39 {
        fill: #55b685;
      }

      .cls-40 {
        fill: #63bb94;
      }

      .cls-41 {
        fill: #24865d;
      }

      .cls-42 {
        fill: #299966;
      }

      .cls-43 {
        fill: #2b9c68;
      }

      .cls-44 {
        fill: #47b27e;
      }

      .cls-45 {
        fill: #5fba92;
      }

      .cls-46 {
        fill: #2ca76f;
      }

      .cls-47 {
        fill: #5cb889;
      }

      .cls-48 {
        fill: #64bb94;
      }

      .cls-49 {
        fill: #4db480;
      }

      .cls-50 {
        fill: #2ba670;
      }

      .cls-51 {
        fill: #259064;
      }

      .cls-52 {
        fill: #68bc94;
      }

      .cls-53 {
        fill: #43b17c;
      }

      .cls-54 {
        fill: #28805b;
      }

      .cls-55 {
        fill: #58b78b;
      }

      .cls-56 {
        fill: #2ba56f;
      }

      .cls-57 {
        fill: #4bb37f;
      }

      .cls-58 {
        fill: #66bc93;
      }

      .cls-59 {
        fill: #3b9b72;
      }

      .cls-60 {
        fill: #238b5d;
      }

      .cls-61 {
        fill: #248c5c;
      }

      .cls-62 {
        fill: #2ba16c;
      }

      .cls-63 {
        fill: #58b787;
      }

      .cls-64 {
        fill: #24855d;
      }

      .cls-65 {
        fill: #68bd99;
      }

      .cls-66 {
        fill: #328764;
      }

      .cls-67 {
        fill: #249262;
      }

      .cls-68 {
        fill: #2fa573;
      }
    </style>
  </defs>
  <path class="cls-47" d="m5.39,338.86c-4.37-8.18-6.43-16.79-4.89-26.07,1.64-6.85,3.3-13.7,6.91-19.87.5-.85.89-2.52,1.5-2.43,3.35.47.83-2.09,1.62-2.85,3.07-4.18,6.14-8.36,9.21-12.54,2.42-4.16,5.71-7.62,8.94-11.14h0c.8-1.51,1.97-2.74,3.12-3.98,2.3-1.52,3.37-3.98,4.78-6.19.57-1.03.97-2.19,2.23-2.65l-.03-.04c2.71-3.95,5.78-7.6,9.08-11.06,1.61-1.37,3.15-2.8,3.83-4.9,3.69-5.31,7.15-10.82,12.17-15.06,2.13-2.39,4.25-4.78,6.38-7.18,3.45-2.81,6.21-6.18,8.22-10.16.25-.29.5-.58.75-.87,1.29-.46,2.02-1.44,2.41-2.7,7.2-10.54,15.72-20.05,23.51-30.13,1.21-1.57,2.32-3.22,3.48-4.83,4.93-6.99,9.61-14.18,15.98-20.02h0c2.55-6.13,7.72-10.19,11.91-15.03.65-.73,1.3-1.45,1.95-2.18,1.34-1.01,1.44-3.04,3.1-3.79,2.35-2.33,4.58-4.76,6.07-7.77,2.68-3.96,5.07-8.16,8.99-11.13h0c.33-1.44,1.28-2.42,2.46-3.22,6.45-4.68,11.02-10.91,14.63-17.91.94-1.81,2.12-3.47,3.31-5.12,2.15-1.95,3.15-4.92,5.79-6.43,1.11-.98,2.5-1.71,2.88-3.33.16-.4.4-.75.71-1.04h.02c4-5.38,7.16-11.4,12.31-15.88,3.57-1.8,6.32-4.35,7.58-8.26.36-.6.73-1.19,1.09-1.79,1.1-2.18,2.32-4.26,4.53-5.53,1.52-.81,2.82-1.83,3.38-3.55l-.04.06c2.01-2.85,5.9-4.24,6.4-8.24.14-.41.36-.78.64-1.11,1.08-.87,2.46-1.5,2.57-3.17.14-.42.37-.78.67-1.1,1.54-1.63,4.74-1.91,4.19-5.22.13-.71.48-1.3.99-1.79,1.11-.71,2.03-2.06,3.66-1.21.41.38.34.87.31,1.35.35-.66-.1-1.07-.47-1.52-.58-2.55,3.69-2.3,2.88-4.99,10.43-9.3,28.12-5.18,34.12,3.28l1.22,2.53c3.95,6.56,4.06,13.79,3.9,21.14-.19,8.63-.23,17.28,0,25.91.43,16.65-2.39,33.17-1.62,49.86,1.05,22.85-.24,45.74-.01,68.61.05,5.12-.2,10.43.54,15.3.89,5.84,2.27,11.84,4.4,17.52,1.99,4.81.95,9.86,1.13,14.81-.28,12.44.11,24.89.09,37.33-.33,3.45-.1,6.91-.15,10.37,0,5.96-.09,11.91.08,17.87-.35,5.35.25,10.69.02,16.04-.24,6.65-.05,13.3-.09,19.95.13,14.63-.44,29.27,1,43.87-.05,7.36.02,14.72-.04,22.08-.01,1.94.25,3.96-1.05,5.67-3.22-.08-2.67-2.66-2.75-4.51-.25-5.81-.08-11.63-.1-17.44-.01-6.3-1.01-6.95-7.18-7.32-18.41-1.1-36.83.12-55.25-.16-12.23-.19-24.55.11-36.78-.04-17.25-.22-34.5.36-51.76-.02-14.39-.31-28.84-.32-43.26.26-10.47.42-20.93-.95-31.37-.37-7.07.39-13.74-1.13-20.5-2.58-3.03-1.8-5.93-3.83-8.98-5.63h.03c-1.75-.45-3.19-1.42-4.4-2.74-1.6-1.6-3.22-3.19-4.74-4.87-.66-1.03-1.33-2.07-1.99-3.1-1.33-2.03-1.75-4.68-4.09-6.02l.04.02c-.92-1.24-.95-2.96-2.17-4.04Z"/>
  <path class="cls-47" d="m554.83,231.14c4.93,11.86,6.42,23.99,2.93,36.53-.5.99.38,2.42-1,3.13h.04c-.8,1.58-.43,3.8-2.53,4.68-1.71,1.06-3.48,2.08-3.11,4.56l-.02-.03c-2.15,1.8-3.69,3.99-4.26,6.77-.07.44-.21.86-.41,1.26-1.28,1.72-2.69,3.36-3.83,5.19-.62.86-1.25,1.71-2.17,2.28-1.12.5-2.12,1.16-2.78,2.24-.25.33-.53.63-.82.93-1.12.99-1.72,2.35-2.49,3.58-1.44,1.67-2.6,3.56-4.15,5.14-1.99,2.13-4.4,3.95-5.18,6.98-5.67,6.68-10.06,14.41-16.58,20.42-1.22.78-2.73,1.13-3.49,2.56-1.86,3.52-3.78,2.98-5.7.03-1.07-3.33-1.57-6.79-2.25-10.2-.73-3.68-.61-7.51,1.22-10.69,2.16-3.75,3-7.12.98-11.18-.97-1.96-.69-4.38.68-6.19,2.49-3.29,3.38-7.2,4.52-10.98,1.12-3.73,3.27-6.12,7.11-6.76,4.66-.78,6.41-3.61,6.09-8.1-.32-4.41.17-8.17,5.51-9.57,2.37-.63,2.42-3.34,2.45-5.53.05-3.81-.08-7.49,2.89-10.7,1.72-1.86,1.09-4.16-1.77-4.91-1.6-.42-2.86-1.09-2.96-2.85-.09-1.7,1.06-2.83,2.47-3.41,3.16-1.31,5.91-3.38,9.75-3.24,5.78.2,7.97-3.73,5.46-8.97-.72-1.49-1.66-2.87-2.25-4.43-.68-1.8-1.06-3.55.96-4.81.3-.06.59-.17.86-.32,1.24.11,1.87,1.02,2.53,1.91.98,1.38,1.86,2.85,3.31,3.83.33.28.61.61.87.96.88,1.79,2.21,3.13,4,4.01,2.16,1.37,2.8,3.55,3.12,5.89Z"/>
  <path class="cls-39" d="m514.86,204.3c4.74-.97,8.93.86,13.14,2.59.62.85,1.41,1.62,1.38,2.78,2.11,5.17,3.57,10.4,3.01,16.15-.37,3.8-.92,6.77-5.42,7.63-3.57.68-4.48,3.83-4.51,6.92-.04,4.19-.95,7.82-4.11,10.8-2.44,2.3-2.03,5.5-2,8.47.03,3.81-.66,6.99-5.22,7.7-2.63.41-2.82,2.56-2.73,4.6.19,4.36-.69,8.09-4.35,11.07-2.56,2.09-2.1,5.82-3.37,8.69-1.25,2.81-2.36,5.49-5.55,6.61-2,.7-2.59,2.38-2.74,4.34-.33,4.34-.87,8.62-3.65,12.23-.2.26-.48.62-.41.89,1.9,7.87-3.29,14.47-3.86,21.86-.28,3.6-1.01,6.49-4.6,8.06-4.5,1.97-4.04,6.66-5.03,10.28-1.54,5.64-3.87,10.66-6.6,15.85-2.73,5.2-4.23,11.21-7.41,16.41-.67,1.1-.18,2.62-.18,3.94.04.5-.02.99-.16,1.47-1.69,1.91-3.04,4-6.24,4.01-2.32.01-2.55,2.46-2.93,4.47-.83,4.49-3.94,7.05-8.8,7.58-1.31-.93-1.89-2.28-2.14-3.79-.28-1.66-1.11-2.31-2.78-1.76-1.05.35-2.25,1.15-3.01-.37-.73-1.44-.57-2.93.36-4.24,1.2-1.7,3.06-2.48,4.91-3.24,3.99-1.63,6.22-4.69,5.83-8.9-.58-6.2,3.24-11.02,4.56-16.6.29-1.23,1.36-2.02,2.56-2.05,3.83-.1,5.12-2.31,5.34-5.75.09-1.37,1.16-2.34,2.04-3.33,1.55-1.74,1.77-3.82.27-5.42-3.17-3.37-1.35-5.97.83-8.68.47-.6,1-1.13,1.59-1.61,1.32-.83,2.44-1.95,2.55-3.51.28-4,.75-7.86,3.3-11.22.71-.93.4-2.28.05-3.39-1.93-6.01.7-10.37,5.24-13.8,2.51-1.9,3.54-4.26,3.7-7.21.31-5.89,4.3-10.72,4.74-16.61.11-1.48,1.83-2.25,3.09-3.07,1.55-1,3.02-2.08,3.47-4.02.84-2.59.58-5.27.6-7.92.02-3.34-.14-6.63,2.85-9.13,1.36-1.14,1.43-3.11,1.09-4.69-1.45-6.88,3.07-11.95,5.49-17.5,2.64-6.05,7.27-11.24,6.71-18.49-.2-2.64,1.24-4.48,4.08-4.68,3.62-.26,5.36-3.16,7.43-5.4,2-2.17.46-3.55-1.8-4.31-1.44-.69-2.92-1.36-2.99-3.29.29-1.31,1.24-1.55,2.39-1.44Z"/>
  <path class="cls-57" d="m355.31,524.72c-2.05,2.87-4.11,5.74-6.16,8.62-.48,1.74-1.58,3.02-3.04,4.02h0c-2.25,6.04-8.1,9.43-11.06,14.95-.71.84-1.38,1.72-2.16,2.5-.74.78-1.36,1.65-1.91,2.57-.24.38-.51.73-.81,1.07-3.12,2.43-5.87,5.22-8.41,8.24-6.23,3.86-13.03,4.09-19.98,3.01-1.38-.21-3.05-.16-3.83-1.8.21-3,2.52-2.39,4-1.84,5.31,1.97,9.32-2.19,14.09-2.7,1.62-.17,1.99-2.05,1.95-3.63-.11-4.89,2.35-7.87,7.01-8.83,3.83-.79,4.97-3,4.99-6.7.03-7.36,2.54-10.5,9.51-12.09,2.57-.59,3.72-2.21,4.14-4.36,1.19-6.08,6.23-10.56,6.77-16.92.16-1.94,2.01-2.43,3.8-2.48,1,0,1.99.15,2.98.29,4.1.56,6.09-1.56,5.87-5.34-.25-4.22,1.43-7.03,4.31-10.01,3.23-3.34,4.26-8.17,5.42-12.62.84-3.22,1.18-6.46,3.53-9.14,1.46-1.67,1.53-3.98,1.54-6.17.02-3.82-.04-7.65.02-11.47.1-5.68.73-11.04,7.22-13.38,1.57-.57,2.95-2.21,2.92-3.82-.13-6.2,3.73-11.65,2.93-18-.68-5.33,2.46-8.76,7.07-10.88,5.1-2.36,7.94-7.1,7.32-12.66-.17-1.49-.26-2.99-.5-4.46-1.64-9.94,3.69-16.23,11.12-21.4,4.22-2.94,6.37-10.25,4.15-14.99-.71-1.51-1.84-3.05-.44-4.59,4.95-5.44,6.69-12.3,7.83-19.13.94-5.67,4.31-8.04,9.05-9.8,4.87-1.8,5.07-2.3,3.37-7.32-.82-2.41-1.15-4.83-1.12-7.35.08-5.7.72-6.39,6.38-6.84,4.86-.39,8.25-3.81,8.53-8.71.14-2.49.43-5.06-.02-7.47-1.26-6.67,3.94-11.44,4.82-17.45.21-1.42,1.92-1.67,3.24-1.95,1.39-.29,2.57-.82,2.72-2.45.15-1.62-.95-2.14-2.21-2.84-3.98-2.22-4.17-5.79-.09-7.84,3.55-1.78,4.64-4.2,4.78-7.87.09-2.35.31-5.18,4.3-4.43,2.59.49,1.78-1.76,1.66-3.08-.85-9.1,2.78-15.76,11.21-20.09,3.26-1.67,6.76-2.95,8.26-6.74,1.3-1.22,2.47-.52,3.65.22.39.38.68.84.86,1.35.88,3.69-1.13,5.97-3.85,7.92-5.94,4.26-10.17,9.45-9.72,17.33.14,2.42-.53,4.81-2.81,6.02-6.63,3.51-7.89,9.9-8.55,16.32-.35,3.42-.76,6.49-3.02,9.2-1.9,2.27-1.31,4.97-.93,7.64.87,6.07.28,7.14-5.55,8.93-2.46.76-2.92,2.33-3.02,4.47-.48,10.05-4.43,19.18-7.58,28.53-.95,2.82-2.82,4.65-5.5,6.08-3.89,2.07-4.35,6.47-5.71,10.11-2,5.33-4.72,10.15-8.89,14.02-1.53,1.42-2.63,2.96-3.05,4.99-1.55,7.44-2.13,15.05-4.47,22.38-.8,2.51-1.44,4.7-3.71,6.08-2.43,1.48-3.87,3.59-4.35,6.37-.59,3.45-1.34,6.77-3.74,9.59-1.39,1.63-.81,3.83-.38,5.78.95,4.32.09,7.77-3.99,10.25-4.69,2.86-4.9,7.69-4.48,12.41.44,4.93.77,9.24-5.76,10.52-2.78.55-3.25,4.01-4.57,6.25-3.59,6.04-6.49,12.31-5.72,19.65,1.2,11.55-2.78,21.46-9.8,30.37-.8,1.02-.79,2.14-.66,3.31.27,2.59-.87,4.4-3.47,4.46-4.35.11-5.25,2.64-5.14,6.25.06,1.84-.49,3.61-.94,5.39-.36,1.31-.96,2.43-2.36,2.89h0c-.46.82-1.04,1.52-1.91,1.94-4.19,1.82-6.84,4.93-7.92,9.38Z"/>
  <path class="cls-63" d="m460.22,393.84c-2.73-4.74-.6-8.46,2.53-11.96.65-.72,2.06-1.5,1.96-2.03-1.6-8.22,6.79-12.35,7.84-19.41.51-3.4,1.96-6.72,2.19-9.95.25-3.55,1.8-5.33,4.48-6.09,3.63-1.04,3.86-3.38,3.86-6.44,0-3.38-.97-6.72,3.04-9.55,2.31-1.63,1.17-6.23.38-9.46-.42-1.71-.84-3.35.6-4.63,3.79-3.36,3.53-7.95,3.87-12.34.14-1.82-.28-4.16,2.04-4.52,7.24-1.11,6.06-7.57,7.9-12.05.52-1.27-.15-2.89,1.82-3.61,4.62-1.68,4.45-5.65,4.24-9.56-.2-3.65-.6-7.17,5.1-6.48,2.66.32,3.02-2.13,2.88-4.25-.38-5.44-.14-10.5,4.92-14.19,2.1-1.53,1-4.38,1.06-6.64.16-5.5,1.81-7.68,7.13-8.74,1.73-.34,2.79-1.16,2.82-2.9.08-4.15.04-8.31.04-12.47,0-1.03-.14-2.08-1.33-2.4-4.56-1.21-2.46-3.2-.64-5.18,1.03-.3,2.07-.28,3.11-.15h-.01c1.6,3.47,5.65,3.68,8.09,6.04,0,0,0-.06,0-.06-1.28,3.24.5,5.73,2.26,8.03,2.24,2.93,2.28,6.06.46,8.77-1.69,2.51-4.42,3.63-7.83,2.92-4-.82-6.81,2.37-9.93,4.07-1.35.74-.82,2.93,1.61,2.45,2.35-.46,3.55.69,3.97,2.68.36,1.72,1.09,4.06-.87,4.99-3.71,1.75-2.85,4.85-2.83,7.7.04,4.66.39,9.35-6.31,9.57-1.52.05-1.68,1.37-1.69,2.59-.02,2.16-.07,4.32,0,6.48.12,4.01-1.19,6.94-5.69,7.12-7.61.3-7.39,6.76-9.25,11.57-.35.9-.06,2.33-.65,2.82-4.75,3.97-3.92,8.3-1.11,12.84.73,1.18.48,2.36-.29,3.24-5.57,6.36-4.2,13.44-2.33,20.63.37,1.42.24,2.96.34,4.45-2.07,6.24-4.72,12.14-9.79,16.6-.25.22-.55.54-.83.52-7.82-.53-5.75,5.3-6.17,9.53-.07.66-.2,1.31-.26,1.98-.63,2.87-3.23,4.15-4.99,6.1-.33.36-.66.71-.98,1.07-.26.35-.53.68-.81,1.01-.97,1.16-1.95,2.31-2.69,3.64-4.01,5.15-7.79,10.48-11.93,15.53-.43.21-.87.22-1.32.06Z"/>
  <path class="cls-17" d="m278.39,209.99c-1.51-2.48-3.01-4.87-1.29-7.99.64-1.16.24-2.84-1.13-3.48-2.91-1.37-2.68-3.84-2.68-6.36.02-18.54-.45-37.1.15-55.62.52-16.07-.42-32.1-.25-48.14.05-4.84-.16-10.02,1.41-14.22,2.35-6.29.14-12.16.52-18.19.63-9.94.17-19.95.17-29.93,0-4.48.09-8.97-3.23-12.63-.67-.74.17-1.55.37-2.32,3.81,3.96,4.91,8.86,4.95,14.14.33,42.52.67,85.03.99,127.55.11,14.95.14,29.9.22,44.85,0,1.81-.23,3.67.72,5.36.09.71.24,1.42.22,2.14-.11,1.68.19,3.46-1.16,4.83Z"/>
  <path class="cls-47" d="m278.37,204.18c.32-.39.64-.78.96-1.16,75.82.02,151.64.03,227.46.11,2.7,0,5.63-.86,8.07,1.18-.63.27-1.26.53-1.89.79-3.95,2.58-8.44,1.83-12.54,1.26-11.7-1.64-23.41-.54-35.11-.91-3.49-.03-6.98-.02-10.47,0-10.58-.02-21.15-.01-31.73,0-10.63-.03-21.25-.01-31.88,0-8.03-.03-16.05-.02-24.08,0-10.64-.03-21.28-.01-31.92,0-18.07-.12-36.15.15-54.23-.13-1.02-.08-1.89-.49-2.66-1.14Z"/>
  <path class="cls-13" d="m284.27,555.45c-.3-1.36-.6-2.73-.9-4.09-.21-2.69-1.19-5.37-.18-8.09,3.83,1.14,3.08,5.54,5.5,7.69.78.61,1.57,1.2,2.35,1.79,1.61,1.22,2.85,3.75,5.36,2.44,2.1-1.1,1.37-3.48,1.46-5.38.1-2.13,0-4.27.04-6.4.15-7.1,2.17-8.49,9.34-6.41,3.3,7.56-.63,20.36-7.49,24.51-2.49,1.51-4.78.31-7.11-.34-1.24-.24-2.23.75-3.43.75-3.21-.97-3.61-4.08-4.94-6.48Z"/>
  <path class="cls-17" d="m508.34,333.89c-6.11,7.95-12.22,15.9-18.34,23.85-1.31.67-2.42,1.53-2.87,3.01-.09,2.3-1.92,3.4-3.29,4.83h.02c-.37.79-.65,1.73-1.86,1.1,0-2.14,0-4.28.02-6.42.01-3.71-.74-7.29,5.63-6.16,2.91.51,6.25-3.8,6.93-6.61.97-3.98,3.45-6.57,5.41-9.7,1.33-.03,3.27,2.62,3.83-.84.43-2.63,2.85-2.27,4.51-3.06Z"/>
  <path class="cls-1" d="m283.31,543.41c-.75,2.65,1.2,5.29.06,7.95-2.14-4.73-.94-9.75-1.27-14.63-.3-4.43.38-8.9-.68-13.29-.07-14.33-.15-28.66-.2-42.99,0-1.97.11-3.95.18-5.92.62-.27,1.12-.12,1.48.46,1.23,2.49.55,5.18.89,7.77.21,7.84.29,15.68-.07,23.52-.06,4.03-.17,8.07.77,12.04.28,2.34.17,4.7.24,7.05.15,1.5-.05,3,.01,4.5-.31,4.53,1.36,9.26-1.39,13.54Z"/>
  <path class="cls-10" d="m10.54,287.64c.93,1.63,1.42,3.33.96,5.25-1.41-.26-.35-1.87-1.67-2.4-3.76,4.84-5.26,10.73-7.18,16.44-.66,1.97-.31,4.32-2.14,5.87.46-9.53,3.72-17.95,10.03-25.16Z"/>
  <path class="cls-3" d="m355.31,524.72c.47-7.15,1.75-8.76,8.07-10.18-.74,3.35-2.53,5.96-5.45,7.79l-2.62,2.39Z"/>
  <path class="cls-10" d="m78.46,202.75c-.73,5.01-3.28,8.55-8.22,10.16,2.17-3.85,4.58-7.5,8.22-10.16Z"/>
  <path class="cls-22" d="m540.15,214.91c-3.27-1.25-8.18-.31-8.09-6.05,3.28,1.24,6.59,2.44,8.09,6.05Z"/>
  <path class="cls-19" d="m222.39,23.38c1.16,5.79-4.16,6.41-7.12,8.92.28-2.12,2.44-3.02,3.16-4.85.94-1.4,1.16-3.33,3.06-4l-.02.04c.26-.44.57-.45.92-.1Z"/>
  <path class="cls-20" d="m199.13,52.22c.5-.93,1.01-1.86,1.51-2.79,1.89-2.11,3.77-4.21,5.66-6.32.54,5.34-3.95,6.73-7.17,9.11Z"/>
  <path class="cls-40" d="m554.15,275.02c-.34.97-.68,1.93-1.02,2.9-.66.7-1.32,1.41-1.97,2.11-2.61-1.74.38-3.42.25-5.22-.1-1.3,1.76.02,2.75.21Z"/>
  <path class="cls-40" d="m547.82,285.61c-.63.43-1.26.85-1.89,1.28.9-2.92,1.34-6.19,5.2-6.88-.3,2.35-2.53,3.55-3.31,5.61Z"/>
  <path class="cls-65" d="m7.52,342.89c4.03.19,3.2,3.69,4.09,6.02-1.95-1.61-3.35-3.59-4.09-6.02Z"/>
  <path class="cls-10" d="m81.62,199.19c1.6,3.04-.38,2.89-2.41,2.7.52-1.15.88-2.45,2.41-2.7Z"/>
  <path class="cls-22" d="m532.07,208.87c-1,.75-2.04.81-3.11.15-.84-.48-.99-1.26-.95-2.12,1.54.27,2.98.75,4.06,1.97Z"/>
  <path class="cls-19" d="m212.16,36.38c.16-.64.31-1.27.47-1.91.89-.74,1.79-1.49,2.68-2.24.53,2.58-1.23,3.42-3.15,4.14Z"/>
  <path class="cls-65" d="m5.39,338.86c1.72.81,2.15,2.31,2.17,4.04-1.46-.95-1.98-2.41-2.17-4.04Z"/>
  <path class="cls-36" d="m279.34,289.89c0-6,0-11.99,0-17.99.53-.31,1-.23,1.4.24.45.66.68,1.41.78,2.19.26,3.15-.04,6.31.23,9.46.13,1.52.46,3.27,2.17,3.56,2.28.38,1.91-1.77,2.19-3.07.8-3.76,3.45-4.9,6.71-4.23,4.7.96,7.05-.97,7.61-5.39.72-5.67,4.69-10.02,6-15.44.47-1.93,2.17-2.46,3.89-2.52,3.31-.11,4.41-2.2,6.03-4.84,3.25-5.27,6.68-10.61,11.52-14.7,1.86-1.57,3.55-3.41,3.65-5.74.21-4.76,2.69-7.25,6.98-8.45,2.3-.64,3.52-1.69,2.11-4.29-1.46-2.69.92-3.62,2.63-4.35,2.82-1.2,4.67-3.04,5.43-6,3.64-.87,7.35-.67,11.04-.81,3.32,3.66,3.64,6.52.7,9.96-1.85,2.17-3.67,4.26-4.32,7.13-.15.65-.56,1.54-1.1,1.57-5.53.24-6.53,5.05-8.86,8.55-.54.81-1.14,1.86-1.94,2.22-3.99,1.81-4.69,5.15-4.58,8.97-3.56,1.47-7.99,1.84-9.91,5.67-1.77,3.52-3.69,6.96-5.46,10.48-.99,1.97-2.17,3.65-3.97,4.98-2.96,2.19-5.67,4.59-6.1,8.63-.14,1.34-.88,2.67-2.01,3.33-4.81,2.78-7.22,7.55-10.21,11.87-.67.97-1.51,1.86-1.49,3.06.06,4.23-2.48,5.38-6.12,5.33-2.95.14-5.9.15-8.84.04-5.14-.19-5.57-.68-5.68-5.62-.03-1.28.32-2.63-.47-3.82Z"/>
  <path class="cls-38" d="m280.35,369.7c-2.06-14.6-.6-29.27-1-43.9.24-.09.48-.17.72-.26.45.24.78.6,1,1.06,1.05,4.42.27,8.91.56,13.37.1,1.57-.38,3.73,1.9,4.02,2.41.31,2.35-1.87,2.55-3.45.42-3.45,2.61-5.16,6.89-6.06-5.25-.4-5.97-3.67-6.63-6.67-.69-3.15.79-6.09,3.82-6.63,5.65-1,8.86-5.02,12.21-8.77,2.58-2.89,2.37-7.09,3.51-10.67.39-1.24.21-2.65.95-3.84.36-.44.8-.75,1.33-.95,4.98-.68,9.96-1.23,14.88.38,2.11,2.22,1.63,4.85,1.17,7.46-.17.51-.46.97-.83,1.36-.26.18-.54.46-.83.45-4.69-.14-6.51,2.48-6.57,6.8-.23.44-.54.82-.92,1.14-.75.6-1.86.95-1.99,2.04-.58,5.1-5.07,8.51-5.76,13.55-2.91,1.79-2.68,4.7-2.62,7.51.08,3.47-.32,6.6-4.01,8.29-1.7.78-2.12,2.44-2,4.2.31,4.5-.32,8.85-1.97,13.06-.03.78-.06,1.56-.09,2.34,0,.78-.05,1.55-.16,2.33-.11.75-.32,1.47-.64,2.15-3.56,6.12-7.06,6.64-11.56,1.04.2,6.66-1.06,12.68.14,18.75.54,4.03.18,8.09.82,12.15.4,2.52-2.37,4.87-1.61,7.77-.09,1.11-.32,2.16-1.1,3.01-.57.27-1.08.18-1.52-.28-.29-1.98-.08-3.98-.14-5.97.8-10.81-.29-21.62-.03-32.43.04-1.44.4-2.96-.44-4.34Z"/>
  <path class="cls-5" d="m278.37,204.18c.64-.04,1.27-.08,1.91-.12.86,1,2.53-.14,3.25,1.23-.67,4.18,2.23,2.95,4.4,2.94,7.71-.06,15.43.15,23.15-.01.99.34,1.87.86,2.56,1.66,1.5,3.06.87,5.81-1.53,8.03-2.29,2.11-3.5,4.68-4.13,7.62-.24.44-.57.8-.99,1.07-3.42.65-6.86.97-6.92,5.92-.03,2.21-2.18,2.58-4.22,1.98-1.22-.36-1.78-2.96-3.62-1.18-1.76,1.72-4.22,2.97-4.93,5.46-1.47,5.09-3.23,5.75-7.47,2.45-.28-5.75.58-11.53-.51-17.24-.63-4.65.89-9.44-.92-14,0-1.94-.01-3.88-.02-5.81Z"/>
  <path class="cls-60" d="m279.31,224c2.21,5.88.41,11.99.99,17.96,1.19,1.14,1.15,2.68,1.38,4.14.31,1.96,1.23,3.58,3.36,3.71,2.16.13,4.32-.96,4.53-3.06.42-4.21,2.54-6.16,6.53-6.66.8-.1,1.53-.78,1.86-1.54,2.17-4.88,7.47-7.44,9.3-12.56,4.07-1.34,6.34-4.1,7.28-8.32.61-2.76,2.34-4.34,5.33-2.26,1.45,3.59.32,6.94-.9,10.28-.8,1.23-2.03,2.2-2.37,3.73-.67,3.02-2.51,4.83-5.47,5.81-3.13,1.03-4.49,3.3-3.43,6.58,1.1,3.38-.15,4.96-3.56,5.42-5.01.67-7.54,4.43-9.67,8.39-.71,1.32-1.1,2.75-2.53,3.47-2.1,1.07-2.88,2.94-3.63,5.05-1.7,4.78-3.58,5.19-8.1,2.11-.91-1.32.16-3.04-.9-4.33,0-12.64,0-25.28-.01-37.93Z"/>
  <path class="cls-26" d="m279.34,289.89c2.33,2.13-.77,6.47,2.17,7.49,3.11,1.08,6.84.4,10.31.48,1.16.03,2.31,0,3.47,0,2.51,5.6,1.85,7.51-3.76,9.46-2.04.71-2.6,2.24-3.45,3.82-1.67,3.06-3.99,4.79-7.64,3.1-1.53-2.64.23-5.7-1.06-8.38,0-5.32-.01-10.65-.02-15.97Z"/>
  <path class="cls-34" d="m280.35,369.7c1.54,1.5.95,3.43.91,5.18-.17,7.85.47,15.67.91,23.49.15,2.74-.57,5.52-.89,8.29-.33.45-.65.45-.97,0-.05-2.93-.1-5.87-.15-8.8.07-9.38.13-18.77.2-28.15Z"/>
  <path class="cls-48" d="m159.25,102.15c4.69-6.62,9.58-13.08,15.15-19,.73,4.5-3.56,6.47-5.29,9.67-2.08,3.84-5.72,7.12-9.86,9.33Z"/>
  <path class="cls-33" d="m279.36,305.86c1.89,2.47.52,5.33.94,7.97,2.19,3.99,2.33,7.98,0,11.98-.31,0-.63,0-.94,0,0-6.65,0-13.29,0-19.94Z"/>
  <path class="cls-19" d="m225.66,18.46c1.56-1.71,3.11-3.43,4.67-5.14,2.82,5.44-3.07,4.11-4.72,6.08-.71-.35-.69-.66.05-.93Z"/>
  <path class="cls-19" d="m231.12,12.31c1.38-2.7,3.34-4.83,6.12-6.15-.25.83,2.83,2.78-.87,2.49-1.07-.08-1.58.87-2.01,1.73h0c-1.08.64-2.16,1.28-3.24,1.92Z"/>
  <path class="cls-67" d="m279.32,261.92c1.43,1.06.83,2.62.98,4,1.47,2,1.72,4,0,5.99-.32,0-.64,0-.95,0,0-3.33-.01-6.65-.02-9.98Z"/>
  <path class="cls-19" d="m234.36,10.38c.32.54.86,1.07.9,1.63.08,1.05.55,2.36-.9,2.96-.22.09-.66-.07-.87-.26-1.43-1.28.39-1.92.59-2.89.1-.48.19-.95.28-1.43h0Z"/>
  <path class="cls-19" d="m222.39,23.37c.65-1.25,1.37-2.43,2.65-3.15,1.97,3.45-1.56,2.27-2.65,3.15Z"/>
  <path class="cls-52" d="m183.13,72.17c.64-1.69,1.78-2.98,3.22-4.03,1.13,3.1-1.78,2.98-3.22,4.03Z"/>
  <path class="cls-8" d="m529.86,306.83c-.98,1.63-1.96,3.26-2.94,4.89-.94.81-1.88,1.61-2.83,2.42.56-3.51,3.07-5.48,5.77-7.3Z"/>
  <path class="cls-58" d="m542.93,216.95c.96.43,1.92.86,2.88,1.3.44.87.87,1.74,1.31,2.61-2.89.3-3.19-2.18-4.19-3.91Z"/>
  <path class="cls-58" d="m547.07,220.84c1.95,1.22,3.3,2.91,4.03,5.1-2.5-.79-4.11-2.27-4.03-5.1Z"/>
  <path class="cls-8" d="m537.09,297.97c-.75,1.51-1.44,3.07-3.15,3.76.44-1.76.62-3.75,3.15-3.76Z"/>
  <path class="cls-8" d="m539.8,294.81c-.58,1.35-1.41,2.48-2.74,3.18-.15-1.98.87-2.94,2.74-3.18Z"/>
  <path class="cls-32" d="m463.05,344.77c-.33.33-.67.67-1,1-4.35,1.18-6.41,3.64-5.81,8.49.49,3.98-2.9,6.66-5.08,9.35-2.1,2.59-2.87,5.03-2.73,8.1.13,2.88-.26,5.47-2.64,7.66-2.19,2.01-1.25,5-1.31,7.59-.15,6.71-.12,6.35-6.9,6.74-3.57.21-4.83,3.68-5.01,6.91-.3,5.13-.26,10.29-.05,15.41.21,5.08-2.77,8.77-5.12,12.66-1.42,2.35-2.89,1.84-5.81-1.47-.56,4.99-3.53,9.32-3.4,14.44.04,1.53-.88,2.84-2.61,3.23-6.85-3.16-7.82-8.03-2.44-13.38,1.63-1.63,1.71-2.63-.15-3.86-3.53-2.34-3.53-5.69-2.68-9.3.2-.48.51-.87.91-1.18.44-.24.9-.41,1.39-.52,2.42-.52,5.8,1.51,7.12-1.84,1.41-3.58,3.39-7.27,1.19-11.41-1.46-2.75-1.34-5.76-.62-8.75.41-1.01,1.22-1.56,2.21-1.9,3.52-.9,3.13-3.78,3.3-6.42.21-3.21-.61-7.14,5.14-5.81,1.98.46,7.64-5.71,7.54-8.42-.23-6.21,2.88-9.96,6.89-14.45,3.96-4.43,3.88-11.81,6.92-17.42.42-.77-.47-1.86-.87-2.78-2.31-5.32-2.24-5.79,2.72-9.19,2.02-1.38,2.17-3.12,1.93-5.21-.36-3.14-.64-6.29.3-9.4,1.46-4.46,1.9-9.5,7.3-11.6,1.37-.53,1.85-2.37,1.87-3.89.05-4.7,2.52-8.97,2.34-13.7-.03-.66.06-1.49.52-1.89,4.46-3.84,3.89-10.81,7.24-14.23,6.33-6.46,3.92-14.67,6.92-21.56.65-1.51.69-3.42,2.09-4.42,4.41-3.15,5.79-7.95,7.14-12.75,1.22-4.31,4.57-7.26,6.82-10.91,1.82-2.96,3.67-5.78,4.57-9.15,3.81-1.48,7.49-3.9,11.81-1.57,2.15.02,5.25-.24,5.44,2.08.15,1.81-1.07,4.3-3.21,6-2.71,2.16-4.85,4.55-8.86,4.27-1.84-.13-1.11,2.34-1.37,3.71-.73,3.77,2.36,8.79-3.6,10.98-.47.17-.35,2.16-.37,3.31-.04,1.72.01,3.37-2.31,3.68-1.48.2-1.66,1.41-1.68,2.63-.04,2.42.5,4.9-3.04,5.77-1.61.39-.89,2.62-.94,4.04-.09,2.48-.02,4.97-.03,7.46,0,.66.23,1.73-.09,1.93-6.86,4.45-2.56,11.6-4.26,17.27-.09.29-.42.5-.64.74-.26.21-.51.53-.8.57-7.1.96-9.89,5.07-8.88,12.02.09.64.06,1.52-.36,1.91-3.75,3.57-3.56,8.22-3.73,12.82-.08,2.14-1.54,3.16-3.42,3.73-4.02,1.22-5.32,4.05-4.83,8.03.51,4.13.96,8.15-2.79,11.43-1.29,1.12-.66,3.47-.74,5.28-.11,2.44.41,5.01-1.42,7.11Z"/>
  <path class="cls-14" d="m415.11,444.59c.58-.57,1.71-1.22,1.65-1.7-.84-6.02,3.56-10.95,3.37-16.8-.04-1.16.03-2.71,1.47-2.72,1.46-.01,1.45,1.54,1.51,2.7.06,1.36.14,2.9,1.8,3.11,1.78.23,1.65-1.64,2.4-2.62,5.94-7.8,3.65-16.84,3.6-25.39-.03-4.17,2.74-6.27,4.25-9.29.56-1.11,2.29-1.47,3.39-.04.86,1.11,1.72,2.19,3.27,1.57,1.88-.75,1.2-2.53,1.25-3.93.09-2.49.03-4.99.03-7.49,0-2-.26-3.96,2.58-4.54,1.98-.41,1.68-2.52,1.34-3.78-1.69-6.34,2.21-10.62,5.69-14.74,1.66-1.97,2.45-3.62,2.41-6.05-.11-7.12-.06-7.12,6.96-7.12-1.22,2.86-3.48,5.16.05,8.64,3.51,3.47-1.81,5.68-2.74,8.59-1,3.11.45,7.43-5.25,6.76-.96-.11-2.55-.12-2.6.87-.28,5.53-5.04,9.56-4.58,15.49.54,7.02-1.37,9.04-7.87,11.78-2.37,1-4.99,2.31-3.63,5.86,3.02-1.81,6.21-4.37,6.01,2.31-.03,1.18,1.05,2.38,1.62,3.58,1.25,1.16,1.68,2.53,1.09,4.17-1.41,3.95-5.89,5.68-7.1,9.77-1.73.26-2.73,1.31-3.2,2.95-1.59.56-2.17,1.92-2.66,3.35-.77,1.21-1.53,2.42-2.3,3.64-.35.35-.7.71-1.06,1.06-3.35,2.42-7.4,4.26-7.66,9.24-2.55,3.93-5.51,7.53-8.8,10.86-.46.33-.96.39-1.49.18-2.54-4.21-.34-8.56,5.2-10.28Z"/>
  <path class="cls-14" d="m463.05,344.77c0-3.32-.02-6.64,0-9.97.02-2.24-.22-4.03,2.72-5.53,2.87-1.47,1.38-5.48,1.04-8.25-.78-6.42-.34-7.73,5.66-9.11,2.23-.51,2.59-1.58,2.56-3.42-.04-2.32-.05-4.65.02-6.98.03-.96.09-2.65.51-2.77,4.86-1.44,3.36-5.37,3.42-8.55.13-6.29,1.96-8.17,8.53-8.31.83-.02,1.66,0,2.49,0-.1.48-.05,1.29-.31,1.4-7,3.09-6.36,10.64-9.4,16.03-.82,1.45-1.42,2.98-1.27,4.71.37,4.18-1.32,6.99-4.85,9.5-4.11,2.91-6.39,7.12-3.97,12.47.14.3.42.66.35.91-1.72,5.68-3.44,11.36-5.31,16.99-.16.48-1.43.59-2.19.88Z"/>
  <path class="cls-27" d="m514.98,208.02c-4.3-1.2-7.74,2.83-11.98,2-2.28-.71-4.88.86-6.99-1h0c-2.77-2.62-6.36-2.19-9.72-2.61-1.91-.02-3.81.09-5.72.03-5-.49-10.11.89-15.04-.81-.6-.37-.76-.88-.51-1.53,16.01-.7,31.97.7,47.95.99-.12,1.52,1.42,1.9,2.01,2.93Z"/>
  <path class="cls-63" d="m444.17,413.82c-.7-1.3-1.26-2.64-1.09-4.17,3.12-2.59,8.45-3.64,6.7-9.62,2.38-.45,1.51-6.75,6.03-3.34,1.11-1.52,2.65-2.39,4.4-2.95-4.66,7.24-10.4,13.62-16.04,20.07Z"/>
  <path class="cls-14" d="m447.88,402.56c-.47.4-.76.84-1.09.87-.39.04-1.06-.17-1.17-.45-.28-.73.26-1.16.94-1.14.37.01.73.38,1.31.71Z"/>
  <path class="cls-44" d="m481.02,205.03c2,0,4,0,5.99,0,1.58,1.84,4.25,1.48,5.99,2.99,0,3.38-1.43,5.46-4.87,6.52-6.13,1.88-10.14,6.23-13.35,11.71-1.95,3.33-1.39,6.32-.31,9.44.7,2.04.39,3.78-1.24,4.86-1.69,1.12-2.53-.87-3.71-1.77-2.07,1.81-1.48,4.22-1.46,6.41.03,3-.71,5.24-4.1,5.76-2.18.34-3.86,1.46-3.73,3.86.14,2.52,2.06,2.14,3.95,2.31,2.79.24,1.63,2.76,1.8,4.39.18,1.77-.09,3.59-2.48,3.34-3.5-.36-3.39,2.06-4.83,4.33-4.83,7.65-3.13,15.83-3.74,23.86-.31,4.05-7.08,8.63-10.87,7.38-3.23-1.06-3.95.56-3.98,3.09-.04,3.62-.21,7.15,1.49,10.69,2.32,4.83,1.19,5.9-3.92,7.74-3.57,1.28-7.78,2.08-8.54,7.52-.77,5.5-2.35,10.96-4.92,16.02-.45.89-.67,2.19-1.39,2.6-3.97,2.23-2.26,4.42-.6,7.26,2.31,3.95-1.93,13.82-6.2,15.39-3.84,1.41-9.99,10.17-9.9,14.31.08,3.63-.17,7.22.74,10.87,1.13,4.55-3.78,11.32-8.07,12.88-3.46,1.26-6.39,3.55-6.65,7.78-.31,5.04.56,10.02-2.44,14.94-1.2,1.97.82,6-1.82,8.53-.83.79-1.63,2.14-2.54,2.23-6,.56-5.52,5.37-6.11,9.25-.42,2.76,0,5.64-.11,8.46-.21,5.14.6,10.05-3.45,14.91-2.79,3.35-2.08,9.21-4.27,13.76-1.3,2.7-1.8,5.54-4.69,7.12-1.93,1.05-2.71,2.74-2.52,5,.74,8.57-1.82,10.77-10.01,8.7-1.1-1.16-1.38-2.63-1.31-4.12.14-3.3-.35-5.91-3.85-7.71-2.7-1.39-2.87-5.93-.24-7.06,8.45-3.63,5.92-10.57,5.81-16.87-.14-.77-.08-1.52.27-2.22,1.33-1.2,2.57-2.34,3.34-4.16,1.52-3.63,5.4-3.98,7.78-.84,1,1.31,1.81,2.77,2.91,4.02.73.82,1.26,2.2,2.67.81.93-.92,1.51-1.88.19-2.89-1.92-1.46-2.49-3.41-2.28-5.72.2-2.23-1.38-2.75-3.1-3.12-3.67-.78-4.56-3.35-4.41-6.71.14-3.11,1.97-3.92,4.71-4.69,5.21-1.47,7.46-6.26,9.58-10.62,1.11-2.27-1.02-3.86-3.21-4.79-2.9-1.24-3.3-2.9-.23-4.33,3.57-1.66,5.76-5.36,10.15-6.01,2.49-.37,1.49-2.26-.12-3.51-5.31-4.13-5.22-6.5.46-9.56,1.69-.91,2.57-2,2.39-3.89-.18-1.92-1.56-2.34-3.15-2.52-1.31-.15-2.67-.19-3.73-1.17-1.42-5.37-1.12-6.07,3.91-7.42,3.3-.88,5.33-4.28,9.33-4.06,1.78.1,1.07-2.37.89-3.78-.88-6.73-.33-8.01,5.62-11,2.12-1.06,2.86-2.51,2.8-4.74-.19-6.77,1.62-12.94,4.66-19.04,2.5-5.01,4.04-10.54,3.76-16.35-.17-3.63.43-6.72,5.04-7.01,2.03-.13,2.8-1.52,2.88-3.42.09-2.16.07-4.32.07-6.49,0-2.89.72-5.18,3.88-6.16,3.02-.94,3.11-3.58,3.08-6.14-.04-4.3,1.41-7.13,4.87-10.48,3.64-3.52,9.32-7.98,6.53-15.23-.96-2.5-.47-5.27,1.29-7.58,1.23-1.62,1.88-3.53,2.32-5.48.49-2.19,1.67-3.49,3.48-5,3.28-2.74,6.52-6.01,6.49-10.97-.03-5.49-.1-10.98.03-16.47.13-5.61,1.55-6.67,7.16-5.61,2.22.42,4.46,1.6,7.05-.39-5.64-3.88-1.13-5.68,1.49-8.14,3.49-3.29,6.01-7.54,10.03-9.67.19-.86.09-1.15-.2-1.37-1.46-1.08-4.9-.26-4.32-3.02.52-2.45,3.42-.84,5.22-1.21,1.59-.33,3.32.48,4.84-.53Z"/>
  <path class="cls-49" d="m496,209.02c2.16,1.54,5.24-3.42,6.99,1,1.31,2.26,1.21,4.16-.7,6.27-5.29,5.85-9.31,12.48-11.39,20.2-.38,1.4-.93,3.16-2,3.89-6.47,4.45-6.73,11.16-6.85,17.91-.06,3.41-.08,6.13-4.02,8.1-3.4,1.7-2.05,6.61-3.76,9.85-1.12,2.13-1.05,4.86-3.93,5.78-.89.29-1.41,1.08-1.24,1.92.98,5.11-2.64,9.52-2.14,14.59.2,2.04-.66,4.26-2.6,5.03-3.82,1.52-6.07,3.69-5.48,8.1.13.98-.89,1.71-1.83,2.16-1.83,3-2.59,6.46-3.71,9.7-1.32,3.82-1.93,7.59-6.41,9.23-1.71.63-1.39,2.83-1.54,4.46-.44,4.86-.79,9.6-6.7,11.47-2.41.77-2.34,3.46-1.91,5.63.65,3.3.12,6.18-2.05,8.85-1.86,2.29-2.19,5.17-2.24,8.01-.05,2.88-.99,5.15-3.6,6.6-2.79,1.56-3.54,4.05-3.46,7.13.08,3.08.57,6.41-2.31,8.77-.82.02-1.57.19-2,1-1.48,2.99-.97,6.12-.7,9.26.29,3.37-.18,6.35-4.29,7.25-3.39.74-2.99,4.56-5,6.45-1.84,2.55-2.19,5.65-2.35,8.54-.4,7.62-4.03,12.64-10.37,16.81-4.58,3.01-5.84,8.52-5.72,14.09.13,6.2-.41,12-2.61,18.22-1.83,5.16-5.66,9.09-6.81,14.34l.05-.07c-1.33,1.13-2.57,2.31-3.65,3.73-.79,1.04-1.75,2.55-3.5,1.19-1.43-2.04-2.04-4.12,1.07-4.93,2.58-.67,1.52-3.06,2.61-4.36,7.27-8.64,6.63-19.02,6.24-29.25-.2-5.25,3.21-9.11,4.66-13.7.62-1.95,2.71-3.72,3.3-5.97.56-2.14,2.18-3.3,3.89-3.36,4.25-.15,4.95-1.64,4.39-5.88-.93-7.1-1-14.32,7.48-18.09,2.52-1.12,1.41-4.5.92-6.88-.73-3.49-1.65-6.72,2.33-9.17,2.06-1.27.63-4.09,1.47-6.09.7-1.66.66-4.6,1.7-5,6.19-2.34,6.31-8.34,7.93-13.05,1.74-5.06,2.12-10.61,2.85-15.98.5-3.63,1.92-6,5.08-8.4,3.12-2.36,5.88-6.54,6.59-10.34.73-3.88,3.72-6.69,3.77-10.63,0-.63.88-1.62,1.54-1.83,9.85-3.02,8.2-12.57,10.95-19.49,2.2-5.54,3.93-11.32,3.28-17.55-.25-2.36,2.01-2.83,3.96-2.64,4.73.47,5.6-2.5,4.73-5.94-1.22-4.84-1.2-8.84,2.75-12.68,2.47-2.4-.21-6.27,1.26-9.46,2.3-5,1.62-11.68,8.96-13.57,2.38-.61,2.3-3.42,2.13-5.62-.64-8.22,3.7-13.62,10.16-17.69,3.04-1.92,4.32-4.44,3.83-7.94Z"/>
  <path class="cls-53" d="m355.2,473.54c.16.03.4,0,.47.1,3.07,3.95.23,15.57-4.26,16.77-2.1.57-3.2,1.38-3.2,3.58,0,2.18.96,3.49,3.21,3.48,2.62-.02,2.83,1.62,2.79,3.61-.05,2.8-.01,5.6-.01,8.39-1.64-.03-2.96.25-2.99,2.37-.1,7.56-7,12.61-7.48,20.08-.03.5-1.37,1.45-1.85,1.31-4.44-1.26-6.43,2.39-9.3,4.35-2.37,1.62-1.45,4-1.25,5.9.56,5.32-.92,8.46-6.8,8.97-3.96.34-5.46,3.16-5.31,7.04.17,4.39-2.29,6.53-6.51,5.85-.46-.07-1.24-.4-1.32-.27-3.23,5.32-7.61,2.32-11.65,1.65-.79-.13-1.21.34-1.59.91-2.97-.9-5.86-1.95-8.12-4.21-.33-.63-.67-1.26-1-1.88.75-.71,1.51-1.43,2.26-2.14,2.52,3.42,5.53,5.03,9.84,3.19,1.99-.85,4.28-.27,6.39-.63,5.31-.91,7.07-3.92,4.79-8.72-2.06-4.34-.99-8.43.43-12.5.54-1.55,1.86-3.1,3.81-2.13,3.14,1.57,6.22.4,7.89-1.54,2.17-2.52,2.08-6.18.47-9.4-1.12-2.25-2.64-4.46.29-6.51.49-.1.96-.05,1.42.14.56.34,1.42,1.2,1.62.97,2.23-2.53,4.99-3.82,8.19-4.89,1.84-.62.33-2.09-1.08-2.48-1.6-.44-3.25-.68-4.32-2.17-2.12-2.95-.77-7.16,2.99-8.25,2.37-.68,4.06-1.53,3.83-4.22-.33-3.97,1.21-7.17,4.11-9.64,3.35-2.86,4.04-6.42,4.05-10.61,0-5.69,3.73-8.09,9.21-6.45Z"/>
  <path class="cls-21" d="m376.17,494.5c1.47.01,3.11-.79,3.15-1.91.1-2.99,2.34-2.48,4-3-3.39,4.61-6.78,9.21-10.17,13.82-2.28,2.47-4.56,4.95-6.83,7.43.47-2.88.99-5.73.93-8.69-.06-3.16,1.7-5.02,4.95-4.44,2.83.51,4.05-.38,3.97-3.19Z"/>
  <path class="cls-49" d="m493.01,208.02c-2.47-.06-5.14.31-5.99-2.99,3.15.98,7.33-.36,8.99,3.99-1-.33-2-.66-3-1Z"/>
  <path class="cls-47" d="m493.57,328.25c-1.8-2.08-1.78-3.76-.46-5.35.68-.82,1.67-.36,2.13.24,1.83,2.38-.86,3.32-1.66,5.11Z"/>
  <path class="cls-23" d="m476.23,373.8c-.63,1.66-1.4,3.19-3.21,3.87.18-2.03,1.38-3.21,3.21-3.87Z"/>
  <path class="cls-34" d="m281.31,412.64c.33,0,.66,0,.98.01,2.27,2.84,1.4,6.23,1.52,9.4.14,3.74.14,7.49-.07,11.24-.12,3.11.23,6.23.04,9.34-.2,4.36-.08,8.73,0,13.09-.03,4.59.29,9.18-.06,13.76-.14,1.77.1,3.66-1.42,5.05-.3,0-.6,0-.9,0-.42-6.88-.6-13.77-.21-20.66-.54-13.75-.78-27.49.12-41.23Z"/>
  <path class="cls-1" d="m281.31,412.64c-.04,13.74-.08,27.48-.12,41.23-1.24-6.23-.64-12.55-.77-18.82-.19-9.46-.09-18.93-.12-28.39.33,0,.65,0,.98,0,.01,1.99.02,3.99.03,5.98Z"/>
  <path class="cls-47" d="m275.58,176.09c.61,2.6,1.12,4.81,0,7.82v-7.82Z"/>
  <path class="cls-47" d="m275.94,130.68c-.81-1.51-.81-2.52-.22-3.61.95.94.58,1.95.22,3.61Z"/>
  <path class="cls-28" d="m359.19,208.02c-3.33,1.12-6.66,2.32-9.99,0-1.94,1.3-3.33-.64-5.03-.82-.91-.64-2.97-.72-1.31-2.63,8.09-.3,16.21.48,24.29-.43,7.99,0,15.97-.02,23.96-.03.32.6.19,1.08-.37,1.46-5.03,1.65-10.21.5-15.31.79-2.65.15-5.25-.02-7.6,1.7-2.79,2.03-5.74-.08-8.63-.04Z"/>
  <path class="cls-54" d="m283.29,205.03c-1.1-.03-2.27.16-3.01-.97,18.31,0,36.62.02,54.92.03.35.47.31.91-.11,1.32-.65.45-1.39.66-2.16.76-.79.11-1.58.14-2.38.16-1.38.09-2.75.06-4.13.09-4.98.15-9.95.16-14.92.04-3.77.09-7.54-.02-11.31.12-1.72.2-3.42.7-5.17.37-3.82-1.18-8.14.71-11.72-1.91Z"/>
  <path class="cls-37" d="m423.09,204.11c10.65,0,21.3,0,31.95.01.28.65.11,1.16-.5,1.52-4.7,1.75-9.59.28-14.37.85-3.83.05-7.67.01-11.5,0-1.73-.2-3.54.03-5.15-.89-.56-.37-.71-.87-.44-1.49Z"/>
  <path class="cls-66" d="m335.22,205.02c0-.31,0-.62-.01-.93,10.65.02,21.29.04,31.94.06-5.42,1.89-11.02.49-16.53.85-2.78.18-5.59.05-8.39.05-2.34,1.79-4.68,1.78-7.01-.03Z"/>
  <path class="cls-59" d="m423.09,204.11c0,.3,0,.61,0,.91-5.63,2.71-11.6,1.17-17.43,1.44-2.66.05-5.32.04-7.98,0-1.43-.11-2.88-.07-4.31-.25-.87-.16-1.66-.47-2.23-1.19,0-.31-.01-.61-.04-.92,10.66,0,21.32,0,31.99,0Z"/>
  <path class="cls-44" d="m455.06,205.03c0-.3,0-.61-.02-.91,3.32,0,6.65-.01,9.97-.02.02.31.03.61.03.92-.85.99-2,1.22-3.21,1.32-2.34-.02-4.79.55-6.77-1.32Z"/>
  <path class="cls-21" d="m383.26,489.65c-.24-3.65,1.02-6.66,3.84-9.01.25-.21.79-.39.78-.56-.35-7.77,6.12-14.35,3.54-22.67-1.64-5.28,3.13-13.65,7.74-16.55,4.54-2.86,7.61-6.84,8.08-12.66.3-3.73-.34-8.13,3.88-10.55-.25,4.38-.61,8.69,5.04,10.38,1.4.42,1.38,2.48.03,3.23-2.64,1.46-4.83,2.5-5.28,6.31-.49,4.04,3.25,4.49,4.21,7.04-2.49,2.91-7.12,4.75-5,9.97-.3,1.53-1.36,2.69-1.94,4.08h.01c-4.8,1.67-5.33,6.71-7.98,10.09-1.03,1.57-2.07,3.14-3.1,4.72-4.61,5.4-9.23,10.8-13.84,16.2Z"/>
  <path class="cls-30" d="m420.2,443.83c-.17-1.36-.05-2.75-.07-4.09-.08-5.35,4.9-3.75,7.73-5.15-2.55,3.08-5.11,6.16-7.66,9.24Z"/>
  <path class="cls-55" d="m400.21,468.73c-.2-3.89,3.27-6.21,4.18-9.71.46-1.76,2.4-1.25,3.8-.39-2.16,3.76-4.88,7.08-7.98,10.1Z"/>
  <path class="cls-55" d="m408.18,458.64c-.18-1.75.11-3.28,1.94-4.08.43.04.85.08,1.28.12-.54,1.75-1.61,3.07-3.22,3.95Z"/>
  <path class="cls-25" d="m462.05,205.03c1,0,2,0,3-.01,5.32,0,10.65,0,15.97,0-2.75,2.4-6.48-.24-9.35,1.68.15.4.18.81.38.93,2.02,1.23,5.79-1.12,6.4,2.18.51,2.78-3.28,2.65-4.92,4.15-4,3.67-6.43,8.92-12.06,11.25,2.06,1.36,5.87.83,4.61,4.12-.93,2.42-3.81,2.84-6.43,2.34-.48-.09-.9-.43-1.37-.59-6.64-2.19-7.22-1.76-7.22,5.35,0,4.82.12,9.64-.05,14.46-.1,2.84,1.46,6.33-3.17,7.68-1.71.5.01,4.63-1.59,4.73-8.03.49-3.86,9.55-8.89,12.24-.99.53-.99,4.33.33,6.09,2.51,3.33.96,5.46-1.49,7.64-1.75,1.56-3.37,3.15-3.21,5.86.09,1.5-.94,2.61-2.46,2.61-4.06,0-4.43,2.67-4.44,5.71,0,1.99-.03,3.99,0,5.98.02,1.66-.71,3.52-2.07,3.64-6.48.58-4.79,5.27-4.91,9.09-.04,1.33-.08,2.66,0,3.99.16,2.41-.59,3.98-3.32,3.61-3.77-.51-4.92,1.08-4.76,4.78.32,7.34-2.03,13.83-5.31,20.53-2.16,4.41-4.44,9.93-2.91,15.78.66,2.53.19,5.47-3.96,6-4.14.53-5.73,3.71-4.82,8.05.27,1.29.76,2.55.91,3.85.32,2.67-.58,4.4-3.63,3.44-2.25-.7-3.89-.79-4.38,2.09-.21,1.22-1.37,1.5-2.36,1.32-5.12-.9-5.93,1.95-5.43,6.04,1.82,2.19,1.71,4.81.74,7.06-1.97,4.57-3.4,9.32-5.21,13.94-.42,1.08-.86,2.33-1.86,2.88-3.97,2.17-4.56,5.72-4.43,9.74.05,1.65-.24,3.41-2.06,4.19-1.91.82-1.71-2.1-3.33-2.03-.52,2.31.88,4.2,1.2,6.29.52,3.35-.27,6.05-3.88,6.94-2.45.61-3.72,1.92-3.93,4.39-.07.82-.22,1.77-.84,2.29-3.24,2.71-3.3,5.22-.22,8.27,1.62,1.61,1.46,3.96-.14,5.9v2c-6.82.55-8.63,1.84-7.78,8.26.69,5.19-2.19,8.15-5.14,10.61-2.97,2.48-3.22,5.09-3.03,8.23.18,2.99-.1,5.33-4.09,4.87-2.67-.3-3.9,1.07-3.94,3.82-.05,2.97,1.22,4.31,4.17,4.13,2.18-.13,3.91.09,3.88,3.06-.03,3.05-1.98,3.2-4.01,2.88-4.98-.76-4.33,4.68-7.42,6.43-.54-1.5-1.07-2.94-1.59-4.39-.52-1.62.12-3.48-.87-5.29-1.58,1.97-.21,3.63-.13,5.29-.81,1.52-1.45,3,.05,4.53,3.75,3.81,1.57,8.06.75,12.15-.29,1.45-1.95,2.41-3.06,1.89-3.01-1.41-3.66.79-4.58,2.67-2.11-.43-.33-4.25-3.1-3.46-1.78.51-1.72,2.47-2.16,4.1-1.09,4.03-1.08,7.5,1.43,11.28,2.52,3.81-.78,7.03-6.07,8.56-3.35.97-7.05-.05-10.53,1.88-2.25,1.25-6.28-2.58-6.69-5.68,1.57-.14,2.86.43,4.09,1.39.97.75,2.71,1.06,3.2.23,2.4-4.06,7.91-5.95,7.78-11.84-.08-3.9,1.37-7.76.91-11.74-.57-.68-.65-1.45-.41-2.27,4.08-4.97,7.02-10.64,9.98-16.31,1.4-2.68.94-5.5,1.07-8.29.24-5.26.92-6,6.08-6.4,1.16-.09,2.32-.03,3.46-.35,1.28-.36,1.99-1.14,1.96-2.5-.03-1.17-.75-1.83-1.78-2.11-2.53-.69-5.43-.8-5.54-4.53-.09-3.06,1.73-4.86,3.9-6.53,2.34-1.81,1.82-4.46,1.9-6.9.24-7.29,3.57-10.53,10.81-10.42.94.01,2.06.63,2.61-.59.45-1-.09-1.89-.63-2.77-3.88-6.34-3.89-6.62.82-11.63,1.19-1.27,1.41-2.71.97-4.13-1.5-4.94.25-8.71,3.95-11.88.35-.42.77-.73,1.25-.97,4.68-.33,5.63-2.97,6.5-7.44,1.57-8.02,4.79-15.72,9.28-22.72.8-1.26,2.1-2.32,2.11-3.87.06-5.67,1.25-10.82,3.77-16.11,1.76-3.69,2.52-7.65,5.93-10.48,2.87-2.38,2.65-5.94,2.53-9.28-.16-4.42,0-8.41,5.92-8.96,2.19-.2,2.69-2.11,2.5-4.19-.42-4.56-1.72-9.32,3.7-12.31,1.27-.7.74-2.79.41-4.25-1.15-5.16-.51-9.55,4.64-12.41,2.47-1.38,2.9-3.91,2.84-6.52-.07-2.92.93-5.23,3.73-6.46,3.37-1.47,4.51-4.19,4.41-7.64.04-.53.15-1.04.27-1.55.95-5.06,1.6-10.14,1.62-15.31.03-6.94,3.51-10.23,10.52-10.24.96,0,2.08.58,2.72-.48.71-1.18.12-2.31-.76-3.13-2.84-2.63-2.94-5.76-1.87-9.15.79-1.4,2.28-1.88,3.57-2.58,2.77-1.51,4.18-3.77,3.84-6.91-.45-4.12.86-7.34,4.11-10.01,4.32-3.54,5.25-9.26,8.42-13.67,4.78-6.64,9.34-13.22,16.66-17.32.29-.16.55-.37.83-.54,3.18-1.91,9.73-1.88,4.79-8.48-.44-.59.75-1.32,1.41-1.81Z"/>
  <path class="cls-13" d="m407.12,304.85v1c-3.09,4.83-7,8.65-12.52,10.7-2.54.94-2.49,3.25-2.2,5.48.64,4.81-.67,8.5-5.61,10.3-2.38.87-3.2,2.7-2.72,5.17.69,3.57.51,6.91-2.26,9.73-1.24,1.26-1.2,3.04-1.28,4.7-.12,2.52-.54,5-1.72,7.21-1.78,3.33-2.49,6.84-2.26,10.56.27,4.39-1.67,7.51-5.77,8.83-4.66,1.5-6.8,4.26-6.26,9.22.28,2.53-.35,4.95-2.29,6.85-.47.46-1.11,1.05-1.05,1.64.77,7.98-5.61,14.44-4.65,22.5.49,4.11-.45,7.64-5.51,8.43-2.39.37-2.29,2.45-2.42,4.3-.19,2.76.64,5.7-1.39,8.14-.52.41-.97.98-1.59,1.18-6.39,2.02-10.33,5.68-9.19,13.05.2,1.3-.36,2.71-1.36,3.64-2.33,2.16-2.58,4.9-2.45,7.78.15,3.52-.72,6.6-3.76,8.73-2.23,1.57-2.37,3.92-2.2,6.26.39,5.24-1.46,9.07-6.47,11.13-3.17,1.31-3.68,3.94-3.56,6.96.2,4.86-.66,9-6.56,9.96-2.33.38-1.94,2.4-1.7,4.01.95,6.46-.63,12.93.1,19.39.15,1.34-.45,2.6-1.21,3.73v2c-.83,0-1.68.11-2.49-.02-4.34-.69-6.06.96-5.57,5.45.37,3.45.13,6.97.05,10.45-.03,1.39.62,3.31-1.36,3.81-1.89.48-4.76,1.12-5.54-.66-1.12-2.57-3.93-2.88-5.06-5.06.11-4.61.78-9.19.64-13.82-.07-2.47.69-4.58,3.34-5.47,2.11-.71,2.5-2.42,2.55-4.34.15-6.1,2.88-11.88,2.26-18.08-.08-.8.36-1.6.82-2.3.58-.61,1.32-.96,2.08-1.31,5.64-2.58,9.68-5.69,9.25-13.19-.26-4.53,1.79-9.29,1.89-14.11.06-2.86,2.27-4.35,4.62-5.32,5.13-2.12,6.8-5.56,7.49-11.31.82-6.78.92-13.73,2.51-20.44.51-.7,1.21-1.13,1.99-1.45,2.91-1.41,3.19-4.11,3.04-6.79-.24-4.17,1.23-7.11,5.31-8.43,5.13-1.65,7.57-4.93,6.78-10.45-.21-1.45-.28-3.37.81-4.29,3.79-3.18,3.11-7.41,3.12-11.48,0-3.51.72-6.28,4.95-6.59,2.3-.17,2.98-1.74,3.02-3.8.05-2.65.39-5.37-.04-7.94-1.06-6.26,2.01-11.14,4.85-16.14.87-1.54,2.41-2.36,3.94-2.88,5.37-1.81,8.13-5.31,7.68-11.09.56-2.03,1.84-3.88,1.62-6.12.08-3.12-.02-6.24-.02-9.36,0-2.75.5-5.12,3.11-6.76,2.45-1.54,2.62-4.41,3.31-6.92,1.55-4.33,5.2-6.85,8.56-9.48,2.22-1.74,3.17-3.59,3.09-6.32-.1-3.45-.51-7.05,3.02-9.45,1-.68.89-2.09.95-3.25.09-1.67.11-3.41.86-4.88,2.74-5.38,4.72-10.86,4.44-17.08-.12-2.63,2.19-4.36,3.92-6.15,3.28-3.37,6.32-6.86,6.98-11.78.21-1.55,1.16-2.72,2.22-3.81,4.68-4.81,8.08-10.84,13.9-14.55.29-.4.64-.74,1.04-1.02,1.04-.57,2.2-.64,3.35-.73,3.38-.27,4.7-1.99,3.82-5.33-.96-3.6-.14-5.96,3.97-6.92,2.7-.63,4.82-2.81,6.97-4.54,3.08-2.47,1.83-7.05-2.09-8.65-1.22-.5-3.17,0-3.12-2.25,4.99,0,9.98,0,14.97-.01,2.33,0,4.66,0,6.99,0-1.43,2-.31,3.33,1.14,4.66,1.24,1.14,2.49,2.36,1.26,4.26-1.01,1.56-2.08,1.78-3.66.59-1.22-.91-2.05.53-3.01,1.05-8.35,4.53-13.91,11.53-19.03,19.44-3.39,5.24-4.37,12.29-10.93,15.57-1.78.89-.65,4.04-.69,6.15-.12,5.89-1.77,7.86-8.02,9.16-.75.71-1.66,1.18-2.67,1.2-3.37.08-4.13,2.15-3.97,5,.27,4.77-.43,8.94-5.75,10.86-2.01.73-1.42,2.57-1.16,4.29.88,5.82,3.03,11.54,1.57,17.58Z"/>
  <path class="cls-18" d="m327.23,441.6h-2c-2.03,2.96-1.46,6.37-1.63,9.64-.13,2.59-.43,5.2-3.03,6.39-3.5,1.61-4.23,4.36-3.97,7.76.31,3.97-.66,7.2-4.72,8.94-2.17.94-3.13,2.89-3.24,5.22-.34,7.33-4.67,13.77-4.49,21.32.09,3.83-4.64,4.3-6.9,6.6,1.43,7.96-2.45,15.45-2.03,23.32.08,1.53-.57,2.7-2.27,2.56-3.8-.31-3.65,2.12-3.74,4.79-.15,4.47,1.22,9.21-1.95,13.25-1.33-2.66-2.65-5.32-3.98-7.98,0-4.66,0-9.32,0-13.98,1.62-1.42,2.6-3.09,3.37-5.21,4.41-12.01,6.18-24.76,10.63-36.75,1.17-3.15.42-6.6.6-9.91.15-2.76.97-4.96,4.11-5.29,2.96-.31,3.97-2.1,3.79-4.79-.33-4.98.43-9.27,5.93-11.24,1.79-.64,1.98-2.51,2.05-4.22.08-1.99.05-3.99.08-5.98.05-2.92.85-5.22,4.14-5.89,2.75-.56,3.85-2.54,3.73-5.13-.21-4.75.65-9.15,2.92-13.4,1.16-2.17,1.12-4.83,1.18-7.33.05-2.22.48-4.23,2.24-5.85,2.57-2.37,1.67-5.58,1.7-8.49.04-3.92.3-7.47,5.42-7.81.66-.04,1.65-.37,1.71-.85.64-4.91,6.11-8.13,4.87-13.61-1.41-6.24,4.1-10.16,5.1-15.59.17-.95,1.46-1.41,2.46-1.45,4.21-.2,4.57-2.97,4.46-6.25-.15-4.69-.5-9.31,5.37-11.5,2.54-.95,2.38-4.21,2.47-6.66.13-3.65.68-6.62,4.44-8.68,2.95-1.61,3.08-5.35,3.51-8.45.37-2.68.78-5.23,2.58-7.39.98-1.18,1.36-2.65,1.47-4.17.3-4.38-.3-8.75,3.47-12.5,1.82-1.81.58-5.45.65-8.25.08-3.06.99-4.97,4.12-6.53,4.38-2.18,5.64-7.33,8.26-11.2,2.02-2.98,2.74-7.28,7.44-7.69.32.13.78.36.75.57-.96,5.94-1.14,11.95-1.85,17.91-.29,2.49-2.63,3.16-4.93,3.34-3.37.25-5.3,1.13-3.72,5.29,1.38,3.65,1.06,7.52-1.66,10.8-1.48,1.78-1.8,3.87-1.45,6.09.59,3.79-.5,6.42-4.57,7.51-3.71,1-4.85,3.65-3.82,7.29.34,2.76.04,5.63-1.84,7.55-3.28,3.32-3.13,7.08-2.5,11.11.61,3.93.37,7.33-4.42,8.57-2.28.59-2.98,2.57-2.92,4.7.13,4.49-1.08,8.2-5.4,10.36-1.25.63-1.98,1.86-2.3,3.15-.74,3.01-2.41,4.94-5.48,5.81-2.28.64-2.75,2.69-2.81,4.79-.12,3.82-.1,7.65-.04,11.47.05,3.25-.86,5.88-3.87,7.5-1.7.91-2.95,2.32-3.32,4.18-1.14,5.72-4.14,10.87-5.05,16.66-.53,3.39-2.26,6.31-4.43,8.82-2.58,2.98-3.55,6.25-3.35,10.09.12,2.3.3,4.7-1.34,6.68Z"/>
  <path class="cls-16" d="m398.14,261.92c-3.98-.53-4.52,3.77-5.28,5.38-1.79,3.77-4.83,6.73-6.23,10.64-.6,1.67-.79,4.01-3.2,3.83-4.26-.32-4.48,2.14-4.28,5.3.14,2.32.07,4.66,0,6.98-.02.97-.01,2.66-.43,2.81-5.52,1.89-3.18,6.48-3.47,10.03-.21,2.58-.57,4.85-2.58,6.73-2.99,2.81-.82,6.98-2.53,10.29-1.33,2.57-1.31,5.87-5.39,6.07-1.79.09-1.53,1.89-1.54,3.18-.04,2.65-.26,5.24-.75,7.88-.47,2.54-1.09,3.8-3.88,3.91-2.6.11-3.59,1.95-3.39,4.53.14,1.82-.09,3.67.05,5.48.33,4.18.17,7.82-5.7,6.84-.83-.14-1.99.23-1.98,1.09.11,6.17-6.63,10.49-4.46,17.33.65,2.04-1.33,4.07-2.25,5.98-2.13,4.43-3.22,8.09-9.11,8.72-1.25.13-.24,5.53-.51,8.48-.23,2.56,1.23,5.83-3.08,6.71-1.21.25-.87,1.99-.89,3.13-.11,4.76-.24,9.28-3.48,13.5-1.4,1.82-.57,5.46-.49,8.27.11,3.81-.66,6.71-5.3,6.58-2.29-.07-2.78,1.27-2.73,3.2.05,1.99-.15,4.01.04,5.98.37,3.94.02,7.13-4.95,7.83-2.47.35-3.33,2.36-3.1,4.89.18,1.98-.1,4,.07,5.98.25,2.96-.81,4.39-3.93,4.06-2.41-.25-4.51.17-4.06,3.34,1.47,10.46-4.6,19.38-5.87,29.21-1.1,8.5-6.36,15.75-6.34,24.4-1.63.64-1.95-2.77-3.78-1.08,0-1.33-.01-2.66-.02-3.99,1.2-2.33.57-4.66,0-6.99-1.83-3.9-.71-8.02-.89-12.05.85-.76-.24-2.71,1.36-2.78,1.47-.06,1.7,1.56,1.7,2.62-.02,4.11,1.39,8.09,1.35,11.58.73-2.22-1.41-4.93-.86-7.67,2.02-10.07.93-20.48,3.49-30.47.5-1.97.32-3.96.48-5.95.13-3.28,1.8-6.37,1-9.8-.25-1.06.43-2.5,1.25-3.17,7.21-5.86,5.66-13.99,5.7-21.67.02-3.69.63-6.66,5.16-6.95,2.06-.13,2.74-1.59,2.81-3.46.09-2.66,0-5.32.08-7.98.11-4.18,1.17-7.9,4.98-10.29,2.6-1.63,3.2-4.19,2.95-6.95-.46-5.04,1.18-8.77,6.08-10.77,2.33-.95,3.5-2.8,4.2-5.21,2.71-9.36,4.39-19.07,9.2-27.76.81-1.46.49-3.26.62-4.92.18-2.35.42-4.92,2.16-6.5,3.92-3.54,4.54-9.21,8.71-12.62,1.89-1.54,1.01-4.41,1-6.7,0-4,.97-7.25,5.32-8.49,2.89-.83,3.51-3.22,2.82-5.56-1.96-6.66,3.72-10.96,4.79-16.65.15-.8,1.07-1.35,1.87-1.52,5.17-1.15,5.57-4.9,5.23-9.2-.23-2.92.52-5.36,2.9-7.54,2.94-2.7,4.15-6.74,6.53-9.96,2.2-2.99,5.35-4.98,7.5-7.97.84-1.18,2.27-1.27,3.65-1.02,4.76,1.77,6.48-1.64,7.52-4.98,1.14-3.67,2.65-6.73,6.24-8.45.29-.14.65-.37.74-.64,3.01-8.83,11.1-14.23,15.05-22.39,1.34-2.77,3.09-5.28,6.15-4.85,3.08.43,1.91,3.7,2.23,5.84.12.81,0,1.66.67,2.43,1.81.13,1.86-2.12,3.27-2.56,3.95-.48,4.11,1.57,2.82,4.37-.83,1.8-2.56,2.85-4,4.13-.63.59-1.36.9-2.23.85-7.49-.35-9.72,2.42-12.94,8.9-3.34,6.73-6.89,13.89-13.79,18.19Z"/>
  <path class="cls-11" d="m387.15,261.92c-4.86-.2-6.13,4.57-8.99,6.96-2.29,1.91-4.15,4.94-5.52,8.06-.82,1.87-1.42,4.28-4.29,5.55-2.64,1.17-1.52,5.31-.99,7.78,1.02,4.72-1.44,6.49-5.06,7.3-2.52.56-3.33,1.65-3.13,4.03.16,2.02-.1,3.42-2.53,4.61-3.07,1.5-1.38,5.11-1.29,7.71.14,4.01,1.56,8.09-4.94,8.15-2.14.02-3.22,2.11-3.2,4.39.02,2.16-.02,4.32,0,6.49.01,2.31-1.75,3.68-2.63,5.31-2.94,5.49-8.96,9.61-9.16,16.14-.17,5.95-2.75,10.62-5.33,15.47-1.63,3.06-1.42,6.59-2.39,9.83-.92,3.1-2.3,6.37-2.57,9.81-.26,3.21-3.17,3.85-5.58,4.88-3.18,1.37-4.88,3.51-4.37,7.29.62,4.62.27,8.76-5.13,10.97-2.34.96-2.57,4.12-2.75,6.6-.18,2.48-.14,4.99-.03,7.48.19,4.01.46,7.88-5.58,6.97-1.99-.3-2.44,1.25-2.42,2.94.02,2,.02,3.99,0,5.99-.08,6.32,1.41,12.97-5.22,17.6-1.12.78-3.15,3.54-1.16,6.49,1.45,2.15-2.67,4.1-1.61,6.83-2.47,1.95-3.34-.8-4.91-1.76-1.36,1.98-.5,4.2-.85,6.23-.34,2-.03,4.49-3.2,4.5-.01-2.66-.02-5.32-.03-7.97.01-6.32.02-12.63.03-18.95.91-.56,1.99.27,2.87-.34.57-.39,1.01-1.53.7-1.62-6.23-1.84-2.17-6.29-2.51-9.6.56-.35,1.08-.75,1.82-.41,4.87,2.24,6.39,1.43,6.64-3.9.15-3.07.46-5.81,3.03-8.03,1.44-1.25.98-3.41,1.01-5.22.02-1.49.24-3.01,0-4.47-1.28-7.9,1.95-13.04,9.41-15.61,2.71-.93,2.51-3.16,2.57-5.31.11-3.92-.66-8.16,4.61-9.76,1.37-.42.9-1.86.39-3-2.41-5.26-1.77-9.09,3.1-11.31,4.98-2.28,5.61-5.74,6.14-10.59.77-7,1.84-14.05,3.69-20.92q.14-8.01,5.56-8.78c3.84-.03,5.97-1.78,6.96-5.66,1.26-4.96,2.75-9.85,3.61-14.91.11-.65-.04-1.49.37-1.93,4.14-4.43,3.33-10.12,4-15.43.17-.48.44-.9.8-1.26,2.78-.8,4.54-2.19,5.74-5.24,1.39-3.52,5.44-5.76,5.71-10.11.25-.43.57-.79.96-1.09,2.92-2.61,6.36-4.83,6.65-9.33.04-.66.27-1.42.78-1.78,6.07-4.26,7.71-11.45,11.5-17.22.47-.71.92-1.49,1.69-1.74,5.53-1.84,7.4-6.74,9.61-11.36,2.3-4.81,4.49-9.68,10.34-11.26.82-.22,1.54-.96,1.49-1.81-.22-4.06,3.21-5.9,5.11-8.66,3.79-1.56,3.06-6.4,6.12-8.49,3.25-3.02,7.03-4.32,11.45-3.54.67,2.26-.16,4-2.19,4.94-2.14.99-3.72,2.72-4.2,4.68-1.15,4.69-4.95,8.11-5.78,12.89-.21,1.2-1.07,2-1.91,2.83-2.92,2.9-6.24,5.46-7.85,9.47-.6,1.48-2.01,2.08-3.5,2.53-4.1,1.26-6.5,3.92-6.35,8.37.15,4.47-3.17,7.08-5.33,10.32Z"/>
  <path class="cls-2" d="m282.33,482.51c3.58-2.39,1.4-6.02,1.93-9.07.27-1.56-.44-3.74,1.48-4.32,2.42-.73,2.28,1.6,2.71,3.09.43,1.51,1.73,1.22,2.84,1.32-1.11,8.55-1.05,17.36-2.53,25.65-1.36,7.59-.37,15.22-2.42,22.68,1.64-6.08-4.01-11.15-1.74-17.21-1.78-.26-1.18,1.6-2.2,1.76-.02-7.97-.05-15.93-.07-23.9Z"/>
  <path class="cls-18" d="m283.29,518.45c.48,2.33,3.25,4.66,0,6.99,0-2.33,0-4.66,0-6.99Z"/>
  <path class="cls-45" d="m431.22,429.89c.15-1.7-1.01-4.44,2.66-3.35-.32,1.57-1.39,2.54-2.66,3.35Z"/>
  <path class="cls-67" d="m345.21,206.03c1.33.67,2.66,1.33,4,2,1.64,6.9-4.88,6.36-8.1,8.83,3.45,4.07,2.85,5.56-2,7.31-2.96,1.07-6.46,1.85-6.05,6.83.42,5.14-4.64,7.51-7.61,10.74-.94,1.02-1.92,1.8-2.52,3.18-1.72,3.95-6.2,6.24-6.71,10.97-.01.13-.22.32-.35.33-6.2.5-8.53,5.31-11.34,9.8-.62,1-1.43,1.84-1.22,2.94.71,3.68-1.84,6.52-2.55,9.85-.7,3.28-4.16,3.65-7.44,2.64-3.81-1.17-6.18-.14-6.08,4.37.04,1.68.63,4.25-2.29,3.88-2.27-.29-4.53-1.48-4.62-4.33-.12-3.81-.04-7.63-.04-11.45,3.27-.97,6.7.03,10.05-1.11,2.18-.74,3.18-1.53,3.77-3.8,1.2-4.62,2.09-9.32,3.6-13.89.89-2.7,2.15-4.06,5.06-4.53,7.1-1.16,8.22-2.32,9.18-9.39.4-2.96,2.12-4.32,4.5-5.33,4-1.71,7.15-4.11,7.94-8.76.25-1.5,1.57-2.48,2.48-3.66,2.91-3.79,6.83-6.77,8.93-11.22.94-1.99,3.02-2.45,4.7-3.43,1.3-1.38,3.04-2.02,4.71-2.76Z"/>
  <path class="cls-42" d="m391.14,205.03c.67,0,1.34,0,2.01.01-1.51,3.74-4.83,1.88-7.38,2.4-3.96.04-7.96-.54-12.62.85,2.92,1.72,3.52,3.89,2.15,6.51-1.23,2.35-1.75,5.96-3.85,6.79-5.19,2.04-6.25,7.63-10.27,10.39-6.1,4.18-10.23,10.31-14.95,15.69-4.06,4.63-8.23,9.8-9.96,16.18-.88,3.25-3.91,4.82-5.98,7.13-2.5,2.8-5.8,4.96-6.16,9.27-.16,1.93-1.86,2.67-3.63,2.8-2.46.18-4.99.59-7.25-.94-.32-.39-.82-1.01-.63-1.29,2.79-4.02,2.36-9.9,7.72-12.51,2.99-1.45,4.53-4.26,5.99-7.5,2.72-6.06,4.72-13.29,12.87-14.85-.05-1.46-.02-2.82-1.06-4.17-1.66-2.16-.92-3.15,1.83-3.93,3.85-1.09,6.79-3.93,7.09-8.08.22-3.14,1.36-4.1,4.21-3.78,2.57.29,4.14-.49,3.96-3.47-.14-2.31,1.81-3.41,3.22-4.7,3.4-3.09,3.88-6.28.73-9.8.39-.29.76-.8,1.17-.85,10.23-1.09,20.4-3.17,30.78-2.14Z"/>
  <path class="cls-4" d="m341.21,209.02c-.06.66.06,1.79-.22,1.9-7.44,2.89-11.13,10.16-14.6,15.91-3.19,5.29-6.17,9.07-11.62,11.24-2.18.87-1.41,2.75-1.51,4.28-.37,5.88-2.31,9.37-7.91,9.25-7.74-.16-7.06,5.64-7.82,9.64-.69,3.64-3.3,6.87-2.41,10.87.24,1.08-.9,1.77-2,1.71-4.28-.23-8.54,3.21-12.83.08,0-.67,0-1.33,0-2,0-2,0-3.99,0-5.99,4.2,1.65,7.31,1.53,7.1-4.25-.05-1.31,1.07-2.36,1.99-2.68,3.37-1.18,4.35-3.42,3.95-6.77-.17-1.45.53-2.27,2.11-1.16.3.21,1.25.13,1.28.03,1.12-4.8,4.67-5.24,8.77-5.33,2.11-.05,1.78-1.83,1.13-3.4-1.68-4.05.03-7.45,4.2-8.39,2.53-.57,4.28-1.92,4.35-4.6.06-2.16.52-3.61,3.06-3.37,4.17-7.08,9.36-13.53,12.98-20.95.67,0,1.33,0,2,0,1.89,2.87,5.63,2.05,7.99,3.98Z"/>
  <path class="cls-29" d="m339.22,245.95c.03,1.81-1.53,1.85-2.66,2.43-3.05,1.56-6.51,2.86-5.37,7.45-5.32,3.7-3.42,13.52-12.16,14.36-.41.04-1.15.63-1.11.86.8,4.65-4.18,6.78-4.67,10.84-.14.19-.28.38-.42.57-3.78,1.63-4.85,4.62-4.22,8.46-.05,2.4.42,4.89-1.35,6.95h0c-3.93,2.98-2.83,8.25-5.51,11.96-1.77,2.44-2.93,4.69-6.17,5.83-3.92,1.39-6.23,5.32-9.33,8.04-1.7,1.49-3.17,3.64-5.95,2.11,0,0,0,0,0,0v-11.98c4.26.35,7.02-1.08,7.06-5.84,0-1.09.57-2.17,1.69-1.99,7.26,1.19,6.38-3.73,6.23-8.13,1.26-.15,3.69.21,3.49-.87-.81-4.5,2.95-6.66,4.18-9.94,1.29-3.45,3.69-5.22,6.13-7.13,1.58-1.24,3.92-2.26,3.91-4.15-.01-5.51,3.47-8.02,7.56-10.36.8-.45,1.76-1.48,1.79-2.27.2-4.53,4.41-6.95,5.5-11.43.91-3.75,5.75-7.39,11.38-5.77Z"/>
  <path class="cls-12" d="m397.13,205.05c2.67,0,5.33,0,8-.01,1.17,1.62,3.15,2.74,3.17,5.09-1.31,1.28-2.16,2.86-2.88,4.53-1.18,2.2-2.8,3.64-5.06,5.04-2.97,1.83-4.03,5.78-5.87,8.83-1.71,2.83-3.13,5.7-5.71,7.96-2.28,2.01-4.18,4.25-4.84,7.72-.6,3.15-3.57,5.57-6.68,6.74-2.55.97-3.58,2.72-5.11,4.75-3.99,5.28-5.85,12.38-12.53,15.47-1.91.46-2.79,1.93-2.94,3.63-.62,7.22-6.75,9.26-11.69,12.11-2.13,1.23-4.08,1.99-4.54,4.62-.3,1.7-1.36,2.96-2.48,4.22-5.31,5.96-9.87,12.27-9.5,20.84.04.99-.03,2.31-.78,2.81-4.6,3.04-4.42,9.67-9.53,12.39-1.76.94-1.8,3.24-1.49,5,1.15,6.63-2.58,11.34-6.14,16.08-3.16,4.21-3.16,8.64.33,12.43,1.86,2.02,1.26,4.23-.86,4.81-6.58,1.8-6.92,8.12-8.99,12.65-2.49,5.46-3.81,11.51-6.55,17-1.05,2.11-2.34,3.08-4.58,2.98-2.04-.09-3.7-1.03-4.04-3.05-.43-2.55-1.92-5.02-.93-7.75.89-.92,1.85-.33,2.76-.09,2.42.64,3.59-.26,4.31-2.68,1.87-6.37,2.18-12.97,3.31-19.45,0-.67,0-1.33,0-2,.97-.67.97-1.33,0-2,0-.66,0-1.33,0-1.99,2.24-2.6,3.62-5.5,2.99-9.04-.93-5.22,1.17-8.56,6.19-10.18.94-.3,1.74-.96,2.58-1.49,2.66-1.01,2.64-3.34,2.81-5.61.2-2.69-.47-5.52,1.2-7.99,2.53-1.7,2.77-4.24,2.81-7,.04-2.91-.72-6.01,1.39-8.61,4.42-.91,7.08-3.57,7.99-7.99.84-.79,2.04-1.46,2.17-2.64.66-6.12,4.52-10.41,7.94-15.1,2.28-3.15,4.49-6.06,7.98-7.9,2.83-1.49,4.33-3.89,4.65-7.15.59-6.13,4.88-10.71,8.66-14.51,2.87-2.89,7.73-3.69,8.84-8.85.27-1.27,2.66-1.79,4.16-2.46,3.42-1.52,6.58-3.06,6.61-7.63.02-2.42,3.15-2.8,3.9-4.9.22-.44.52-.85.71-1.3,1.96-4.77,4.37-7.23,8.49-10.19,3.99-2.87,5.43-7.65,5.6-12.08.14-3.55,1.22-5.13,4.2-6.09Z"/>
  <path class="cls-15" d="m285.29,391.69c-.14,2.77,2.21,4.92,1.68,7.95-.27,1.52,1.72,2.12,3.4,2.03,1.41-.08,2.84-.19,2.82-2.01-.06-4.89,5.04-7.65,4.83-12.87-.22-5.37,5.09-9.1,5.64-14.55.22-2.21,2.18-2.63,4.2-2.55,1.63.06,3.13-.46,3.17-2.37.03-1.64-1.44-1.47-2.58-1.6-2.57-.31-3.92-1.35-1.89-3.83,1.86-2.27-.83-4.71.61-7.16,1.51-2.57,3.4-5.82,5.05-7.16,3.73-3.05,2.84-6.33,3.02-9.77.19-3.53-.89-7.44,4.47-8.5,2.58-.51.76-4,2.55-5.52,4.57-3.89,5.91-8.92,5.03-14.73-.22-1.43,1.44-2.18,1.87-3.15,2.33-5.35,7.27-8.96,9.62-13.89,1.62-3.41,2.84-4.77,6.21-6.64,4.06-2.26,10.74-3.91,10.28-11.17-.16-2.49,1.41-3.96,3.93-4.3,2.25,3.99,2.25,7.99,0,11.98-1.48,1.14-2.46,2.6-2.92,4.42-.34,1.31-.97,2.85-2.13,3.16-4.44,1.17-5.72,4.7-6.93,8.39-.75.72-1.66,1.18-2.67,1.22-2.95.13-4.09,1.69-3.94,4.53.24,4.55-1.16,8.46-4.57,11.64-2.1,1.96-1.05,4.22-.32,6.48,1.96,6.07.88,8.1-5.41,10.02.47,1.93,3.09,3.78.93,6.03-6.46.1-3.19,5.06-4,7.98-3.96,6.28-9.59,11.66-10.5,19.59-.56,4.86-4.26,8.34-5.94,12.78-.71,1.89-1.8,3.64-2.29,5.77-1.71,7.42-3.91,14.73-6.18,22-1.04,3.32-4.3,3.85-6.99,5.04-3.17.81-2.43,3.48-2.56,5.61-.31,5.36.4,10.75-.65,16.09-2.37,3-4.41,2.22-6.27-.54,1.31-7.87-2.35-14.97-3.54-22.45,1.45-6.6.93-13.3.99-19.97,2.08-.75,2.75-.08,1.99,2Z"/>
  <path class="cls-43" d="m307.26,297.86c0-2.66,0-5.32,0-7.99,3.26-1.72,2.49-6.45,5.99-7.99,2.32,0,4.65-.06,6.97,0,2.07.06,3.36-.83,2.96-2.91-.95-4.89,4.16-5.76,5.81-8.92.34-.64,1.55-1.38,2.34-2.04,2.86-2.39,4.72-4.99,4.13-8.87,4.56-.44,2.32-6.97,6.74-7.53.18-6.21,7.58-6.84,9.25-12.15,1.4-4.47,6.51-5.84,9.54-9.12,1.42-1.54,2.34-3.35,3.45-4.93,1.24-1.76,1.63-3.72,4.47-3.56,1.51.08,6.56-8.86,6.07-10.35-.88-2.67-3.68-.67-5.4-2.33,4.5-4.75,10.31-2.74,15.57-3.16.22.45.43.92.84,1.21,1.93,1.37,5.82.6,5.29,4.62-.21,1.58-7.08,6.56-8.68,6.29-2.68-.46-3.46,1.04-4.18,3.14-1.54,4.49-4.18,8.54-5.3,13.21-2.93,2.66-5.67,5.16-10.24,5.14-3.49-.01-1.76,4.07-3.03,6-3.35,3.87-7.77,7.01-8.48,12.65-.77.85-2.1,1.4-2.26,2.55-.57,4.07-2.33,6.72-6.86,6.73-.84,0-1.59.71-1.87,1.47-2.76,7.27-8.71,12.27-13.1,18.38-2.32,3.23-2.07,7.21-4.06,10.43-5.33,0-10.65,0-15.98,0Z"/>
  <path class="cls-6" d="m359.19,245.95c0-1.81.01-3.62.02-5.43,0-1.54.64-2.44,2.32-2.54,3.34-.2,7.32,1.14,8.83-3.7.11-.36,1.84-.23,2.81-.32,2.32-1.62,4.28-1.07,5.99,1-.02,1.36-.03,2.75-1.85,2.98-1.36.17-2.33.91-2.07,2.25,1.07,5.45-3.07,6.27-6.59,7.94-2.93,1.39-6.51,2.41-5.58,7.2.52,2.67-1.86,2.64-3.71,2.58-3.73-.12-6.1,1.35-6.16,5.35-.04,3.22-4.65,2.7-4.78,6.16-.04,1.12-1.37,2.51-1.21,4.05.45,4.43-2.83,6.17-5.73,8.4-6.91,5.31-12.77,11.59-14.13,20.59-.45,3.02-1.66,3.58-4.12,3.37,0-2.66,0-5.32,0-7.99-.92-6.54,2.5-11.28,6.54-15.77,3.59-3.98,7.18-8.09,9.01-13.15.97-2.69,2.34-3.29,4.72-3.02,2.82.31,3.98-.93,3.71-3.73-.27-2.86.9-4.48,3.98-4.26,5.82-1.89,6.68-7.08,7.99-11.98Z"/>
  <path class="cls-33" d="m280.3,325.81c5.11-1.05,7.33-5.72,10.84-8.76,1.73-1.49,2.94-3.53,5.67-3.26,1.62.16,2.09-.89,2.56-2.33,1.28-3.92,4.59-7.03,4.08-11.75-.25-2.35,2.29-1.66,3.81-1.85,1.28,5.08-.67,10.53-2.67,14.06-2.11,3.7-5.73,8.34-11.01,9.82-7.14,1.99-7.56,3.01-4.38,9.72.26.55.42,1.15.61,1.68,2.09.01.88-2.5,2.46-2.69,1.68,4.56,1.6,4.38-2.46,6.09-2.16.91-2.84,3.07-2.55,5.44.34,2.69-.7,3.86-3.6,3.87-3.16,0-3.44-1.67-3.4-4.12.08-5.31.02-10.61.02-15.92Z"/>
  <path class="cls-62" d="m285.29,391.69c-.03-1.3-.7-1.96-1.99-2-1.83-6.79-.28-13.56.11-20.34.05-.95.66-1.51,1.67-1.35.78.12,1.24.79,1.01,1.43-1.08,2.94.48,3.9,2.99,4.26,2.44.35,4.25-.15,4.6-3.05.04-.36,1.05-.6,1.61-.9,1.75.19,2.4,1.36,1.73,2.77-2.66,5.64-1.85,11.97-3.69,17.77-.41,1.29-.44,2.71-1.89,3.14-2.34.7-4.54.42-6.15-1.73Z"/>
  <path class="cls-6" d="m307.26,343.77c-.16.46-.24,1.29-.49,1.34-7.09,1.55-8.51,6.32-7.54,12.7.46,2.99-.99,5.05-3.95,5.93,1.56-5.15,2.55-10.36,2.04-15.78-.1-1.08.47-2.13,1.37-2.47,6.01-2.26,4.68-7.34,4.51-11.83-.11-3.12,1.13-4.23,4.05-3.86.21.23.41.45.63.67,1.08,4.49,1.75,8.97-.63,13.3Z"/>
  <path class="cls-6" d="m315.25,313.83c0,4.07-.16,8.15.05,12.2.17,3.13-1.22,4.1-4.05,3.77-1.33,1.06-2.66,1.06-3.99,0,.34-3.27-1.56-7.36,3.49-8.92.46-.14.57-2.13.47-3.22-.31-3.12,1.14-4.19,4.04-3.83Z"/>
  <path class="cls-56" d="m282.31,409.66c.63,5.41,5.73,9.29,5.08,15.24-.25,2.27-.59,4.49-1.09,6.71-.1,1.57.46,3.52-1.5,4.26-1.93.73-1.73-1.41-2.49-2.26,0-6.99,0-13.98,0-20.96,0-1,0-1.99.01-2.99Z"/>
  <path class="cls-6" d="m323.24,305.84c-.12,9.12,1.13,7.87-7.99,7.99.12-9.12-1.13-7.87,7.99-7.99Z"/>
  <path class="cls-62" d="m295.28,365.73c1.16.25,2.64-.59,3.47,1-.83,1.59-2.31.75-3.47,1,0-.67,0-1.33,0-2Z"/>
  <path class="cls-24" d="m307.26,225.99c-.11,3.58-.86,6.79-4.76,8.15-1.07.37-1.42,1.33-1.89,2.18-.4.72-.88,1.46-1.05,2.24-.95,4.44-5.33,2.37-7.59,4.1-2.27,1.74,1.27,5.74-2.98,7.49-5.83,2.41-8.63,1.08-8.68-5.21,0-.99,0-1.99,0-2.98,2.09-.21,4.25.47,6.3-.51.19-2.13-2.23-.98-2.73-2.45,2.78-2.12,5.36-4.6,7.52-7.49,1.83-2.44,3.15-2.1,3.93.76.31,1.14,1.01,1.65,2.16,1.55,1.2-.1,1.88-.92,1.71-1.99-1.23-7.42,4.06-5.73,8.07-5.85Z"/>
  <path class="cls-64" d="m299.27,205.03c3.99,0,7.99,0,11.98,0,.99,1.33,1.21,2.66,0,3.99-8.24,1.7-16.63-.55-24.89.92-.78.14-1.72.08-2.42-.24-1.14-.53-2.89-.26-3.33-1.77-.66-2.24,2.18-1.55,2.68-2.9,3.98.5,8.14-1.09,11.99.99,1.86,1.8,3.02.76,3.99-.99Z"/>
  <path class="cls-24" d="m319.25,215.01c-1.75.55-3.51.31-3.53,3.48-.03,5-3.41,7.47-8.45,7.5-.5-3.32.31-6.16,3.19-8.14,2.85-1.95,3.06-4.8,2.8-7.83,2.09-1.79,4.34-1.53,6.65-.51,1.55,2.04.76,3.81-.66,5.5Z"/>
  <path class="cls-41" d="m320.24,210.02c-2.33,0-4.66,0-6.99,0-.82-.02-1.57-.19-2-1v-3.99c5.33,0,10.65,0,15.98,0,1.27,1.95.94,3.84-.78,5.13-1.95,1.46-4.18,1.54-6.21-.14Z"/>
  <path class="cls-61" d="m320.24,210.02c3.73.3,7.33.42,6.99-4.99,1.33,0,2.66,0,3.99,0,.6,2.57-.49,4.16-1.92,6.46-2.56,4.14-6.17,7.67-7.92,12.24-.68,1.78-1.5,2.32-3.15,2.25,0-3.69,1.62-7.23,1-10.98-.11-1.75.05-3.45,1-4.99Z"/>
  <path class="cls-21" d="m423.1,393.68c1.16-3.19,1.05-6.51,1-9.82-.03-1.83-.35-4.07,1.47-4.99,5.16-2.62,5.75-7.22,6.13-12.19.14-1.85.45-3.82,2.45-5.17,1.94-1.31,2.1-3.43,1.49-5.81-1.11-4.28-1.44-8.03,4.67-9.31,4.4-.92,3.31-5.68,3.61-8.81.35-3.68.09-6.92,5.04-7.36,1.99-.18,2.03-2.18,2.16-3.94.3-4.18,2.89-7.54,4.38-11.29.2-.51,1.03-.78,1.57-1.16.27,3.46-.34,6.91.58,10.4.69,2.63-.4,4.87-3.47,5.57-4.22.96-4.01,3.93-2.01,6.34,3.11,3.74,2.05,6.73-.7,9.66-1.57,1.67-2.86,3.35-2.36,5.7,1.01,4.71-1.46,7.66-5.13,9.62-3.35,1.79-4.65,4.43-3.82,7.77,1.78,7.15-5.84,9.02-7.6,14.15-.23.67-1.2.29-1.7-.17-4.62-4.23-3.67.12-3.72,2.49-.16,6.79-.11,6.79-4.02,8.34Z"/>
  <path class="cls-21" d="m411.12,417.64c.4-3.84-.1-8.23,5.92-8.1,2.45.05,1.9-2.12,2.08-3.67.45-3.76-1.39-7.94,1.99-11.19.04,3.56.28,6.86,1.86,10.39,1.64,3.64-.84,7.78-2.44,11.39-1.37,3.11-4.1,1.66-6.46,1.23-.96-.17-1.97-.05-2.95-.05Z"/>
  <path class="cls-53" d="m355.2,471.54c-.06-2.7.77-5.78-3.06-6.84-.34-.09-.59-.77-.76-1.22-1.19-3.13,4.83-13.53,8.2-13.87,4.81-.5,3.82-3.75,3.18-6.6-.42-1.89-1.78-3.54-1.57-5.65.15-1.49.04-3.3,2.08-3.3,1.69,0,1.81,1.59,1.93,2.95.05.61.23,1.22.44,2.22,2.41-2.14,1.27-4.59,1.53-6.71.21-1.77-.71-4.36,1-5.12,7.09-3.13,5.95-10.67,9.14-15.82,2-3.23,1.83-6.51,1.86-9.92,1.16,0,2.33-.03,3.49,0,2.06.07,4.64-.6,4.49,2.91-.11,2.7.83,6.04-3.69,6.08-2.27.02-3.28,1.24-3.28,3.46,0,2.2.97,3.5,3.24,3.49,3.14-.01,2.85,2.19,2.67,4.16-.22,2.29-1.55,3.26-3.8,2.38-2.14-.83-3.02.89-4.1,2-1.85,1.9-3.69,3.73-6.5,3.88.2,1.85,1.43,1.37,2.31,1.59,3.61.92,5.46,5.08,3.38,8.07-2.13,3.06-5.25,5.37-6.69,9.02-.49,1.25-2.05.88-3.16.83-2.6-.12-4.47.15-4.43,3.61.04,3.14.76,5.39,4.23,5.32,3.53-.07,4.54,1.47,3.5,4.57-.63,1.88-.28,3.59,1.42,4.2,4.26,1.52,4.04,2.83.3,4.78-1.06.55-1.71,1.88-3.17,3.58.6-4.77-4.54-5.33-4.77-9.24-.07-1.19-2.3-.81-3.58-.72-1.52.11-1.89,1.27-1.79,2.5.27,3.13-1.56,3.61-4.04,3.39Z"/>
  <path class="cls-57" d="m363.18,483.64c0-.84-.02-1.17,0-1.5.14-1.9-.64-4.16,1.67-5.27,1.35-.65,2.81.05,3.56,1.07,1.37,1.86,1.33,4.38.23,6.08-1.12,1.73-2.03,5-4.37,4.48-2.15-.48-.57-3.53-1.1-4.85Z"/>
  <path class="cls-13" d="m325.24,521.45c-3.62-1.5-1.75-4.29-1.46-6.64.05-.38.98-.85,1.54-.9.92-.08,1.59.69,1.67,1.49.19,2.05.99,4.23-.76,6.05h-1Z"/>
  <path class="cls-9" d="m282.3,433.61c3.8,4.26,2.4-1.85,3.99-2,1.47,1.32,2.81,3.28,4.99,1,1.17-5.41,2.59-10.78,2.6-16.38,0-2.27-.3-4.65,1.4-6.58,6.3-1.68,7.32-6.99,7.88-12.21.34-3.17,1.93-5.85,2.74-8.78.65-2.35,1.29-4.61,1.38-7.05.06-1.6-.4-3.5,1.99-3.9,2.06-.35,1.98-1.9,1.99-3.41.02-2.13-.42-4.44,2.78-4.87,1.19-.16,1.33-1.49,1.17-2.44-.67-4.08,3.07-7.27,2.19-11.42-.24-1.14.93-1.5,1.94-1.85,2.36-.82,4.02-2.34,3.9-5.06-.14-3.09,1.95-2.93,4.01-2.89-1.82,9.08-4.21,18.07-4.02,27.44.07,3.31-3.29,3.29-4.93,3.94-3.19,1.26-4.37,3.48-5.82,6.15-1.05,1.93-.74,2.72.98,3.33,2.78.99,1.74,3.28,1.7,5.07-.05,2.35-1.7,1.75-3.25,1.45-2.07-.4-2.53,1.14-2.6,2.73-.09,2.15-.09,4.31-.02,6.46.09,2.93.28,5.24-4.08,5.58-4.31.34-7.91,5.88-7.91,10.31,0,3.32.05,6.63-.02,9.95-.04,2.34.63,4.6-2.8,5.95-2.51.99-1.07,4.49-1.1,6.83-.03,2.54-.45,4.2-3.07,5.4-2.67,1.22-4.62,2.36-5.26-1.76-.01-.09-1.13,0-1.74,0-.7-.48-.32-1.5-.99-2,0-2.99,0-5.99,0-8.98Z"/>
  <path class="cls-56" d="m282.31,442.6c.8.43.97,1.18.99,2,.31,2.7-.72,5.57.72,8.1,2.07.11.55-2.71,2.86-2.42.51,2.25,1.27,4.86-.47,6.75-1.52,1.65-2.87-.41-4.08-1.43,0-4.33-.01-8.66-.02-12.99Z"/>
  <path class="cls-51" d="m341.21,209.02c-3.09-.46-7.41,1.53-7.99-3.98.66,0,1.33-.01,1.99-.02,2.34,0,4.67.02,7.01.03.72,1.16,1.89.94,2.98.98-1.27,1.07-2.07,2.79-3.99,2.99Z"/>
  <path class="cls-41" d="m299.27,205.03c-.07,1.28.13,2.72-1.75,2.9-1.4.14-2.12-.54-2.24-1.91,1.45.16,2.75-.32,3.99-.99Z"/>
  <path class="cls-35" d="m427.1,233.97c0-2.12,1.81-3.04,2.9-4.45,1.97-2.55.92-3.53-1.9-3.54-3.04-1.32-1.98-2.98-.4-4.71,2.45-2.68,5.4-4.76,8.28-6.94.91-.69,2.76-1.24,1.86-2.94-.62-1.15-2.01-.73-3.17-.67-3.51.19-7.09.42-8.08-4.25.22-.79.97-1.02,1.52-1.45,3.99,0,7.99,0,11.98,0,.67.94,1.7,1.17,2.67.95,5.09-1.16,4.73,3.85,5.79,6.04.89,1.85-.75,5.12-4.09,6.14-2.99.92-4.59,4.53-8.46,4.34-1.16-.06-1.03,2.28-.82,3.53,1.23,7.45.87,7.93-6.58,7.93-.5,0-1,0-1.5,0Z"/>
  <path class="cls-68" d="m428.11,205.04c-.34.33-.67.66-1.01.99-1,.79-2,.85-3,0-4.19-.13-7.39,2.47-10.98,3.99-1.67,1.19-3.33,1.53-5,0-1.43-1.4-3.55-2.38-2.99-4.98,5.99,0,11.98-.01,17.96-.02,1.67,0,3.34.02,5.01.02Z"/>
  <path class="cls-31" d="m379.16,234.97c-2-.33-3.88-1.35-5.99-1-.03-3.44-.56-6.99,2.86-9.46,1.35-.97.94-2.69,1.2-4.14.43-2.48,2.01-4.9,4.5-3.98,2.48.91,2.5-.45,4.01-1.38,6.08-3.77,6.67-5.3-1.11-6.52-2.16-.34.44-1.58.52-2.47,2.65-.44,5.53.98,8-.99,1.33,0,2.66,0,3.98,0-1.7,1.77-3.07,2.95-2.47,6.36.67,3.81-3.05,7.5-4.15,11.6-.34,1.29-3.71,3-6.26,2.93-2.86-.07-3.31,1.59-3.08,3.81.23,2.12-.31,3.87-2.02,5.21Z"/>
  <path class="cls-13" d="m347.21,439.6c0-2.33.09-4.66-.02-6.98-.19-3.95-.68-7.85,5.46-7.17,2.04.23,2.54-1.75,2.54-3.57,0-2.33,0-4.66.01-6.98.02-2.76-.47-5.54,2.44-7.59,1.44-1.01,1.51-3.17,1.59-5.07.14-3.54-1.29-7.39,3.23-9.93,1.81-1.02.96-4.45.62-6.65-.7-4.6,1.68-6.89,5.51-7.78,5.11-1.19,7.2-4,6.61-9.19-.38-3.3-.08-6.47,2.06-9.46,1.51-2.11,2-4.85,1.93-7.6-.07-2.52-.58-4.95,2.72-6.64,2.39-1.23,1.48-4.54.79-6.89-1.02-3.48-1.14-5.97,3.34-6.95,5.55-1.22,6.04-5.74,4.84-10.06-.96-3.47-.11-4.83,3.05-5.83,1.84-.58,3.41-1.99,5.22-2.75,2.21-.94,4.14-1.7,4.12-4.77-.02-2.52,2.34-1.67,3.85-1.88.56,4.1-.2,7.64-4.65,9.05-3.28,1.04-3.7,3.33-3.33,6.18.43,3.33-.62,5.83-3.86,7.25-4.62,2.03-4.64,5.84-3.81,10.01.64,3.21,2.44,6.34-3.04,8.01-2.88.88-1.35,5.41-1.04,8.18.69,6.13.7,6.64-5.2,7.15-2.93.25-2.83,1.85-3.07,3.97-.48,4.14,1.84,8.82-1.79,12.37-3.58,3.5-4.72,8.15-6.89,12.17-2.94,5.45-2.09,10.65-3.56,15.72-1.1,3.79-5.28,6.64-6.08,10.79-1.04,5.41-5.38,9.53-5.55,15.13-.24,7.77-.15,7.78-8.02,7.78Z"/>
  <path class="cls-13" d="m307.26,535.42c-1.33-8.47,1.26-17.05-.85-25.52-.54-2.17.91-3.61,3.17-3.32,4.68.59,5.71-2.08,5.67-5.9-.01-1.16.22-2.37-.04-3.47-.98-4.13,1.37-6.26,4.7-7.37,4.18-1.39,5.64-4.06,5.38-8.28-.24-3.85-.88-7.83,4.11-9.87,2.47-1.01,1.71-4,1.86-6.29.21-3.2-1.41-6.94,3.1-8.91,1.55-.68.83-3.04.85-4.66.11-7.94,3.65-11.58,12-12.24-.06.66.12,1.73-.21,1.92-5.24,3.04-3.66,7.54-2.86,12.01.3,1.67.46,3.45-2.26,4.13-3.38.85-4.03,5.9-.94,7.79,2.21,1.35,2.28,2.99,2.28,5,0,2.71-.97,3.65-3.7,2.41-4.89-2.22-10.11,1.02-10.27,6.27-.06,1.99-.06,3.99,0,5.99.06,2.18-.35,3.83-2.85,4.53-2.66.75-3.36,2.93-3.13,5.52.29,3.24,2.8,2.2,4.57,2.3,2.99.16,3.44,2,3.4,4.42-.04,2.51-1.29,3.41-3.72,3.62-8.22.71-8.28.78-8.23,9.12.01,2.8-.17,5.3-2.91,6.9-.49.28-1.02,1.07-.99,1.59.34,6.14-4.72,8.67-8.13,12.3Z"/>
  <path class="cls-13" d="m407.12,304.85c-.35-6.31-1.64-12.44-3.63-18.43-.83-2.5.06-4.88,2.36-5.05,4.98-.37,5.3-3.45,5.26-7.13,0-.17,0-.33,0-.5.11-8.86-1.15-7.72,7.99-7.83.17,3.42-1.03,7.08,3.32,9.35,1.43.75,1.18,3.75-.03,5.49-1.15,1.67-2.29.58-3.74-.16-3.77-1.92-9.47,2.22-9.51,6.8-.05,5.9.04,11.79-2.03,17.44Z"/>
  <path class="cls-35" d="m327.23,441.6c0-1.49.14-3-.02-4.48-.58-5.31.69-9.73,4.16-14.11,4.86-6.13,5.33-14.25,7.81-21.47,1.18-3.44,1.56-7.17,6.13-8.13,2.04-.43,1.89-2.45,1.9-4.13,0-4.65.02-9.3,0-13.94-.01-1.7,0-4.31,1.5-4.37,7.68-.34,6.3-10.11,12.84-11.81,2.14-.55,1.74-4.04,1.63-6.36-.19-3.85.28-6.95,5.28-7.15,3.09-.12,3.18-2.91,2.59-4.9-1.52-5.13-1.12-9.64,2.5-13.83,1.69-1.96,1.83-4.56,1.63-7.1.65-1.37.92-3.55,3.02-2.93,1.9.56,1.89,2.3.97,3.93-.01,3.85,0,7.67-4.67,9.2-1.67.55-1.29,2.12-1.3,3.38-.04,3.79-.02,7.59-.02,11.38-1.28,1.42-1.08,3.43-2,4.99,2.17,8.11-3.02,11.38-9.27,13.71-1.83.68-2.9,1.35-2.73,3.39.04.48.1,1.24-.18,1.44-7.25,5.39-2.8,13.05-3.63,19.61-.47,3.75-.42,6.57-5.31,5.82-2.15-.33-2.9,1.01-2.86,3.03.06,2.82.04,5.64,0,8.46-.03,1.91.38,3.74-2.4,4.67-2.95.98-1.7,4.12-1.46,6.12.61,5.21-1.15,8.34-6.31,9.68-4.53,1.18-6.66,4.04-5.85,8.95.53,3.2-.34,5.93-3.95,6.95Z"/>
  <path class="cls-35" d="m379.16,320.82c-.03-1.09.27-2.54-.81-3.02-1.72-.76-1.67,1.99-3.18,2.02-1.38-4.74.57-7.77,5.37-8.37,3.07-.38,3.5-2.46,2.96-4.95-.74-3.43-.29-6.21,2.3-9.04,2.5-2.73,1.96-6.53.49-9.76-1.6-3.52-.62-5.4,3.5-5.81,5.88-.58,7.26-2.28,5.72-8.16-1.19-4.54,1.94-7.84,2.63-11.81,4.08-3.82,5.49-9.56,9.72-13.33,2.06-1.84,3.27-4.12,3.43-7.29.26-5.32,7.86-9.45,12.87-7.58.89.33,1.96.18,2.95.25-.21,1.5.66,3.82-1.87,3.86-3.88.07-5.5,2.91-5.85,5.63-.4,3.03-3.12,2.37-4.36,4.1-4.88,6.8-6.19,15.95-13.81,20.95-.65.43-1.19,1.87-.99,2.64,2.33,9.11-6.63,15.83-5.17,24.74.14.85-.44,1.67-1.37,1.8-3.28.47-2.63,3.01-2.48,5,.35,4.71.13,8.71-4.98,11.31-2.78,1.42-4.73,4.49-7.05,6.81Z"/>
  <path class="cls-35" d="m297.28,507.48c.04-1.04.3-2.31,1.2-2.58,5.61-1.68,4.94-6.14,4.78-10.39-.06-1.56.43-2.94,1.14-4.27,1.9-3.57,2.99-7.35,2.84-11.4-.09-2.44.72-4.49,2.99-5.19,4.57-1.42,5.6-4.5,5.05-8.77-.5-3.85-.13-7.13,4.67-8.3,2.99-.73,2.19-3.65,2.31-5.9.17-3.3-.84-7,2.99-9.1,1.44,9.28-2.63,18.16-2.03,27.38.22,3.35-3.3,3.49-4.83,4.02-6.09,2.1-7.28,5.94-7.4,11.97-.11,5.4-2.3,10.79-1.78,16.42.04.44-.31,1.32-.45,1.32-4.56-.14-6.67,5.57-11.46,4.77Z"/>
  <path class="cls-35" d="m371.17,349.76c.02-1.92-.33-3.99,2-4.99.06,1.95-.41,3.7-2,4.99Z"/>
  <path class="cls-16" d="m424.1,206.03c1,0,2,0,3,0,1.32,4.15,4.68,4.46,7.82,3.28,2.51-.95,3.49,1.01,5.16,1.52,1.02.31,1.02,1.81.01,2.41-4.07,2.42-7.47,5.64-11.11,8.6-1.92,1.56-2.34,2.36-.89,4.14-.47,1.22-.87,2.48-1.45,3.65-.38.76-1.13,1.23-2.05,1.12-1.32-.16-1.43-1.18-1.46-2.2-.04-1.33.09-2.67-.06-3.98-.15-1.38.78-3.77-.91-3.9-1.97-.15-4.47,1.25-4.81,3.47-.78,5.07-4.06,7.95-7.84,10.73-2.93,2.16-3.53,5.89-5.2,8.9-.55,1-.59,2.76-1.35,3.11-5.84,2.68-7.06,8.47-9.74,13.38-.95,1.75-2.95,5.33-6.08,1.65.08-1.3-.38-2.87.82-3.73,3.14-2.24,3.18-5.37,3.25-8.78.09-4.08,3.08-6.41,6.58-7.29,2.03-.51,2.96-1.22,3.93-2.95,1.25-2.22,2.47-4.28,4.71-6.19,4.55-3.87,6.53-9.94,8.87-15.56,1.18-2.82,1.65-7,6.18-7.53,2.1-.24,1.58-2.66,2.59-3.86Z"/>
  <path class="cls-7" d="m359.19,281.89v-11.98c2.64-.62,4.66-2.77,5.38-4.73,1.7-4.59,6.49-7.28,7.1-12.45.11-.89,1.69-2.43,2.33-2.3,4.29.82,4.92-4.15,8.15-4.89.41-.1.95-1.06.89-1.57-.57-5.54,4.09-7.25,7-10.49,3.1-3.45,4.84-8.16,7.03-12.39.41-.8.11-2.68.9-2.57,3.8.54,4.73-3.1,7.14-4.5,1.2,1.07,1.57,2.54,2,3.99-.05,1.79.36,3.82-2.36,4.11-.43.05-1.2.57-1.16.74,1.35,6.47-4.77,6.66-7.79,9.53-4.23,4.02-5.4,9.95-8.32,14.83-.92,1.54-1.78,2.29-3.29,3.13-2.31,1.29-3.88,3.62-5.58,5.61-3.85,4.52-3.48,12.09-10.29,14.27-1.41.45-1.24,1.92-1.11,3,.59,4.74-4.12,5.68-6.1,8.57-.22.32-1.27.08-1.93.1Z"/>
  <path class="cls-50" d="m331.23,337.79c-.06-1.77.39-3.79-2.34-4.09-1.17-.13-1.62-1.02-1.5-2.16.17-1.55,1.35-1.57,2.53-1.74,5.75-.83,6.49-2.67,4.19-8.22-1.16-2.81-2.69-5.85,1.82-8.22,2.16-1.13,3.33-4.48,3.34-7.66.04-7.83.16-7.83,7.93-7.84,0,2.97.01,5.93,0,8.9,0,.99.31,2.3-.2,2.91-5.96,7.18-4.74,16.63-7.94,24.66-1.49,3.74-4.65,3.62-7.84,3.46Z"/>
  <path class="cls-9" d="m347.21,297.86c0-1.47.08-2.95-.02-4.42-.16-2.4.62-3.61,3.28-3.63,2.85-.03,4.67-1.78,4.64-4.62-.03-3.13,1.68-3.49,4.07-3.3.63,3.61-.72,6.33-3.55,8.57-.98.77-2.28,2.08-2.21,3.07.34,5.17-3.17,4.33-6.22,4.33Z"/>
  <path class="cls-46" d="m407.12,218c-2.68-.32-1.81-2.43-2-3.99-.07-2.14-.19-4.3,3-3.99,1.67,0,3.33,0,5,0-.41,2-2.32,3.32-2.12,5.73.23,2.78-2.21,2.11-3.87,2.26Z"/>
  <path class="cls-42" d="m313.25,281.89c-.41,2-2.32,3.32-2.12,5.73.23,2.78-2.21,2.11-3.87,2.26-.52-4.55.73-7.77,5.99-7.99Z"/>
  <path class="cls-62" d="m307.26,329.8h3.99c0,3.27-.08,6.55.02,9.81.09,2.86-1.03,4.36-4.02,4.16v-13.97Z"/>
  <path class="cls-56" d="m295.28,409.65c.6,6.91-.48,13.64-2.02,20.34-.29,1.24-.87,2.09-1.97,2.62,0-6.38.14-12.77-.06-19.15-.09-3.12,1.18-4.15,4.05-3.81Z"/>
  <path class="cls-31" d="m359.19,245.95c0,.97,0,1.94,0,2.92,0,7.35-.38,7.78-7.99,9.06-.87-6.34,3.2-9.4,7.99-11.98Z"/>
</svg>