<?xml version="1.0" encoding="UTF-8"?>
<svg id="Capa_1" data-name="Capa 1" xmlns="http://www.w3.org/2000/svg" viewBox="0 0 472.71 471.03">
  <defs>
    <style>
      .cls-1 {
        fill: #010101;
        stroke-width: 0px;
      }
    </style>
  </defs>
  <path class="cls-1" d="m299.15,226.72s0,0,0,0h0s0,0,0-.02c0,0-.02,0-.03,0,0,0,.01,0,.02,0Z"/>
  <path class="cls-1" d="m299.2,226.82s-.03-.06-.05-.09h0s-.01.07-.02.1c.02,0,.04,0,.06,0Z"/>
  <path class="cls-1" d="m138.57,295.5s0-.04,0-.05c-.03.02-.07.03-.11.04,0,0,.02.01.02.02,0,0,0,0,0,0,0-.02.04,0,.07,0Z"/>
  <path class="cls-1" d="m274.63,468.84c19.41-3.17,38.02-9.04,56.29-16.12,1.17-.88,2.42-1.58,3.93-1.66h0c1.05-1.33,2.62-1.63,4.11-2.12,3.9-1.97,7.81-3.93,11.71-5.9,0,0,0,0,0,0,1.75-1.03,3.49-2.06,5.24-3.09,1.91-1.2,3.33-3.44,6.08-2.8.17-.33.44-.47.81-.4,1.24-3.27,4.57-3.91,7.06-5.59,1.38-1.45,2.85-2.74,4.88-3.2,0,0,0,0,0,0h0s0,0,0,0c0,0,0,0,0,0,2.3-2.71,5.27-4.56,8.2-6.46,2.52-2.27,4.92-4.69,7.93-6.35h0c3.62-3.31,7.24-6.62,10.86-9.93,2.34-2.39,4.69-4.77,7.03-7.16h0c5.38-6.23,10.76-12.46,16.13-18.69,1.23-2.4,2.73-4.6,4.76-6.41,7.99-12.55,16.07-25.05,22.12-38.71,1.6-3.62,3.28-7.2,4.92-10.8,0,0,0,0,0,0-.03-.9.11-1.73.89-2.32,1.41-3.87,2.81-7.74,4.22-11.61,3.62-12.8,7.03-25.66,9.07-38.83h0s0,0,0,0c-.36-1.79-.49-3.49,1.83-4.07v-62.84c-3.5-.03-1.49-2.58-1.85-4.05-4.51-28.19-13.33-54.93-27.32-79.87-9.09-16.22-19.93-31.18-32.67-44.75l-3.73-4.02c-10.46-9.34-19.9-19.85-31.72-27.63-6.15-4.05-12.3-8.1-18.45-12.16-2.8-1.64-5.6-3.28-8.4-4.92-4.17-2.07-8.34-4.13-12.51-6.2-1.35-.61-2.69-1.22-4.04-1.82h0c-.98-.42-1.96-.84-2.94-1.27-11.48-4.39-23.14-8.27-34.91-11.8-4.34-.98-8.67-1.97-13.01-2.95,0,0,0,0,0,0h0c-4.05-.18-8.02-.92-11.92-1.99-.07-.17-.2-.28-.36-.37l.36.37c-2.62-.08-5.24-.17-7.86-.25h0s0,0,0,0c-1.68,0-3.36,0-5.04-.01h0c-14.76.02-29.52.03-44.28.05h0c-1.25,0-2.49,0-3.74,0-50.23,6.97-94.62,26.51-131.88,61.35-.35.33-.81.55-1.22.82-6.12,6.31-12.24,12.63-18.36,18.94-1.28,2.27-3.03,4.15-4.98,5.86-2.28,3.01-4.1,6.41-7.08,8.86-.39.69-.79,1.38-1.18,2.06-1.26,2.56-2.84,4.9-4.78,7-6.55,11.82-14.24,23.16-19.35,35.57-6.33,15.37-11.91,31.2-14.73,47.75-1.2,7.02-3.02,13.95-3.01,21.14,0,0,0,0,0,0,0,0,0,0,0,0,.25,1.75.93,3.67-1.68,4.3-.02,14.89-.04,29.77-.06,44.66,0,0,0,0,0,0,2.96,2.17,1.57,5.37,1.92,8.16,1.19,2.16.81,4.55,1.04,6.86h0c.99,1.93,1.1,4,.99,6.1,2.77,11.3,5.59,22.57,9.34,33.6,5.73,16.83,13.83,32.52,22.68,47.86,2.44,2.8,4.47,5.89,6.21,9.16,14.72,20.33,31.88,38.32,51.55,53.91,1.28.26,2.1,1.13,2.81,2.14,2.61,1.31,4.97,2.97,7.11,4.95,2.24.98,4.24,2.3,6.04,3.95,1.21.31,2.2.96,2.97,1.96,3.19,1.29,6.13,2.99,8.86,5.07,15.07,8.05,30.87,14.38,46.98,19.97h0c6.38,1.61,12.76,3.23,19.14,4.84h0c3.92.71,7.83,1.43,11.75,2.14,0,0,0,0,0,0,0,0,0,0,0,0,1.87.27,4.37-1.32,5.3,1.77,21.12.03,42.24.06,63.36.1,1.37-3.13,4.4-1.83,6.59-2.19Zm-151.79-150.59c4.07-7.04,8.01-13.86,11.95-20.69.52-1.68,1.36-3.16,2.61-4.4,5.11-10.16,10.99-19.88,16.77-29.66,1.12-1.92,2.24-3.84,3.36-5.76,2.05-3.67,4.1-7.34,6.15-11.02.89-1.44,1.78-2.87,2.68-4.31h0s0,0,0,0c.02-.74-.03-1.51.88-1.81h0c.63-1.34,1-2.83,2.28-3.78.64-1.9,1.52-3.67,2.95-5.12,1.2-3.03,2.71-5.87,4.82-8.36,1.84-4.5,4.46-8.56,7.13-12.59.86-2.6,2.28-4.88,4.01-6.98,1.88-4.24,4.24-8.2,6.88-12.01,1.58-3.68,3.59-7.12,5.93-10.37,1.83-5,4.94-9.26,7.83-13.65h0c2.75-5.49,5.58-10.93,9.25-15.88,6.11-12.31,13.58-23.83,20.79-36.78,3.61,6.42,6.86,12.22,10.12,18.02,1.43,1.7,2.66,3.5,3.25,5.68,1.38,1.47,2.41,3.15,2.91,5.12,1.19,1.05,1.84,2.4,2.22,3.91,3.63,6.33,7.25,12.65,10.88,18.98,2.14,3.7,4.28,7.4,6.42,11.1,8.24,14.26,16.92,28.28,24.23,43.07,0,0,0,0,0,0h0c2.15,1.78,3.08,4.28,4.04,6.77,10.67,18.49,21.38,36.97,32.01,55.48,6.61,11.51,13.13,23.08,19.94,35.06H122.85Z"/>
</svg>