<?xml version="1.0" encoding="UTF-8"?>
<svg id="Capa_1" data-name="Capa 1" xmlns="http://www.w3.org/2000/svg" viewBox="0 0 596.63 134.24">
  <defs>
    <style>
      .cls-1 {
        stroke-width: 0px;
      }
    </style>
  </defs>
  <path class="cls-1" d="m77.55,0c25.94,44.91,51.68,89.46,77.55,134.24H0C25.84,89.51,51.6,44.91,77.55,0Z"/>
  <path class="cls-1" d="m216.11,111.28c-19.44-33.64-38.72-67.01-58.22-100.75,7.23,0,14.02.03,20.81-.02,1.51,0,1.69,1.22,2.19,2.09,9.83,16.96,19.62,33.93,29.42,50.9,1.85,3.2,3.7,6.4,5.72,9.88.62-1,1.15-1.78,1.62-2.6,11.19-19.37,22.4-38.74,33.53-58.15.92-1.6,1.87-2.2,3.72-2.16,6.3.13,12.61.05,19.4.05-19.46,33.7-38.75,67.08-58.2,100.76Z"/>
  <path class="cls-1" d="m445.93,33.59c11.64.23,23.17,4.39,31.5,15.5,1.2,1.6,1.63,2.51-.66,3.66-4.27,2.16-8.36,4.69-12.48,7.15-1.1.66-1.57.53-2.32-.56-5.56-8.12-15.96-11.15-25.83-7.63-8.55,3.05-13.57,11.4-12.8,21.28.75,9.67,5.85,16.22,14.42,18.55,9.69,2.63,18.94-.39,24.16-8.04.87-1.27,1.43-1.18,2.55-.52,4.27,2.53,8.55,5.05,12.91,7.42,1.49.81,1.38,1.42.52,2.64-7.25,10.22-17.48,14.94-29.64,15.98-6.79.58-13.46-.19-19.9-2.53-16.58-6.03-26.15-22.25-23.68-40.13,2.77-20.11,17.96-32.7,41.25-32.78Z"/>
  <path class="cls-1" d="m370.39,51.07c4.81-9.53,15.47-15.81,26.31-15.35,1.14.05,1.41.41,1.4,1.46-.04,5.72-.06,11.44.01,17.17.02,1.54-.56,1.56-1.8,1.26-3.75-.91-7.52-.79-11.24.23-9.08,2.49-14.55,9.85-14.66,19.96-.1,9.42-.15,18.85.05,28.27.06,2.68-.78,3.19-3.22,3.08-4.62-.2-9.26-.13-13.89-.02-1.59.04-1.96-.46-1.96-1.99.05-22.47.05-44.94,0-67.4,0-1.47.26-2.08,1.91-2.05,5.05.11,10.11.1,15.16,0,1.6-.03,1.98.5,1.95,2.02-.09,4.45-.03,8.91-.03,13.36Z"/>
  <path class="cls-1" d="m577.72,58.89c0-15.31.04-30.62-.05-45.93-.01-1.96.47-2.54,2.47-2.48,4.88.15,9.77.1,14.65.02,1.39-.02,1.85.31,1.84,1.78-.04,31.04-.04,62.08,0,93.12,0,1.27-.27,1.75-1.65,1.73-5.13-.08-10.28-.15-15.41.02-2.07.07-1.85-1.03-1.85-2.33,0-14.81,0-29.61,0-44.42v-1.51Z"/>
  <path class="cls-1" d="m545.93,38.42c-9.32-4.86-19.26-5.74-29.49-4.06-16.11,2.63-28.19,14.45-30.58,29.81-2.72,17.48,4.57,32.3,19.75,39.99,9.74,4.94,20.07,6.07,30.73,4.19,9.21-1.62,17.2-5.66,23.67-12.55,1.05-1.12,1.21-1.65-.34-2.5-4.36-2.37-8.63-4.91-12.9-7.43-.96-.57-1.62-.76-2.61.14-6.33,5.77-13.88,7.36-22.09,5.82-7.55-1.42-13.24-5.47-16.6-13.11h3.17c17.86,0,35.72,0,53.58,0,1.22,0,2.24.12,2.48-1.62,1.95-13.97-2.81-30.38-18.76-38.7Zm-3.61,25.64c-5.73,0-11.45,0-17.18,0-5.89,0-11.79-.06-17.68.04-1.82.03-2.21-.35-1.43-2.07,2.95-6.54,8.09-10.14,15.03-11.34,9.98-1.73,19.15,2.58,22.95,10.75q1.22,2.63-1.69,2.63Z"/>
  <path class="cls-1" d="m319.58,38.37c-9.34-4.83-19.29-5.68-29.52-3.99-16.39,2.72-28.17,14.56-30.62,30.68-2.52,16.5,4.94,31.35,19.62,38.97,8.23,4.27,17.05,5.75,26.21,4.97,11.03-.94,20.72-4.95,28.45-13.15,1.01-1.07,1.36-1.64-.28-2.53-4.37-2.37-8.63-4.91-12.91-7.43-.97-.57-1.64-.79-2.61.14-3.91,3.78-8.73,5.56-14.06,6.21-9.66,1.17-19.33-3.37-23.5-11.11-1.27-2.35-1.25-2.4,1.35-2.4,9.02,0,18.03,0,27.05,0,9.1,0,18.2-.04,27.3.03,1.55.01,2.19-.38,2.4-2,1.95-15.03-3.81-30.61-18.89-38.4Zm-3.5,25.7c-5.72,0-11.45,0-17.17,0-5.81,0-11.62-.11-17.42.05-2.49.07-2.35-.73-1.5-2.51,2.96-6.18,7.9-9.63,14.54-10.87,10.03-1.87,19.35,2.39,23.22,10.63,1.23,2.62,1.2,2.68-1.67,2.69Z"/>
</svg>