<?xml version="1.0" encoding="UTF-8"?>
<svg id="Capa_1" data-name="Capa 1" xmlns="http://www.w3.org/2000/svg" viewBox="0 0 151.24 137.76">
  <defs>
    <style>
      .cls-1 {
        fill: #b7cc8c;
      }

      .cls-1, .cls-2, .cls-3, .cls-4 {
        stroke-width: 0px;
      }

      .cls-2 {
        fill: #fbc62b;
      }

      .cls-3 {
        fill: #729a1b;
      }

      .cls-4 {
        fill: #a2bd69;
      }
    </style>
  </defs>
  <path class="cls-2" d="m89.59,5.06c-.47,8.63-.88,16.74-1.4,24.85-.1,1.56.39,2.19,1.9,2.49,6.5,1.29,12.97,2.69,19.45,4.05.24.05.49.1.73.16,3.87.92,4.63,2.79,2.39,6.03-6.26,9.07-12.55,18.13-18.82,27.2-5.28,7.63-10.57,15.27-15.84,22.91-.98,1.42-2.01,2.74-4.02,2.11-2.07-.65-2.38-2.27-2.27-4.17.46-8.11.77-16.23,1.41-24.33.21-2.62-.53-3.57-3.06-4.04-6.43-1.18-12.81-2.63-19.2-4-3.5-.75-4.34-2.79-2.31-5.73,11.59-16.78,23.19-33.55,34.78-50.33,1.05-1.52,2.23-2.8,4.29-2.04,1.93.71,2.12,2.35,1.97,4.11-.03.41,0,.83,0,.73Z"/>
  <path class="cls-3" d="m44.31,88.29c3,2.37,5.49,5.26,8.19,7.93,7.19,7.12,14.37,14.26,21.45,21.5,1.41,1.44,2.12,1.29,3.45-.05,20.08-20.16,40.22-40.28,60.34-60.39,2.95-2.95,6.18-3.56,9.46-1.86,4.33,2.25,5.39,8.01,2.13,11.66-.66.74-1.4,1.42-2.1,2.12-21.77,21.77-43.53,43.53-65.3,65.29-4.37,4.37-8.25,4.36-12.67-.06-11.72-11.75-23.43-23.5-35.14-35.25-2.05-6.4,1.83-12.45,10.18-10.89Z"/>
  <path class="cls-1" d="m44.31,88.29c-.59.72-1.37.36-2.07.35-5.41-.04-8.33,3.08-8.03,8.51.04.66.71,1.39-.08,2.03-10.78-10.73-21.56-21.46-32.34-32.2C.76,65.96.19,64.69,0,63.26c.3-.8.29-1.6,0-2.4,1.51-5.44,6.04-7.7,10.97-5.51.86.38,1.38,1.07,2.01,1.7,10.42,10.43,20.87,20.83,31.32,31.23Z"/>
  <path class="cls-4" d="m0,60.86c.64.8.64,1.6,0,2.4,0-.8,0-1.6,0-2.4Z"/>
</svg>